<?xml version="1.0" standalone="no"?>
<!DOCTYPE svg PUBLIC "-//W3C//DTD SVG 1.1//EN" "http://www.w3.org/Graphics/SVG/1.1/DTD/svg11.dtd" >
<svg xmlns="http://www.w3.org/2000/svg" xmlns:xlink="http://www.w3.org/1999/xlink" version="1.1">
<metadata>
Created by FontForge 20201107 at Wed Jan 22 20:34:09 2025
 By 
Correct typeface Copyright (c) 2023  Mario Feliciano, Feliciano Type. All rights reserved.
</metadata>
<defs>
<font id="Correct-CondensedBlack" horiz-adv-x="0" >
  <font-face 
    font-family="Correct Condensed Black"
    font-weight="900"
    font-stretch="semi-expanded"
    units-per-em="2048"
    panose-1="0 0 0 0 0 0 0 0 0 0"
    ascent="1638"
    descent="-410"
    x-height="1147"
    cap-height="1434"
    bbox="-246 -371 2077 1864"
    underline-thickness="102"
    underline-position="-153"
    unicode-range="U+000D-FB02"
  />
<missing-glyph horiz-adv-x="1095" 
d="M137 0v1434h821v-1434h-821zM377 221h344v991h-344v-991z" />
    <glyph glyph-name="fi" unicode="fi" horiz-adv-x="1224" 
d="M121 0v668h-88v356h88v147q0 275 336 275q135 0 219 -12v-291h-113q-22 0 -31.5 -8t-9.5 -31v-80h170v-356h-153v-668h-418zM766 0v1147h418v-1147h-418zM766 1235v199h418v-199h-418z" />
    <glyph glyph-name="fl" unicode="fl" horiz-adv-x="1224" 
d="M121 0v668h-88v356h88v147q0 275 336 275q135 0 219 -12v-291h-113q-22 0 -31.5 -8t-9.5 -31v-80h170v-356h-153v-668h-418zM766 0v1434h418v-1434h-418z" />
    <glyph glyph-name=".notdef" horiz-adv-x="1095" 
d="M137 0v1434h821v-1434h-821zM377 221h344v991h-344v-991z" />
    <glyph glyph-name=".null" horiz-adv-x="163" 
 />
    <glyph glyph-name="nonmarkingreturn" horiz-adv-x="682" 
 />
    <glyph glyph-name="CR" unicode="&#xd;" horiz-adv-x="555" 
 />
    <glyph glyph-name="space" unicode=" " horiz-adv-x="327" 
 />
    <glyph glyph-name="space" unicode="&#xa0;" horiz-adv-x="327" 
 />
    <glyph glyph-name="exclam" unicode="!" horiz-adv-x="483" 
d="M66 483l-21 951h397l-20 -951h-356zM41 0v348h399v-348h-399z" />
    <glyph glyph-name="quotedbl" unicode="&#x22;" horiz-adv-x="946" 
d="M512 815v619h397l-100 -619h-297zM41 815v619h397l-100 -619h-297z" />
    <glyph glyph-name="numbersign" unicode="#" horiz-adv-x="978" 
d="M496 0l30 317h-155l-31 -317h-156l31 317h-174v297h201l22 224h-180v297h207l28 299h158l-28 -299h155l29 299h158l-29 -299h176v-297h-205l-20 -224h182v-297h-211l-31 -317h-157zM399 614h156l20 224h-155z" />
    <glyph glyph-name="dollar" unicode="$" horiz-adv-x="1122" 
d="M420 -164v144q-74 4 -133 18t-98 33.5t-67.5 47.5t-43.5 54.5t-24 61.5t-11 60.5t-2 57.5v170h444v-129q0 -71 78 -71q33 0 51.5 18t18.5 53v84q0 45 -20 68.5t-76 38.5l-207 55q-154 40 -220.5 131t-66.5 246v115q0 57 8.5 103.5t33 95.5t65 83.5t109.5 58t161 27.5v111
h285v-113q88 -5 153 -29t102 -57.5t60 -81t30 -91.5t7 -97v-103h-432v82q0 86 -76 86q-34 0 -51 -21t-17 -54v-33q0 -98 84 -117l217 -47q154 -33 226.5 -123t72.5 -264v-94q0 -68 -9 -123t-34 -109t-66 -92.5t-108.5 -67t-158.5 -38.5v-148h-285z" />
    <glyph glyph-name="percent" unicode="%" horiz-adv-x="1449" 
d="M354 0l547 1434h195l-547 -1434h-195zM37 979v188q0 150 69 219.5t207 69.5h43q139 0 209 -69.5t70 -219.5v-188q0 -150 -69 -219.5t-212 -69.5h-39q-278 0 -278 289zM297 913q0 -41 41 -41q21 0 29 10t8 31v322q0 37 -37 37q-41 0 -41 -37v-322zM815 264v189
q0 149 69.5 218.5t207.5 69.5h43q139 0 208.5 -69t69.5 -219v-189q0 -151 -68.5 -220t-211.5 -69h-39q-279 0 -279 289zM1075 199q0 -41 41 -41q21 0 29 10t8 31v321q0 37 -37 37q-41 0 -41 -37v-321z" />
    <glyph glyph-name="ampersand" unicode="&#x26;" horiz-adv-x="1241" 
d="M430 -6q-84 0 -151.5 17.5t-123.5 56.5t-87 110t-31 170v123q0 135 71 206.5t189 82.5v6q-102 10 -156.5 87t-54.5 189v64q0 46 12 91t44 93.5t79.5 84.5t125 59.5t175.5 23.5h109q64 0 119.5 -8.5t109 -31t91 -58.5t60.5 -94.5t23 -135.5v-24h-352v22q0 34 -22.5 54
t-61.5 20q-78 0 -78 -92v-113q0 -55 17 -75.5t69 -20.5h72v107h360v-107h166v-276h-166v-224q0 -27 17.5 -45t50.5 -18h92v-338q-140 -4 -180 -4q-180 0 -221 65q-48 -34 -124 -50.5t-143 -16.5h-100zM489 377q0 -90 86 -90q103 0 103 90v248h-90q-48 0 -73.5 -21.5
t-25.5 -81.5v-145z" />
    <glyph glyph-name="quotesingle" unicode="'" horiz-adv-x="475" 
d="M41 815v619h397l-100 -619h-297z" />
    <glyph glyph-name="parenleft" unicode="(" horiz-adv-x="626" 
d="M586 -246q-102 6 -187 59t-151.5 152.5t-104 260.5t-37.5 368q0 209 36.5 370t102 261.5t151.5 153.5t190 59v-244q-68 -8 -108 -159t-40 -441t39.5 -438.5t108.5 -157.5v-244z" />
    <glyph glyph-name="parenright" unicode=")" horiz-adv-x="626" 
d="M41 -2q69 9 108 157t39 439q0 290 -40 441t-107 159v244q104 -6 190 -59t151.5 -153.5t101.5 -261.5t36 -370q0 -207 -37.5 -368t-103.5 -260.5t-151 -152.5t-187 -59v244z" />
    <glyph glyph-name="asterisk" unicode="*" horiz-adv-x="774" 
d="M500 811l-111 154l-108 -152l-175 105l115 157l-184 86l96 170l150 -71v174h209v-174l153 75l92 -174l-178 -86l115 -160z" />
    <glyph glyph-name="plus" unicode="+" horiz-adv-x="954" 
d="M344 84v299h-303v266h303v303h266v-303h303v-266h-303v-299h-266z" />
    <glyph glyph-name="comma" unicode="," horiz-adv-x="481" 
d="M41 -270v147h57q77 0 104 16t27 70v37h-188v348h399v-348q0 -141 -86 -205.5t-235 -64.5h-78z" />
    <glyph glyph-name="hyphen" unicode="-" horiz-adv-x="585" 
d="M41 428v295h504v-295h-504z" />
    <glyph glyph-name="period" unicode="." horiz-adv-x="481" 
d="M41 0v348h399v-348h-399z" />
    <glyph glyph-name="slash" unicode="/" horiz-adv-x="655" 
d="M-25 -246l365 1680h287l-363 -1680h-289z" />
    <glyph glyph-name="zero" unicode="0" horiz-adv-x="1060" 
d="M457 -25q-216 0 -318 127.5t-102 384.5v445q0 134 19.5 228t66 164t128.5 104t202 34h137q232 0 333 -132t101 -398v-445q0 -107 -11 -184t-39.5 -141.5t-77.5 -104t-125 -61t-181 -21.5h-133zM463 365q0 -70 67 -70q68 0 68 70v708q0 70 -68 70q-67 0 -67 -70v-708z" />
    <glyph glyph-name="one" unicode="1" horiz-adv-x="745" 
d="M217 0v952h-176v283q229 0 238 201h376v-1436h-438z" />
    <glyph glyph-name="two" unicode="2" horiz-adv-x="1044" 
d="M41 293q0 179 45.5 278.5t175.5 173.5l244 140q86 50 86 133v51q0 38 -18 56t-48 18q-36 0 -50.5 -21t-14.5 -61v-125h-395v84q0 104 20.5 181t68.5 137t132.5 90t206.5 30h90q200 0 305.5 -87.5t105.5 -291.5v-123q0 -139 -52 -219.5t-204 -173.5l-215 -131
q-38 -22 -50.5 -40t-12.5 -52v-18h520v-322h-940v293z" />
    <glyph glyph-name="three" unicode="3" horiz-adv-x="1044" 
d="M469 -25q-432 0 -432 363v145h397v-123q0 -73 68 -73q34 0 48.5 18t14.5 55v144q0 59 -28 81.5t-76 22.5h-174v297h174q59 0 81.5 15.5t22.5 76.5v90q0 74 -63 74q-64 0 -64 -74v-86h-387v64q0 393 410 393h102q97 0 173 -21.5t122.5 -55.5t77 -80t42 -89.5t11.5 -89.5
v-80q0 -111 -60.5 -188.5t-166.5 -87.5v-6q112 -11 179 -82.5t67 -206.5v-123q0 -80 -23.5 -144t-63 -106t-94 -70.5t-114.5 -40.5t-127 -12h-117z" />
    <glyph glyph-name="four" unicode="4" horiz-adv-x="1126" 
d="M547 0v324h-506v325l272 789h648v-803h124v-311h-124v-324h-414zM381 635h166v532h-4q-35 -167 -92 -331z" />
    <glyph glyph-name="five" unicode="5" horiz-adv-x="1044" 
d="M496 -20q-123 0 -216.5 34.5t-144 90.5t-74.5 117.5t-24 125.5v113h422v-99q0 -77 63 -77q28 0 43 23.5t15 53.5v248q0 82 -72 82q-27 0 -44.5 -19.5t-17.5 -56.5v-34h-403v852h883v-312h-480v-202h13q37 56 87.5 86t135.5 30h6q73 0 130 -24t92 -62.5t57.5 -91.5
t31.5 -106t9 -111v-231q0 -218 -108 -324t-353 -106h-51z" />
    <glyph glyph-name="six" unicode="6" horiz-adv-x="1032" 
d="M463 -25q-426 0 -426 465v598q0 420 450 420h76q225 0 324.5 -101t99.5 -288v-51h-399v59q0 37 -18 56.5t-48 19.5q-63 0 -63 -76v-213h4q29 28 51 43t66.5 28t105.5 13q155 0 232 -88t77 -239v-218q0 -95 -23 -171.5t-71 -135t-127.5 -90t-185.5 -31.5h-125zM455 344
q0 -68 57 -68q29 0 44 18.5t15 49.5v231q0 34 -13.5 51t-45.5 17q-57 0 -57 -68v-231z" />
    <glyph glyph-name="seven" unicode="7" horiz-adv-x="884" 
d="M127 0l291 1118h-377v316h803v-291l-269 -1143h-448z" />
    <glyph glyph-name="eight" unicode="8" horiz-adv-x="1044" 
d="M463 -25q-99 0 -176.5 24.5t-123.5 62.5t-75.5 88.5t-40 97t-10.5 94.5v47q0 59 12 113t39 105.5t77 89.5t118 55v8q-102 9 -157.5 90.5t-55.5 218.5v37q0 58 9.5 105.5t36 95t70 79.5t115.5 52t168 20h82q211 0 317.5 -81t106.5 -271v-70q0 -46 -11.5 -90t-35.5 -84.5
t-66.5 -68t-99.5 -33.5v-8q114 -26 180 -121t66 -230v-47q0 -52 -10 -100.5t-39.5 -100.5t-75 -90.5t-123 -63t-178.5 -24.5h-119zM461 975q0 -70 61 -70q62 0 62 70v141q0 70 -60 70q-63 0 -63 -70v-141zM463 350q0 -35 13 -52t46 -17q60 0 60 69v189q0 69 -60 69
q-59 0 -59 -69v-189z" />
    <glyph glyph-name="nine" unicode="9" horiz-adv-x="1032" 
d="M449 -20q-115 0 -195 27.5t-125 81t-64.5 122.5t-19.5 162v112h399v-120q0 -37 18 -56.5t48 -19.5q63 0 63 76v274h-4q-30 -44 -79.5 -64t-143.5 -20q-157 0 -233 80t-76 229v193q0 405 407 405h125q426 0 426 -477v-582q0 -69 -12 -127.5t-43.5 -114.5t-81 -95
t-129.5 -62.5t-184 -23.5h-96zM461 928q0 -34 13.5 -51t45.5 -17q58 0 58 68v166q0 67 -58 67q-59 0 -59 -67v-166z" />
    <glyph glyph-name="colon" unicode=":" horiz-adv-x="481" 
d="M41 0v348h399v-348h-399zM41 799v348h399v-348h-399z" />
    <glyph glyph-name="semicolon" unicode=";" horiz-adv-x="481" 
d="M41 -270v147h57q77 0 104 16t27 70v37h-188v348h399v-348q0 -141 -86 -205.5t-235 -64.5h-78zM41 799v348h399v-348h-399z" />
    <glyph glyph-name="less" unicode="&#x3c;" horiz-adv-x="913" 
d="M872 121l-831 270v246l831 268v-256l-469 -135l469 -135v-258z" />
    <glyph glyph-name="equal" unicode="=" horiz-adv-x="913" 
d="M41 188v267h831v-267h-831zM41 578v266h831v-266h-831z" />
    <glyph glyph-name="greater" unicode="&#x3e;" horiz-adv-x="913" 
d="M41 121v258l469 135l-469 135v256l831 -268v-246z" />
    <glyph glyph-name="question" unicode="?" horiz-adv-x="978" 
d="M281 600q0 68 13.5 112t33 66.5t61.5 57.5l111 92q53 44 53 108v64q0 71 -70 71q-77 0 -77 -71v-113h-369v141q0 46 9.5 87.5t35.5 85t66 74.5t106.5 51t151.5 20h131q405 0 405 -338v-72q0 -133 -115 -245l-84 -80q-5 -5 -28.5 -26.5t-31.5 -31.5t-18 -35.5t-10 -56.5
v-76h-374v115zM264 0v348h400v-348h-400z" />
    <glyph glyph-name="at" unicode="@" horiz-adv-x="1617" 
d="M793 -201q-171 0 -304 48t-216 125.5t-136.5 186.5t-74.5 221t-21 238q0 189 56.5 346.5t158 266t246 168t315.5 59.5t305.5 -45t218.5 -117t138.5 -171.5t76 -200.5t21.5 -211q0 -97 -16 -187t-51.5 -170.5t-87.5 -140t-128 -94.5t-168 -35h-22q-75 0 -133.5 37.5
t-81.5 120.5h-15q-20 -66 -76 -112t-132 -46h-21q-155 0 -231 117t-76 323v187q0 216 82.5 334t224.5 118h21q139 0 198 -90h10v72h373v-799q0 -82 62 -82q42 0 84 56.5t70 160.5t28 226q0 65 -7.5 125.5t-28 128t-52.5 125t-84.5 110.5t-121 90.5t-166 59.5t-214.5 22
q-146 0 -263.5 -41t-196 -111t-131 -167t-76 -204.5t-23.5 -228.5q0 -735 670 -735q182 0 333 43l5 -82q-180 -45 -342 -45zM739 475q0 -43 14 -62.5t46 -19.5q31 0 43 19t12 63v322q0 44 -12.5 63t-42.5 19q-32 0 -46 -19.5t-14 -62.5v-322z" />
    <glyph glyph-name="A" unicode="A" horiz-adv-x="1171" 
d="M20 0l216 1434h698l217 -1434h-481l-29 328h-141l-25 -328h-455zM520 604h96l-30 342l-19 221h-8l-14 -221z" />
    <glyph glyph-name="B" unicode="B" horiz-adv-x="1171" 
d="M41 0v1434h657q402 0 402 -344v-64q0 -126 -60 -199.5t-139 -91.5v-6q128 -20 181 -97t53 -233v-55q0 -185 -81 -264.5t-237 -79.5h-776zM500 309h86q29 0 47.5 8.5t25 24.5t8 26t1.5 26v5v80q0 82 -82 82h-86v-252zM500 874h75q78 0 78 80v72q0 76 -82 76h-71v-228z" />
    <glyph glyph-name="C" unicode="C" horiz-adv-x="1110" 
d="M547 -25q-250 0 -380 121t-130 385v551q0 214 125.5 320t361.5 106h70q212 0 336.5 -111t124.5 -323v-139h-410v166q0 41 -15.5 60t-56.5 19t-57 -19.5t-16 -59.5v-668q0 -40 17 -60t58 -20q74 0 74 80v197h424v-129q0 -246 -115 -361t-350 -115h-61z" />
    <glyph glyph-name="D" unicode="D" horiz-adv-x="1165" 
d="M41 0v1434h655q432 0 432 -447v-510q0 -112 -25 -196.5t-81 -149t-153 -98t-234 -33.5h-594zM500 332h92q35 0 55.5 30t20.5 72l-2 539q0 125 -95 125h-71v-766z" />
    <glyph glyph-name="E" unicode="E" horiz-adv-x="954" 
d="M41 0v1434h842v-328h-383v-188h368v-349h-368v-229h413v-340h-872z" />
    <glyph glyph-name="F" unicode="F" horiz-adv-x="905" 
d="M41 0v1434h827v-328h-368v-244h356v-338h-356v-524h-459z" />
    <glyph glyph-name="G" unicode="G" horiz-adv-x="1138" 
d="M549 -25q-251 0 -381.5 121t-130.5 385v551q0 215 125.5 320.5t363.5 105.5h88q114 0 203 -32t139.5 -78.5t83 -108.5t43.5 -113.5t11 -101.5v-70h-445v115q0 80 -74 80q-75 0 -75 -80v-690q0 -92 80 -92q82 0 82 92v137h-76v320h516v-373q0 -256 -128 -372t-366 -116
h-59z" />
    <glyph glyph-name="H" unicode="H" horiz-adv-x="1138" 
d="M41 0v1434h459v-516h139v516h459v-1434h-459v580h-139v-580h-459z" />
    <glyph glyph-name="I" unicode="I" horiz-adv-x="540" 
d="M41 0v1434h459v-1434h-459z" />
    <glyph glyph-name="J" unicode="J" horiz-adv-x="700" 
d="M305 -4q-186 0 -280 4v336h112q36 0 49 15.5t13 49.5v1033h460v-1090q0 -168 -84.5 -258t-269.5 -90z" />
    <glyph glyph-name="K" unicode="K" horiz-adv-x="1148" 
d="M41 0v1434h459l2 -586h10l147 586h451l-207 -713l234 -721h-465l-160 571h-12v-571h-459z" />
    <glyph glyph-name="L" unicode="L" horiz-adv-x="901" 
d="M41 0v1434h459v-1098h364v-336h-823z" />
    <glyph glyph-name="M" unicode="M" horiz-adv-x="1523" 
d="M41 0v1434h612l109 -662h10l117 662h594v-1434h-400v436l15 498h-15l-170 -934h-297l-176 934h-14l8 -498v-436h-393z" />
    <glyph glyph-name="N" unicode="N" horiz-adv-x="1179" 
d="M41 0v1434h483l195 -650h14l-4 299v351h410v-1434h-471l-209 741h-13l5 -311v-430h-410z" />
    <glyph glyph-name="O" unicode="O" horiz-adv-x="1155" 
d="M547 -25q-249 0 -379.5 123t-130.5 387v463q0 264 130.5 387t379.5 123h61q250 0 380 -122.5t130 -387.5v-463q0 -265 -130 -387.5t-380 -122.5h-61zM500 387q0 -80 78 -80q41 0 59 20t18 60v660q0 40 -18 59.5t-59 19.5q-42 0 -60 -19.5t-18 -59.5v-660z" />
    <glyph glyph-name="P" unicode="P" horiz-adv-x="1122" 
d="M41 0v1434h635q122 0 202 -27.5t125.5 -88t63.5 -143.5t18 -208v-80q0 -85 -6.5 -147t-29 -126t-61.5 -104t-107 -65t-162 -25h-219v-420h-459zM500 750h65q82 0 82 75v201q0 76 -82 76h-65v-352z" />
    <glyph glyph-name="Q" unicode="Q" horiz-adv-x="1155" 
d="M432 -168v150q-194 27 -294.5 149t-100.5 354v463q0 264 130.5 387t379.5 123h61q250 0 380 -122.5t130 -387.5v-463q0 -232 -100.5 -354t-294.5 -149v-150h-291zM500 387q0 -80 78 -80q41 0 59 20t18 60v660q0 40 -18 59.5t-59 19.5q-42 0 -60 -19.5t-18 -59.5v-660z
" />
    <glyph glyph-name="R" unicode="R" horiz-adv-x="1155" 
d="M41 0v1434h674q75 0 135.5 -12t101.5 -31t71 -47.5t47.5 -58t27.5 -67t13 -68t3 -67.5v-143q0 -78 -15 -131t-47.5 -85t-73 -48t-101.5 -25v-12q120 -24 176.5 -81t56.5 -169v-389h-457v391q0 84 -88 84h-65v-475h-459zM500 803h84q36 0 54.5 27.5t18.5 68.5v111
q0 90 -77 90h-80v-297z" />
    <glyph glyph-name="S" unicode="S" horiz-adv-x="1122" 
d="M483 -25q-87 0 -156 12t-114.5 31t-78.5 48t-50.5 56.5t-27.5 64.5t-12.5 63.5t-2.5 60.5v170h444v-129q0 -71 78 -71q33 0 51.5 18t18.5 53v84q0 45 -20 68.5t-76 38.5l-207 55q-154 40 -220.5 131t-66.5 246v115q0 59 9 107.5t36 98.5t71 84t120 56t178 22h192
q102 0 177.5 -21.5t118.5 -55.5t69 -83.5t34.5 -95.5t8.5 -102v-103h-432v82q0 86 -76 86q-34 0 -51 -21t-17 -54v-33q0 -98 84 -117l217 -47q154 -33 226.5 -123t72.5 -264v-94q0 -62 -8 -113.5t-27.5 -103t-55.5 -90t-88.5 -68.5t-131 -46t-178.5 -16h-109z" />
    <glyph glyph-name="T" unicode="T" horiz-adv-x="1024" 
d="M283 0v1106h-246v328h950v-328h-246v-1106h-458z" />
    <glyph glyph-name="U" unicode="U" horiz-adv-x="1138" 
d="M543 -25q-126 0 -216 22t-156 73t-98 139t-32 217v1008h459v-1037q0 -82 78 -82q33 0 51 21.5t18 60.5v1037h451v-1008q0 -128 -32.5 -217t-98.5 -139.5t-153.5 -72.5t-209.5 -22h-61z" />
    <glyph glyph-name="V" unicode="V" horiz-adv-x="1171" 
d="M238 0l-218 1434h486l47 -605l41 -559h8l45 559l47 605h457l-215 -1434h-698z" />
    <glyph glyph-name="W" unicode="W" horiz-adv-x="1736" 
d="M205 0l-180 1434h444l57 -955h11l106 955h455l90 -955h10l80 955h434l-203 -1434h-540l-64 604l-31 324h-8l-39 -324l-77 -604h-545z" />
    <glyph glyph-name="X" unicode="X" horiz-adv-x="1171" 
d="M25 0l161 750l-131 684h439l90 -572h10l72 572h452l-133 -684l162 -750h-453l-100 602h-10l-103 -602h-456z" />
    <glyph glyph-name="Y" unicode="Y" horiz-adv-x="1171" 
d="M356 0v426l-340 1008h482l61 -412l31 -213h6l29 213l55 412h475l-340 -1008v-426h-459z" />
    <glyph glyph-name="Z" unicode="Z" horiz-adv-x="1019" 
d="M23 0v242l409 864h-371v328h883v-312l-371 -794h410v-328h-960z" />
    <glyph glyph-name="bracketleft" unicode="[" horiz-adv-x="626" 
d="M127 -246v1680h459v-232h-150v-1216h150v-232h-459z" />
    <glyph glyph-name="backslash" unicode="\" horiz-adv-x="655" 
d="M680 -246h-289l-362 1680h286z" />
    <glyph glyph-name="bracketright" unicode="]" horiz-adv-x="626" 
d="M500 -246h-459v232h149v1216h-149v232h459v-1680z" />
    <glyph glyph-name="asciicircum" unicode="^" horiz-adv-x="937" 
d="M45 707l293 727h266l289 -727h-270l-154 391l-152 -391h-272z" />
    <glyph glyph-name="grave" unicode="`" horiz-adv-x="669" 
d="M272 1255l-182 242h385l105 -242h-308z" />
    <glyph glyph-name="a" unicode="a" horiz-adv-x="1028" 
d="M358 -16q-92 0 -157.5 27t-99.5 74t-49 98t-15 110v92q0 138 67.5 209.5t204.5 97.5l219 41q15 2 23.5 5.5t15 15t6.5 30.5v70q0 30 -14.5 47t-40.5 17q-59 0 -59 -62v-72h-371v74q0 313 387 313h131q105 0 182.5 -27t119 -72t60.5 -94t19 -104v-874h-366v121h-9
q-59 -137 -239 -137h-15zM449 352q0 -63 61 -63t61 57v148l-75 -21q-27 -8 -37 -23.5t-10 -50.5v-47z" />
    <glyph glyph-name="b" unicode="b" horiz-adv-x="1044" 
d="M649 -12q-68 0 -130 29t-89 77h-10v-94h-379v1434h418v-363h8q28 42 82 71t129 29h8q179 0 250.5 -121t71.5 -370v-182q0 -256 -84 -383t-267 -127h-8zM459 391q0 -47 13 -67.5t46 -20.5q34 0 49 21t15 67v363q0 46 -15 67t-49 21q-33 0 -46 -20.5t-13 -67.5v-363z" />
    <glyph glyph-name="c" unicode="c" horiz-adv-x="999" 
d="M492 -29q-222 0 -338.5 110.5t-116.5 346.5v285q0 236 116 345t339 109h43q220 0 320.5 -106.5t100.5 -347.5v-27h-378v127q0 61 -58 61q-59 0 -59 -61v-487q0 -32 13 -47t46 -15q31 0 44.5 15t13.5 47v163h385v-61q0 -242 -100 -349.5t-320 -107.5h-51z" />
    <glyph glyph-name="d" unicode="d" horiz-adv-x="1044" 
d="M365 -25q-166 0 -247 127.5t-81 364.5v201q0 112 14.5 196.5t41 140t66.5 90.5t87.5 49.5t107.5 14.5h11q138 0 210 -106h11v381h418v-1434h-398v76h-8q-64 -101 -217 -101h-16zM463 393q0 -46 15 -67t48 -21t46.5 20.5t13.5 67.5v363q0 47 -13.5 67.5t-46.5 20.5
t-48 -21t-15 -67v-363z" />
    <glyph glyph-name="e" unicode="e" horiz-adv-x="1015" 
d="M492 -25q-223 0 -339 108.5t-116 344.5v285q0 236 116 345t339 109h53q221 0 325.5 -107t104.5 -347v-232h-516v-155q0 -32 14 -47t47 -15q35 0 46.5 14.5t11.5 47.5v82h401v-19q0 -217 -107 -315.5t-329 -98.5h-51zM459 725h119v88q0 61 -58 61q-59 0 -59 -61z" />
    <glyph glyph-name="f" unicode="f" horiz-adv-x="724" 
d="M121 0v668h-88v356h88v147q0 275 336 275q135 0 219 -12v-291h-113q-22 0 -31.5 -8t-9.5 -31v-80h170v-356h-153v-668h-418z" />
    <glyph glyph-name="g" unicode="g" horiz-adv-x="1036" 
d="M504 -268q-88 0 -158 14.5t-114 41t-74.5 57t-45 68.5t-20.5 69t-6 65v62h381v-70q0 -27 16.5 -42t44.5 -15q31 0 44.5 13.5t13.5 51.5v203h-8q-35 -100 -220 -100h-12q-172 0 -240.5 111t-68.5 339v49q0 246 82 378t268 132h25q65 0 126 -32.5t76 -73.5h11v94h370v-1024
q0 -45 -3 -80.5t-13 -78t-27.5 -74t-48.5 -63t-73.5 -51t-105 -32t-140.5 -12.5h-80zM463 545q0 -46 15 -67t48 -21t46.5 20.5t13.5 67.5v211q0 47 -13.5 67.5t-46.5 20.5t-48 -21t-15 -67v-211z" />
    <glyph glyph-name="h" unicode="h" horiz-adv-x="1032" 
d="M41 0v1434h418v-385h8q69 118 235 118h13q127 0 201.5 -74.5t74.5 -230.5v-862h-418v772q0 28 -16 45t-41 17q-57 0 -57 -64v-770h-418z" />
    <glyph glyph-name="i" unicode="i" horiz-adv-x="499" 
d="M41 0v1147h418v-1147h-418zM41 1235v199h418v-199h-418z" />
    <glyph glyph-name="j" unicode="j" horiz-adv-x="499" 
d="M178 -250q-96 0 -194 4v199h16q22 0 31.5 9.5t9.5 33.5v1151h418v-1174q0 -48 -11.5 -85t-41 -70t-87 -50.5t-141.5 -17.5zM41 1235v199h418v-199h-418z" />
    <glyph glyph-name="k" unicode="k" horiz-adv-x="1064" 
d="M41 0v1434h418v-676h8l170 389h405l-237 -537l256 -610h-428l-166 461h-8v-461h-418z" />
    <glyph glyph-name="l" unicode="l" horiz-adv-x="499" 
d="M41 0v1434h418v-1434h-418z" />
    <glyph glyph-name="m" unicode="m" horiz-adv-x="1562" 
d="M41 0v1147h401v-98h9q69 118 249 118h17q172 0 244 -110h10q39 51 98.5 80.5t159.5 29.5h16q127 0 202 -74.5t75 -230.5v-862h-418v772q0 28 -16 45t-41 17q-26 0 -41 -17t-15 -45v-772h-420v772q0 33 -16 47.5t-39 14.5q-57 0 -57 -64v-770h-418z" />
    <glyph glyph-name="n" unicode="n" horiz-adv-x="1032" 
d="M41 0v1147h401v-115h9q32 55 96 94t153 39h15q127 0 201.5 -74t74.5 -229v-862h-418v772q0 28 -15 45t-42 17t-42 -17t-15 -45v-772h-418z" />
    <glyph glyph-name="o" unicode="o" horiz-adv-x="1036" 
d="M492 -29q-222 0 -338.5 110.5t-116.5 346.5v285q0 236 116 345t339 109h53q225 0 339.5 -108.5t114.5 -345.5v-285q0 -237 -115.5 -347t-340.5 -110h-51zM459 326q0 -32 14 -47t47 -15q31 0 44.5 15t13.5 47v487q0 61 -58 61q-61 0 -61 -61v-487z" />
    <glyph glyph-name="p" unicode="p" horiz-adv-x="1044" 
d="M41 -246v1393h397v-94h8q34 53 93 83.5t129 30.5h8q176 0 254 -121.5t78 -365.5v-182q0 -145 -21.5 -246t-64 -158t-97 -81.5t-127.5 -24.5h-12q-145 0 -217 106h-10v-340h-418zM459 391q0 -47 13 -67.5t46 -20.5q34 0 49 21t15 67v363q0 46 -15 67t-49 21
q-33 0 -46 -20.5t-13 -67.5v-363z" />
    <glyph glyph-name="q" unicode="q" horiz-adv-x="1036" 
d="M586 -246v322h-8q-27 -42 -84.5 -71.5t-135.5 -29.5h-6q-167 0 -241 124.5t-74 367.5v182q0 124 16.5 213.5t55.5 158.5t108 103.5t168 34.5h10q66 0 135 -33t84 -73h11v94h370v-1393h-409zM463 393q0 -46 15 -67t48 -21t46.5 20.5t13.5 67.5v363q0 47 -13.5 67.5
t-46.5 20.5t-48 -21t-15 -67v-363z" />
    <glyph glyph-name="r" unicode="r" horiz-adv-x="757" 
d="M41 0v1147h385v-137h8q18 74 83.5 108.5t158.5 34.5q25 0 49 -6v-367h-57q-104 0 -156.5 -62t-52.5 -196v-522h-418z" />
    <glyph glyph-name="s" unicode="s" horiz-adv-x="1015" 
d="M449 -25q-404 0 -404 291v115h389v-72q0 -61 68 -61q28 0 44.5 15t16.5 42v39q0 37 -18.5 58t-65.5 28l-205 33q-133 22 -187 96.5t-54 204.5v61q0 58 20.5 114t64 109t125.5 86t191 33h105q110 0 192 -24.5t126.5 -66t65.5 -89t21 -100.5v-92h-381v51q0 55 -63 55
q-64 0 -64 -55v-21q0 -65 84 -80l201 -34q132 -23 193 -97t61 -215v-55q0 -59 -12 -110t-43.5 -100t-80.5 -83t-129 -55t-184 -21h-77z" />
    <glyph glyph-name="t" unicode="t" horiz-adv-x="778" 
d="M422 -4q-155 0 -226 57.5t-71 210.5v545h-88v338h117v168h381v-168h202v-338h-202v-385v-5q0 -18 1.5 -28t7.5 -24.5t23.5 -21.5t44.5 -7h105v-338q-160 -4 -295 -4z" />
    <glyph glyph-name="u" unicode="u" horiz-adv-x="1032" 
d="M317 -20q-127 0 -201.5 74.5t-74.5 230.5v862h418v-772q0 -28 15 -45t42 -17t42 17t15 45v772h418v-1147h-401v115h-8q-34 -55 -99 -94.5t-157 -40.5h-9z" />
    <glyph glyph-name="v" unicode="v" horiz-adv-x="1085" 
d="M233 0l-208 1147h440l63 -576l15 -309h10l20 309l60 576h428l-209 -1147h-619z" />
    <glyph glyph-name="w" unicode="w" horiz-adv-x="1556" 
d="M162 0l-133 1147h389l26 -514l13 -303h14l27 303l80 514h417l70 -447l35 -370h14l21 370l28 447h365l-133 -1147h-531l-53 510l-16 223h-13l-20 -221l-64 -512h-536z" />
    <glyph glyph-name="x" unicode="x" horiz-adv-x="1069" 
d="M16 0l172 596l-135 551h414l74 -442h10l82 442h401l-127 -551l146 -596h-420l-82 449h-8l-109 -449h-418z" />
    <glyph glyph-name="y" unicode="y" horiz-adv-x="1081" 
d="M401 -246l52 246h-224l-204 1147h436l61 -594l19 -291h10l20 291l58 594h428l-242 -1393h-414z" />
    <glyph glyph-name="z" unicode="z" horiz-adv-x="892" 
d="M37 0v354l340 465h-318v328h783v-328l-348 -491h362v-328h-819z" />
    <glyph glyph-name="braceleft" unicode="{" horiz-adv-x="626" 
d="M305 -246q-92 0 -135 48.5t-43 119.5v504q0 58 -19.5 82t-74.5 24v248q55 0 74.5 19t19.5 65v416q0 67 50 110.5t116 43.5h293v-232h-111q-22 0 -30.5 -11.5t-8.5 -37.5v-305q0 -79 -27.5 -123t-89.5 -59v-15q34 -11 50.5 -19.5t34.5 -27t25 -48.5t7 -77v-448
q0 -23 8.5 -34t30.5 -11h111v-232h-281z" />
    <glyph glyph-name="bar" unicode="|" horiz-adv-x="471" 
d="M102 -246v1680h267v-1680h-267z" />
    <glyph glyph-name="braceright" unicode="}" horiz-adv-x="626" 
d="M322 -246h-281v232h111q22 0 30 11t8 34v448q0 47 7 77t25 48.5t34.5 27t50.5 19.5v15q-62 15 -89.5 59t-27.5 123v305q0 26 -8 37.5t-30 11.5h-111v232h293q66 0 116 -43.5t50 -110.5v-416q0 -46 19.5 -65t74.5 -19v-248q-55 0 -74.5 -24t-19.5 -82v-504
q0 -71 -43 -119.5t-135 -48.5z" />
    <glyph glyph-name="asciitilde" unicode="~" horiz-adv-x="925" 
d="M41 385q0 154 66.5 231.5t191.5 77.5q70 0 168 -28.5t143 -28.5q60 0 66 76h209q-14 -328 -244 -328q-67 0 -128 16.5t-110 33t-86 16.5q-31 0 -49 -18.5t-18 -47.5h-209z" />
    <glyph glyph-name="exclamdown" unicode="&#xa1;" horiz-adv-x="483" 
d="M418 705l20 -951h-397l20 951h357zM43 840v348h399v-348h-399z" />
    <glyph glyph-name="cent" unicode="&#xa2;" horiz-adv-x="999" 
d="M371 -164v144q-334 58 -334 448v285q0 391 334 446v146h284v-146q156 -26 228.5 -133.5t72.5 -312.5v-27h-378v127q0 61 -58 61q-59 0 -59 -61v-487q0 -32 13 -47t46 -15q31 0 44.5 15t13.5 47v163h385v-61q0 -208 -74.5 -315.5t-233.5 -132.5v-144h-284z" />
    <glyph glyph-name="sterling" unicode="&#xa3;" horiz-adv-x="1146" 
d="M37 0v293l135 12v279h-117v235h117v213q0 214 116.5 320t334.5 106h63q197 0 308.5 -110.5t111.5 -323.5v-31h-352v58q0 43 -14 61t-64 18q-78 0 -78 -79v-232h313v-235h-313v-269h512v-315h-1073z" />
    <glyph glyph-name="currency" unicode="&#xa4;" horiz-adv-x="909" 
d="M186 317l-135 140l96 84q-41 68 -41 151q0 76 33 146l-98 92l137 135l103 -92q88 45 174 45q83 0 163 -41l107 100l139 -141l-100 -86q43 -74 43 -158q0 -80 -35 -143l96 -86l-131 -141l-106 92q-89 -39 -176 -39q-71 0 -160 35zM322 692q0 -57 38 -93t95 -36q61 0 97 35
t36 94q0 63 -36 101t-97 38q-60 0 -96.5 -38t-36.5 -101z" />
    <glyph glyph-name="yen" unicode="&#xa5;" horiz-adv-x="1187" 
d="M131 526v176h139l-245 732h481l61 -412l31 -213h6l29 213l55 412h475l-245 -732h141v-176h-201l-29 -82h230v-176h-236v-268h-458v268h-234v176h227l-28 82h-199z" />
    <glyph glyph-name="brokenbar" unicode="&#xa6;" horiz-adv-x="430" 
d="M82 772v662h266v-662h-266zM82 0v662h266v-662h-266z" />
    <glyph glyph-name="section" unicode="&#xa7;" horiz-adv-x="925" 
d="M418 -246q-80 0 -141.5 17.5t-96.5 44t-57 62.5t-29.5 68.5t-7.5 67.5v119h322v-86q0 -84 69 -84q70 0 70 84v68q0 41 -33 67.5t-98 46.5l-164 50q-113 35 -162 103t-49 202v24q0 169 109 250q-109 81 -109 246v57q0 55 21.5 106t63 93.5t111 68t156.5 25.5h113
q80 0 141.5 -20t97 -50.5t58 -71t30 -75.5t7.5 -70v-92h-322v86q0 84 -72 84q-36 0 -52.5 -26.5t-16.5 -57.5v-39q0 -59 29 -88t98 -51l153 -47q113 -35 170.5 -104t57.5 -199v-37q0 -85 -26 -142.5t-81 -101.5q62 -53 83.5 -103t21.5 -130v-72q0 -55 -21.5 -106.5
t-63.5 -93.5t-111.5 -67.5t-156.5 -25.5h-112zM358 616q0 -28 6 -49t12 -32.5t23.5 -23t26.5 -15.5t35 -15l63 -24q18 11 29.5 46t11.5 81q0 58 -20 86t-62 43l-86 32q-39 -50 -39 -129z" />
    <glyph glyph-name="dieresis" unicode="&#xa8;" horiz-adv-x="884" 
d="M90 1255v242h311v-242h-311zM487 1255v242h308v-242h-308z" />
    <glyph glyph-name="copyright" unicode="&#xa9;" horiz-adv-x="1265" 
d="M635 -55q-282 0 -434 198t-152 559q0 359 153 556.5t433 197.5t431 -196.5t151 -557.5q0 -360 -151.5 -558.5t-430.5 -198.5zM141 702q0 -330 127 -498.5t367 -168.5q239 0 364 169t125 498t-123 496.5t-366 167.5q-244 0 -369 -167t-125 -497zM272 537v385
q0 149 87.5 223t252.5 74h50q149 0 236 -78t87 -226v-98h-287v117q0 29 -11 42t-40 13t-40 -13t-11 -42v-467q0 -29 11.5 -42t41.5 -13q51 0 51 55v137h297v-90q0 -172 -80.5 -252t-244.5 -80h-43q-175 0 -266 85t-91 270z" />
    <glyph glyph-name="ordfeminine" unicode="&#xaa;" horiz-adv-x="626" 
d="M219 770q-51 1 -88.5 17t-57 43t-28 56.5t-8.5 63.5v49q0 80 40 122.5t118 56.5l127 24q9 1 13.5 2.5t8.5 8t4 18.5v41q0 17 -9 27t-24 10q-32 0 -32 -35v-43h-215v43q0 182 223 182h76q61 0 106.5 -15.5t70 -41.5t35.5 -54.5t11 -60.5v-504h-213v70h-6q-36 -80 -148 -80
h-4zM276 979q0 -37 35 -37q18 0 27.5 9.5t9.5 23.5v86l-45 -10q-27 -5 -27 -43v-29z" />
    <glyph glyph-name="guillemotleft" unicode="&#xab;" horiz-adv-x="905" 
d="M557 143l-115 416v29l121 416h305l-127 -433l117 -428h-301zM37 559v29l121 416h305l-127 -433l117 -428h-301z" />
    <glyph glyph-name="logicalnot" unicode="&#xac;" horiz-adv-x="913" 
d="M598 162v221h-557v266h831v-487h-274z" />
    <glyph glyph-name="registered" unicode="&#xae;" horiz-adv-x="720" 
d="M365 629q-156 0 -240 108t-84 307q0 196 85 304t239 108q151 0 233 -107.5t82 -304.5q0 -198 -82.5 -306.5t-232.5 -108.5zM100 1044q0 -173 69 -262.5t196 -89.5q125 0 189 89.5t64 262.5q0 349 -253 349q-130 0 -197.5 -88.5t-67.5 -260.5zM190 815v494h224
q43 0 71.5 -11t41 -31t16.5 -38t4 -41v-49q0 -52 -19 -73t-59 -28v-4q40 -8 59 -28t19 -58v-133h-154v135q0 29 -28 29h-23v-164h-152zM342 1092h29q24 0 24 32v39q0 31 -26 31h-27v-102z" />
    <glyph glyph-name="macron" unicode="&#xaf;" horiz-adv-x="745" 
d="M90 1255v213h565v-213h-565z" />
    <glyph glyph-name="degree" unicode="&#xb0;" horiz-adv-x="589" 
d="M293 954q-104 0 -178 71.5t-74 174.5t74 174.5t178 71.5q107 0 181.5 -71.5t74.5 -174.5t-74.5 -174.5t-181.5 -71.5zM195 1200q0 -42 28 -70t70 -28t72 28.5t30 69.5q0 40 -30.5 69t-71.5 29q-42 0 -70 -29t-28 -69z" />
    <glyph glyph-name="plusminus" unicode="&#xb1;" horiz-adv-x="954" 
d="M41 0v266h831v-266h-831zM41 653v267h303v303h266v-303h303v-267h-303v-299h-266v299h-303z" />
    <glyph glyph-name="uni00B2" unicode="&#xb2;" horiz-adv-x="655" 
d="M37 975q0 83 28 131.5t107 85.5l150 70q51 25 51 67v27q0 19 -11.5 29t-27.5 10q-23 0 -31 -11t-8 -32v-58h-244v37q0 109 58.5 165t203.5 56h54q124 0 187.5 -43t63.5 -147v-49q0 -72 -31.5 -114t-123.5 -87l-133 -65q-21 -10 -28 -20t-7 -28v-10h315v-178h-573v164z
" />
    <glyph glyph-name="uni00B3" unicode="&#xb3;" horiz-adv-x="667" 
d="M301 799q-264 0 -264 184v74h252v-62q0 -37 41 -37q22 0 30.5 8.5t8.5 28.5v72q0 53 -62 53h-117v152h117q24 0 35 2t19 12.5t8 32.5v47q0 35 -39 35t-39 -35v-45h-244v33q0 198 250 198h61q73 0 126.5 -16t81 -42.5t40 -55t12.5 -58.5v-39q0 -57 -36.5 -96t-102.5 -45
v-2q69 -6 110.5 -42.5t41.5 -104.5v-62q0 -97 -74.5 -143.5t-185.5 -46.5h-70z" />
    <glyph glyph-name="acute" unicode="&#xb4;" horiz-adv-x="669" 
d="M90 1255l105 242h385l-183 -242h-307z" />
    <glyph glyph-name="uni00B5" unicode="&#xb5;" horiz-adv-x="1105" 
d="M41 -246v1393h416v-782q0 -40 13.5 -56t43.5 -16t43.5 16t13.5 56v782h418v-805q0 -39 39 -39h37v-303h-201q-83 0 -127 28.5t-57 96.5h-8q-11 -57 -51 -96t-93 -39q-104 0 -143 100h-25l25 -336h-344z" />
    <glyph glyph-name="paragraph" unicode="&#xb6;" horiz-adv-x="1183" 
d="M336 -246v738h-72q-223 0 -223 249v459q0 45 14 84.5t43.5 74.5t83 55t125.5 20h836v-269h-119v-1411h-274v1411h-156v-1411h-258z" />
    <glyph glyph-name="periodcentered" unicode="&#xb7;" horiz-adv-x="481" 
d="M41 551v348h399v-348h-399z" />
    <glyph glyph-name="cedilla" unicode="&#xb8;" horiz-adv-x="598" 
d="M315 -281q-206 0 -209 127h142q0 -21 18.5 -33t48.5 -12q60 0 60 35q0 45 -119 45l37 139h88l-23 -77q166 -9 166 -105q0 -55 -54.5 -87t-154.5 -32z" />
    <glyph glyph-name="uni00B9" unicode="&#xb9;" horiz-adv-x="495" 
d="M131 811v479h-90v146q117 0 123 104h233v-729h-266z" />
    <glyph glyph-name="ordmasculine" unicode="&#xba;" horiz-adv-x="626" 
d="M299 768q-262 0 -262 262v164q0 136 66.5 198t195.5 62h31q128 0 194 -62t66 -198v-164q0 -136 -66.5 -199t-195.5 -63h-29zM279 971q0 -35 36 -35q33 0 33 35v280q0 35 -33 35q-36 0 -36 -35v-280z" />
    <glyph glyph-name="guillemotright" unicode="&#xbb;" horiz-adv-x="905" 
d="M348 143h-301l117 428l-127 433h305l121 -416v-29zM442 1004h306l120 -416v-29l-114 -416h-301l116 428z" />
    <glyph glyph-name="onehalf" unicode="&#xbd;" horiz-adv-x="1384" 
d="M131 705v479h-90v145q117 0 123 105h233v-729h-266zM250 0l547 1434h178l-549 -1434h-176zM766 0v164q0 83 28 131.5t107 85.5l150 70q51 25 51 67v27q0 19 -11.5 29t-27.5 10q-23 0 -31 -11t-8 -32v-58h-244v37q0 109 58.5 165t203.5 56h54q124 0 188 -43t64 -147v-49
q0 -72 -32 -114t-124 -87l-133 -65q-21 -10 -28 -20t-7 -28v-10h315v-178h-573z" />
    <glyph glyph-name="threequarters" unicode="&#xbe;" horiz-adv-x="1585" 
d="M301 692q-264 0 -264 185v73h252v-61q0 -37 41 -37q22 0 30.5 8.5t8.5 28.5v72q0 53 -62 53h-117v151h117q24 0 35 2t19 12.5t8 32.5v48q0 34 -39 34t-39 -34v-46h-244v33q0 199 250 199h61q73 0 126.5 -16t81 -42.5t40 -55t12.5 -58.5v-39q0 -57 -36.5 -96t-102.5 -45
v-2q69 -6 110.5 -43t41.5 -105v-61q0 -97 -74.5 -144t-185.5 -47h-70zM422 0l547 1434h178l-549 -1434h-176zM938 143v164l166 422h366v-422h78v-164h-78v-143h-247v143h-285zM1122 307h101v285h-9q-4 -14 -11 -39t-13 -45.5t-12 -38.5z" />
    <glyph glyph-name="questiondown" unicode="&#xbf;" horiz-adv-x="978" 
d="M698 588q0 -68 -13.5 -112t-33 -66.5t-61.5 -57.5l-111 -92q-53 -44 -53 -108v-64q0 -72 70 -72q77 0 77 72v113h369v-142q0 -58 -17 -110t-56 -100.5t-115 -77.5t-181 -29h-131q-405 0 -405 338v72q0 133 115 245l84 80q5 5 28.5 26.5t31.5 31.5t18 35.5t10 56.5v75h374
v-114zM315 840v348h400v-348h-400z" />
    <glyph glyph-name="Agrave" unicode="&#xc0;" horiz-adv-x="1171" 
d="M20 0l216 1434h698l217 -1434h-481l-29 328h-141l-25 -328h-455zM260 1755h379l84 -233h-299zM520 604h96l-30 342l-19 221h-8l-14 -221z" />
    <glyph glyph-name="Aacute" unicode="&#xc1;" horiz-adv-x="1171" 
d="M20 0l216 1434h698l217 -1434h-481l-29 328h-141l-25 -328h-455zM432 1522l84 233h379l-164 -233h-299zM520 604h96l-30 342l-19 221h-8l-14 -221z" />
    <glyph glyph-name="Acircumflex" unicode="&#xc2;" horiz-adv-x="1171" 
d="M20 0l216 1434h698l217 -1434h-481l-29 328h-141l-25 -328h-455zM231 1522l160 233h379l154 -233h-293l-60 116l-63 -116h-277zM520 604h96l-30 342l-19 221h-8l-14 -221z" />
    <glyph glyph-name="Atilde" unicode="&#xc3;" horiz-adv-x="1171" 
d="M20 0l216 1434h698l217 -1434h-481l-29 328h-141l-25 -328h-455zM233 1522q0 138 56 203t151 65q55 0 141.5 -29.5t118.5 -29.5q18 0 22.5 14.5t4.5 60.5h191q1 -76 -15.5 -135t-60.5 -99t-111 -40q-70 0 -155 32.5t-111 32.5q-25 0 -34 -17.5t-7 -57.5h-191zM520 604h96
l-30 342l-19 221h-8l-14 -221z" />
    <glyph glyph-name="Adieresis" unicode="&#xc4;" horiz-adv-x="1171" 
d="M20 0l216 1434h698l217 -1434h-481l-29 328h-141l-25 -328h-455zM195 1522v233h335v-233h-335zM520 604h96l-30 342l-19 221h-8l-14 -221zM625 1522v233h336v-233h-336z" />
    <glyph glyph-name="Aring" unicode="&#xc5;" horiz-adv-x="1171" 
d="M20 0l216 1434h698l217 -1434h-481l-29 328h-141l-25 -328h-455zM397 1686q0 74 53 126t128 52q74 0 127 -52.5t53 -125.5q0 -75 -53 -129t-127 -54q-75 0 -128 54t-53 129zM502 1686q0 -32 22.5 -55t53.5 -23q32 0 53.5 22.5t21.5 55.5q0 31 -21.5 53t-53.5 22
q-31 0 -53.5 -22t-22.5 -53zM520 604h96l-30 342l-19 221h-8l-14 -221z" />
    <glyph glyph-name="AE" unicode="&#xc6;" horiz-adv-x="1564" 
d="M37 0l287 1434h1169v-328h-383v-188h369v-349h-369v-229h414v-340h-873v244h-147l-37 -244h-430zM547 522h104v645h-6z" />
    <glyph glyph-name="Ccedilla" unicode="&#xc7;" horiz-adv-x="1110" 
d="M575 -281q-205 0 -208 127h141q0 -21 18.5 -33t48.5 -12q60 0 60 35q0 45 -119 45l25 94q-246 2 -375 123t-129 383v551q0 214 125.5 320t361.5 106h70q212 0 336.5 -111t124.5 -323v-139h-410v166q0 41 -15.5 60t-56.5 19t-57 -19.5t-16 -59.5v-668q0 -40 17 -60t58 -20
q74 0 74 80v197h424v-129q0 -242 -110 -356.5t-334 -119.5l-11 -32q166 -9 166 -105q0 -55 -54.5 -87t-154.5 -32z" />
    <glyph glyph-name="Egrave" unicode="&#xc8;" horiz-adv-x="954" 
d="M41 0v1434h842v-328h-383v-188h368v-349h-368v-229h413v-340h-872zM141 1755h379l84 -233h-299z" />
    <glyph glyph-name="Eacute" unicode="&#xc9;" horiz-adv-x="954" 
d="M41 0v1434h842v-328h-383v-188h368v-349h-368v-229h413v-340h-872zM313 1522l84 233h379l-164 -233h-299z" />
    <glyph glyph-name="Ecircumflex" unicode="&#xca;" horiz-adv-x="954" 
d="M41 0v1434h842v-328h-383v-188h368v-349h-368v-229h413v-340h-872zM113 1522l159 233h379l154 -233h-293l-59 116l-64 -116h-276z" />
    <glyph glyph-name="Edieresis" unicode="&#xcb;" horiz-adv-x="954" 
d="M41 0v1434h842v-328h-383v-188h368v-349h-368v-229h413v-340h-872zM76 1522v233h336v-233h-336zM506 1522v233h336v-233h-336z" />
    <glyph glyph-name="Igrave" unicode="&#xcc;" horiz-adv-x="540" 
d="M41 0v1434h459v-1434h-459zM-47 1755h379l84 -233h-299z" />
    <glyph glyph-name="Iacute" unicode="&#xcd;" horiz-adv-x="540" 
d="M41 0v1434h459v-1434h-459zM125 1522l84 233h379l-164 -233h-299z" />
    <glyph glyph-name="Icircumflex" unicode="&#xce;" horiz-adv-x="540" 
d="M41 0v1434h459v-1434h-459zM-76 1522l160 233h379l153 -233h-292l-60 116l-63 -116h-277z" />
    <glyph glyph-name="Idieresis" unicode="&#xcf;" horiz-adv-x="540" 
d="M41 0v1434h459v-1434h-459zM-113 1522v233h336v-233h-336zM317 1522v233h336v-233h-336z" />
    <glyph glyph-name="Eth" unicode="&#xd0;" horiz-adv-x="1191" 
d="M25 580v294h43v560h655q432 0 432 -447v-510q0 -112 -25 -196.5t-81 -149t-153 -98t-234 -33.5h-594v580h-43zM526 332h92q35 0 55.5 30t20.5 72l-2 539q0 125 -94 125h-72v-224h103v-294h-103v-248z" />
    <glyph glyph-name="Ntilde" unicode="&#xd1;" horiz-adv-x="1179" 
d="M41 0v1434h483l195 -650h14l-4 299v351h410v-1434h-471l-209 741h-13l5 -311v-430h-410zM276 1522q0 138 56 203t151 65q55 0 141.5 -29.5t118.5 -29.5q18 0 22.5 14.5t4.5 60.5h191q1 -76 -15.5 -135t-60.5 -99t-111 -40q-70 0 -155 32.5t-111 32.5q-25 0 -34 -17.5
t-7 -57.5h-191z" />
    <glyph glyph-name="Ograve" unicode="&#xd2;" horiz-adv-x="1155" 
d="M547 -25q-249 0 -379.5 123t-130.5 387v463q0 264 130.5 387t379.5 123h61q250 0 380 -122.5t130 -387.5v-463q0 -265 -130 -387.5t-380 -122.5h-61zM260 1755h379l84 -233h-299zM500 387q0 -80 78 -80q41 0 59 20t18 60v660q0 40 -18 59.5t-59 19.5q-42 0 -60 -19.5
t-18 -59.5v-660z" />
    <glyph glyph-name="Oacute" unicode="&#xd3;" horiz-adv-x="1155" 
d="M547 -25q-249 0 -379.5 123t-130.5 387v463q0 264 130.5 387t379.5 123h61q250 0 380 -122.5t130 -387.5v-463q0 -265 -130 -387.5t-380 -122.5h-61zM432 1522l84 233h379l-164 -233h-299zM500 387q0 -80 78 -80q41 0 59 20t18 60v660q0 40 -18 59.5t-59 19.5
q-42 0 -60 -19.5t-18 -59.5v-660z" />
    <glyph glyph-name="Ocircumflex" unicode="&#xd4;" horiz-adv-x="1155" 
d="M547 -25q-249 0 -379.5 123t-130.5 387v463q0 264 130.5 387t379.5 123h61q250 0 380 -122.5t130 -387.5v-463q0 -265 -130 -387.5t-380 -122.5h-61zM231 1522l160 233h379l154 -233h-293l-60 116l-63 -116h-277zM500 387q0 -80 78 -80q41 0 59 20t18 60v660
q0 40 -18 59.5t-59 19.5q-42 0 -60 -19.5t-18 -59.5v-660z" />
    <glyph glyph-name="Otilde" unicode="&#xd5;" horiz-adv-x="1155" 
d="M547 -25q-249 0 -379.5 123t-130.5 387v463q0 264 130.5 387t379.5 123h61q250 0 380 -122.5t130 -387.5v-463q0 -265 -130 -387.5t-380 -122.5h-61zM233 1522q0 138 56 203t151 65q55 0 141.5 -29.5t118.5 -29.5q18 0 22.5 14.5t4.5 60.5h191q1 -76 -15.5 -135
t-60.5 -99t-111 -40q-70 0 -155 32.5t-111 32.5q-25 0 -34 -17.5t-7 -57.5h-191zM500 387q0 -80 78 -80q41 0 59 20t18 60v660q0 40 -18 59.5t-59 19.5q-42 0 -60 -19.5t-18 -59.5v-660z" />
    <glyph glyph-name="Odieresis" unicode="&#xd6;" horiz-adv-x="1155" 
d="M547 -25q-249 0 -379.5 123t-130.5 387v463q0 264 130.5 387t379.5 123h61q250 0 380 -122.5t130 -387.5v-463q0 -265 -130 -387.5t-380 -122.5h-61zM195 1522v233h335v-233h-335zM500 387q0 -80 78 -80q41 0 59 20t18 60v660q0 40 -18 59.5t-59 19.5q-42 0 -60 -19.5
t-18 -59.5v-660zM625 1522v233h336v-233h-336z" />
    <glyph glyph-name="multiply" unicode="&#xd7;" horiz-adv-x="954" 
d="M223 74l-188 188l254 254l-256 258l186 189l256 -258l258 258l189 -189l-258 -258l258 -258l-189 -184l-258 254z" />
    <glyph glyph-name="Oslash" unicode="&#xd8;" horiz-adv-x="1155" 
d="M92 -66l82 158q-137 125 -137 393v463q0 264 130.5 387t379.5 123h61q152 0 254 -41l41 80h160l-80 -156q135 -126 135 -393v-463q0 -265 -130 -387.5t-380 -122.5h-61q-150 0 -252 41l-43 -82h-160zM500 387q0 -80 78 -80q41 0 59 20t18 60v326l-155 -301v-25zM500 719
l155 301v27q0 40 -18 59.5t-59 19.5q-42 0 -60 -19.5t-18 -59.5v-328z" />
    <glyph glyph-name="Ugrave" unicode="&#xd9;" horiz-adv-x="1138" 
d="M543 -25q-126 0 -216 22t-156 73t-98 139t-32 217v1008h459v-1037q0 -82 78 -82q33 0 51 21.5t18 60.5v1037h451v-1008q0 -128 -32.5 -217t-98.5 -139.5t-153.5 -72.5t-209.5 -22h-61zM260 1755h379l84 -233h-299z" />
    <glyph glyph-name="Uacute" unicode="&#xda;" horiz-adv-x="1138" 
d="M543 -25q-126 0 -216 22t-156 73t-98 139t-32 217v1008h459v-1037q0 -82 78 -82q33 0 51 21.5t18 60.5v1037h451v-1008q0 -128 -32.5 -217t-98.5 -139.5t-153.5 -72.5t-209.5 -22h-61zM432 1522l84 233h379l-164 -233h-299z" />
    <glyph glyph-name="Ucircumflex" unicode="&#xdb;" horiz-adv-x="1138" 
d="M543 -25q-126 0 -216 22t-156 73t-98 139t-32 217v1008h459v-1037q0 -82 78 -82q33 0 51 21.5t18 60.5v1037h451v-1008q0 -128 -32.5 -217t-98.5 -139.5t-153.5 -72.5t-209.5 -22h-61zM231 1522l160 233h379l154 -233h-293l-60 116l-63 -116h-277z" />
    <glyph glyph-name="Udieresis" unicode="&#xdc;" horiz-adv-x="1138" 
d="M543 -25q-126 0 -216 22t-156 73t-98 139t-32 217v1008h459v-1037q0 -82 78 -82q33 0 51 21.5t18 60.5v1037h451v-1008q0 -128 -32.5 -217t-98.5 -139.5t-153.5 -72.5t-209.5 -22h-61zM195 1522v233h335v-233h-335zM625 1522v233h336v-233h-336z" />
    <glyph glyph-name="Yacute" unicode="&#xdd;" horiz-adv-x="1171" 
d="M356 0v426l-340 1008h482l61 -412l31 -213h6l29 213l55 412h475l-340 -1008v-426h-459zM440 1522l84 233h379l-164 -233h-299z" />
    <glyph glyph-name="Thorn" unicode="&#xde;" horiz-adv-x="1122" 
d="M41 0v1434h459v-205h176q122 0 202 -27.5t125.5 -88t63.5 -143.5t18 -208v-80q0 -85 -6.5 -147t-29 -126t-61.5 -104t-107 -65t-162 -25h-219v-215h-459zM500 545h65q82 0 82 76v200q0 76 -82 76h-65v-352z" />
    <glyph glyph-name="germandbls" unicode="&#xdf;" horiz-adv-x="1064" 
d="M41 1040q0 83 15.5 148t44 108t64 72t82.5 44.5t91.5 21.5t97.5 6h121q205 0 301 -78t96 -256v-41q0 -78 -45.5 -139t-132.5 -74v-10q131 -31 191.5 -103.5t60.5 -206.5v-188q0 -344 -360 -344h-129v289h47q17 0 21.5 9t4.5 28v303q0 26 -10 38.5t-39 12.5h-33v219h15
q23 0 31 11t8 38v160q0 66 -66 66q-30 0 -44.5 -15t-14.5 -51v-1108h-418v1040z" />
    <glyph glyph-name="agrave" unicode="&#xe0;" horiz-adv-x="1028" 
d="M358 -16q-92 0 -157.5 27t-99.5 74t-49 98t-15 110v92q0 138 67.5 209.5t204.5 97.5l219 41q15 2 23.5 5.5t15 15t6.5 30.5v70q0 30 -14.5 47t-40.5 17q-59 0 -59 -62v-72h-371v74q0 313 387 313h131q105 0 182.5 -27t119 -72t60.5 -94t19 -104v-874h-366v121h-9
q-59 -137 -239 -137h-15zM195 1497h385l104 -242h-307zM449 352q0 -63 61 -63t61 57v148l-75 -21q-27 -8 -37 -23.5t-10 -50.5v-47z" />
    <glyph glyph-name="aacute" unicode="&#xe1;" horiz-adv-x="1028" 
d="M358 -16q-92 0 -157.5 27t-99.5 74t-49 98t-15 110v92q0 138 67.5 209.5t204.5 97.5l219 41q15 2 23.5 5.5t15 15t6.5 30.5v70q0 30 -14.5 47t-40.5 17q-59 0 -59 -62v-72h-371v74q0 313 387 313h131q105 0 182.5 -27t119 -72t60.5 -94t19 -104v-874h-366v121h-9
q-59 -137 -239 -137h-15zM373 1255l104 242h385l-182 -242h-307zM449 352q0 -63 61 -63t61 57v148l-75 -21q-27 -8 -37 -23.5t-10 -50.5v-47z" />
    <glyph glyph-name="acircumflex" unicode="&#xe2;" horiz-adv-x="1028" 
d="M358 -16q-92 0 -157.5 27t-99.5 74t-49 98t-15 110v92q0 138 67.5 209.5t204.5 97.5l219 41q15 2 23.5 5.5t15 15t6.5 30.5v70q0 30 -14.5 47t-40.5 17q-59 0 -59 -62v-72h-371v74q0 313 387 313h131q105 0 182.5 -27t119 -72t60.5 -94t19 -104v-874h-366v121h-9
q-59 -137 -239 -137h-15zM168 1255l172 242h379l170 -242h-305l-60 121l-69 -121h-287zM449 352q0 -63 61 -63t61 57v148l-75 -21q-27 -8 -37 -23.5t-10 -50.5v-47z" />
    <glyph glyph-name="atilde" unicode="&#xe3;" horiz-adv-x="1028" 
d="M358 -16q-92 0 -157.5 27t-99.5 74t-49 98t-15 110v92q0 138 67.5 209.5t204.5 97.5l219 41q15 2 23.5 5.5t15 15t6.5 30.5v70q0 30 -14.5 47t-40.5 17q-59 0 -59 -62v-72h-371v74q0 313 387 313h131q105 0 182.5 -27t119 -72t60.5 -94t19 -104v-874h-366v121h-9
q-59 -137 -239 -137h-15zM184 1247q0 138 56 203.5t151 65.5q55 0 141.5 -30t118.5 -30q18 0 22.5 15t4.5 61h190q1 -76 -15.5 -135.5t-60 -99.5t-110.5 -40q-70 0 -155 33t-111 33q-25 0 -34 -18t-7 -58h-191zM449 352q0 -63 61 -63t61 57v148l-75 -21q-27 -8 -37 -23.5
t-10 -50.5v-47z" />
    <glyph glyph-name="adieresis" unicode="&#xe4;" horiz-adv-x="1028" 
d="M358 -16q-92 0 -157.5 27t-99.5 74t-49 98t-15 110v92q0 138 67.5 209.5t204.5 97.5l219 41q15 2 23.5 5.5t15 15t6.5 30.5v70q0 30 -14.5 47t-40.5 17q-59 0 -59 -62v-72h-371v74q0 313 387 313h131q105 0 182.5 -27t119 -72t60.5 -94t19 -104v-874h-366v121h-9
q-59 -137 -239 -137h-15zM174 1255v242h311v-242h-311zM449 352q0 -63 61 -63t61 57v148l-75 -21q-27 -8 -37 -23.5t-10 -50.5v-47zM571 1255v242h308v-242h-308z" />
    <glyph glyph-name="aring" unicode="&#xe5;" horiz-adv-x="1028" 
d="M358 -16q-92 0 -157.5 27t-99.5 74t-49 98t-15 110v92q0 138 67.5 209.5t204.5 97.5l219 41q15 2 23.5 5.5t15 15t6.5 30.5v70q0 30 -14.5 47t-40.5 17q-59 0 -59 -62v-72h-371v74q0 313 387 313h131q105 0 182.5 -27t119 -72t60.5 -94t19 -104v-874h-366v121h-9
q-59 -137 -239 -137h-15zM348 1427q0 74 52.5 126.5t127.5 52.5q74 0 127.5 -53t53.5 -126q0 -75 -53.5 -128.5t-127.5 -53.5q-75 0 -127.5 53.5t-52.5 128.5zM449 352q0 -63 61 -63t61 57v148l-75 -21q-27 -8 -37 -23.5t-10 -50.5v-47zM453 1427q0 -32 22 -54.5t53 -22.5
q32 0 54 22.5t22 54.5q0 31 -22 53.5t-54 22.5q-31 0 -53 -22.5t-22 -53.5z" />
    <glyph glyph-name="ae" unicode="&#xe6;" horiz-adv-x="1548" 
d="M346 -20q-71 0 -126.5 19t-89 49.5t-55.5 73t-30 84t-8 87.5v92q0 138 67.5 209.5t204.5 97.5l219 41q15 2 23.5 5.5t15 15t6.5 30.5v74q0 60 -55 60q-59 0 -59 -60v-74h-371v74q0 309 387 309h111q133 0 207 -32q85 32 213 32h73q221 0 324.5 -107t103.5 -347v-232h-512
v-155q0 -32 13.5 -47t46.5 -15q35 0 49 15t14 47v82h393v-19q0 -216 -106 -312.5t-328 -96.5h-51q-244 0 -346 161q-33 -79 -120 -120t-202 -41h-12zM449 352q0 -63 61 -63t61 57v148l-75 -21q-27 -8 -37 -23.5t-10 -50.5v-47zM995 725h119v109q0 61 -59 61q-60 0 -60 -61
v-109z" />
    <glyph glyph-name="ccedilla" unicode="&#xe7;" horiz-adv-x="999" 
d="M492 -29q-222 0 -338.5 110.5t-116.5 346.5v285q0 236 116 345t339 109h43q220 0 320.5 -106.5t100.5 -347.5v-27h-378v127q0 61 -58 61q-59 0 -59 -61v-487q0 -32 13 -47t46 -15q31 0 44.5 15t13.5 47v163h385v-61q0 -231 -92 -339.5t-291 -117.5l-9 -28
q166 -9 166 -105q0 -55 -54.5 -87t-154.5 -32q-206 0 -209 127h142q0 -21 18.5 -33t48.5 -12q60 0 60 35q0 45 -119 45l25 90h-2z" />
    <glyph glyph-name="egrave" unicode="&#xe8;" horiz-adv-x="1015" 
d="M492 -25q-223 0 -339 108.5t-116 344.5v285q0 236 116 345t339 109h53q221 0 325.5 -107t104.5 -347v-232h-516v-155q0 -32 14 -47t47 -15q35 0 46.5 14.5t11.5 47.5v82h401v-19q0 -217 -107 -315.5t-329 -98.5h-51zM184 1497h385l105 -242h-307zM459 725h119v88
q0 61 -58 61q-59 0 -59 -61z" />
    <glyph glyph-name="eacute" unicode="&#xe9;" horiz-adv-x="1015" 
d="M492 -25q-223 0 -339 108.5t-116 344.5v285q0 236 116 345t339 109h53q221 0 325.5 -107t104.5 -347v-232h-516v-155q0 -32 14 -47t47 -15q35 0 46.5 14.5t11.5 47.5v82h401v-19q0 -217 -107 -315.5t-329 -98.5h-51zM362 1255l105 242h385l-182 -242h-308zM459 725h119
v88q0 61 -58 61q-59 0 -59 -61z" />
    <glyph glyph-name="ecircumflex" unicode="&#xea;" horiz-adv-x="1015" 
d="M492 -25q-223 0 -339 108.5t-116 344.5v285q0 236 116 345t339 109h53q221 0 325.5 -107t104.5 -347v-232h-516v-155q0 -32 14 -47t47 -15q35 0 46.5 14.5t11.5 47.5v82h401v-19q0 -217 -107 -315.5t-329 -98.5h-51zM158 1255l172 242h379l170 -242h-306l-59 121
l-70 -121h-286zM459 725h119v88q0 61 -58 61q-59 0 -59 -61z" />
    <glyph glyph-name="edieresis" unicode="&#xeb;" horiz-adv-x="1015" 
d="M492 -25q-223 0 -339 108.5t-116 344.5v285q0 236 116 345t339 109h53q221 0 325.5 -107t104.5 -347v-232h-516v-155q0 -32 14 -47t47 -15q35 0 46.5 14.5t11.5 47.5v82h401v-19q0 -217 -107 -315.5t-329 -98.5h-51zM164 1255v242h311v-242h-311zM459 725h119v88
q0 61 -58 61q-59 0 -59 -61zM561 1255v242h307v-242h-307z" />
    <glyph glyph-name="igrave" unicode="&#xec;" horiz-adv-x="499" 
d="M41 0v1147h418v-1147h-418zM-84 1497h385l105 -242h-308z" />
    <glyph glyph-name="iacute" unicode="&#xed;" horiz-adv-x="499" 
d="M41 0v1147h418v-1147h-418zM94 1255l105 242h385l-183 -242h-307z" />
    <glyph glyph-name="icircumflex" unicode="&#xee;" horiz-adv-x="499" 
d="M41 0v1147h418v-1147h-418zM-111 1255l172 242h379l170 -242h-305l-59 121l-70 -121h-287z" />
    <glyph glyph-name="idieresis" unicode="&#xef;" horiz-adv-x="499" 
d="M41 0v1147h418v-1147h-418zM-104 1255v242h311v-242h-311zM293 1255v242h307v-242h-307z" />
    <glyph glyph-name="eth" unicode="&#xf0;" horiz-adv-x="1036" 
d="M492 -29q-222 0 -338.5 110.5t-116.5 346.5v285q0 213 94.5 322t276.5 128l-33 43l-187 -26v129l101 14l-80 111h440l33 -52l168 25v-129l-90 -14l190 -291h-4q53 -103 53 -260v-285q0 -237 -115.5 -347t-340.5 -110h-51zM459 326q0 -32 14 -47t47 -15q31 0 44.5 15
t13.5 47v487q0 61 -58 61q-61 0 -61 -61v-487z" />
    <glyph glyph-name="ntilde" unicode="&#xf1;" horiz-adv-x="1032" 
d="M41 0v1147h401v-115h9q32 55 96 94t153 39h15q127 0 201.5 -74t74.5 -229v-862h-418v772q0 28 -15 45t-42 17t-42 -17t-15 -45v-772h-418zM170 1247q0 138 56 203.5t151 65.5q55 0 141.5 -30t118.5 -30q18 0 22.5 15t4.5 61h190q1 -76 -15.5 -135.5t-60 -99.5t-110.5 -40
q-70 0 -155.5 33t-111.5 33q-25 0 -34 -18t-7 -58h-190z" />
    <glyph glyph-name="ograve" unicode="&#xf2;" horiz-adv-x="1036" 
d="M492 -29q-222 0 -338.5 110.5t-116.5 346.5v285q0 236 116 345t339 109h53q225 0 339.5 -108.5t114.5 -345.5v-285q0 -237 -115.5 -347t-340.5 -110h-51zM186 1497h385l105 -242h-307zM459 326q0 -32 14 -47t47 -15q31 0 44.5 15t13.5 47v487q0 61 -58 61q-61 0 -61 -61
v-487z" />
    <glyph glyph-name="oacute" unicode="&#xf3;" horiz-adv-x="1036" 
d="M492 -29q-222 0 -338.5 110.5t-116.5 346.5v285q0 236 116 345t339 109h53q225 0 339.5 -108.5t114.5 -345.5v-285q0 -237 -115.5 -347t-340.5 -110h-51zM365 1255l104 242h385l-182 -242h-307zM459 326q0 -32 14 -47t47 -15q31 0 44.5 15t13.5 47v487q0 61 -58 61
q-61 0 -61 -61v-487z" />
    <glyph glyph-name="ocircumflex" unicode="&#xf4;" horiz-adv-x="1036" 
d="M492 -29q-222 0 -338.5 110.5t-116.5 346.5v285q0 236 116 345t339 109h53q225 0 339.5 -108.5t114.5 -345.5v-285q0 -237 -115.5 -347t-340.5 -110h-51zM160 1255l172 242h379l170 -242h-306l-59 121l-70 -121h-286zM459 326q0 -32 14 -47t47 -15q31 0 44.5 15t13.5 47
v487q0 61 -58 61q-61 0 -61 -61v-487z" />
    <glyph glyph-name="otilde" unicode="&#xf5;" horiz-adv-x="1036" 
d="M492 -29q-222 0 -338.5 110.5t-116.5 346.5v285q0 236 116 345t339 109h53q225 0 339.5 -108.5t114.5 -345.5v-285q0 -237 -115.5 -347t-340.5 -110h-51zM176 1247q0 138 56 203.5t151 65.5q55 0 141.5 -30t118.5 -30q18 0 22.5 15t4.5 61h190q1 -76 -15.5 -135.5
t-60 -99.5t-110.5 -40q-70 0 -155 33t-111 33q-25 0 -34 -18t-7 -58h-191zM459 326q0 -32 14 -47t47 -15q31 0 44.5 15t13.5 47v487q0 61 -58 61q-61 0 -61 -61v-487z" />
    <glyph glyph-name="odieresis" unicode="&#xf6;" horiz-adv-x="1036" 
d="M492 -29q-222 0 -338.5 110.5t-116.5 346.5v285q0 236 116 345t339 109h53q225 0 339.5 -108.5t114.5 -345.5v-285q0 -237 -115.5 -347t-340.5 -110h-51zM166 1255v242h311v-242h-311zM459 326q0 -32 14 -47t47 -15q31 0 44.5 15t13.5 47v487q0 61 -58 61q-61 0 -61 -61
v-487zM563 1255v242h307v-242h-307z" />
    <glyph glyph-name="divide" unicode="&#xf7;" horiz-adv-x="913" 
d="M317 731v230h279v-230h-279zM41 383v266h831v-266h-831zM317 72v229h279v-229h-279z" />
    <glyph glyph-name="oslash" unicode="&#xf8;" horiz-adv-x="1036" 
d="M57 -51l88 143q-108 117 -108 340v285q0 236 116 345t339 109h53q144 0 237 -41l39 62h158l-86 -139q106 -112 106 -336v-285q0 -237 -115.5 -347t-340.5 -110h-51q-143 0 -236 41l-41 -67h-158zM459 330q0 -32 14 -47t47 -15q31 0 44.5 15t13.5 47v209l-119 -193v-16z
M459 602l119 193v22q0 62 -58 62q-61 0 -61 -62v-215z" />
    <glyph glyph-name="ugrave" unicode="&#xf9;" horiz-adv-x="1032" 
d="M317 -20q-127 0 -201.5 74.5t-74.5 230.5v862h418v-772q0 -28 15 -45t42 -17t42 17t15 45v772h418v-1147h-401v115h-8q-34 -55 -99 -94.5t-157 -40.5h-9zM182 1497h385l105 -242h-307z" />
    <glyph glyph-name="uacute" unicode="&#xfa;" horiz-adv-x="1032" 
d="M317 -20q-127 0 -201.5 74.5t-74.5 230.5v862h418v-772q0 -28 15 -45t42 -17t42 17t15 45v772h418v-1147h-401v115h-8q-34 -55 -99 -94.5t-157 -40.5h-9zM360 1255l105 242h385l-182 -242h-308z" />
    <glyph glyph-name="ucircumflex" unicode="&#xfb;" horiz-adv-x="1032" 
d="M317 -20q-127 0 -201.5 74.5t-74.5 230.5v862h418v-772q0 -28 15 -45t42 -17t42 17t15 45v772h418v-1147h-401v115h-8q-34 -55 -99 -94.5t-157 -40.5h-9zM156 1255l172 242h379l170 -242h-306l-59 121l-70 -121h-286z" />
    <glyph glyph-name="udieresis" unicode="&#xfc;" horiz-adv-x="1032" 
d="M317 -20q-127 0 -201.5 74.5t-74.5 230.5v862h418v-772q0 -28 15 -45t42 -17t42 17t15 45v772h418v-1147h-401v115h-8q-34 -55 -99 -94.5t-157 -40.5h-9zM162 1255v242h311v-242h-311zM559 1255v242h307v-242h-307z" />
    <glyph glyph-name="yacute" unicode="&#xfd;" horiz-adv-x="1081" 
d="M401 -246l52 246h-224l-204 1147h436l61 -594l19 -291h10l20 291l58 594h428l-242 -1393h-414zM385 1255l104 242h385l-182 -242h-307z" />
    <glyph glyph-name="thorn" unicode="&#xfe;" horiz-adv-x="1044" 
d="M41 -246v1680h418v-381h8q73 114 201 114h8q176 0 254 -121.5t78 -365.5v-182q0 -145 -21.5 -246t-64 -158t-97 -81.5t-127.5 -24.5h-12q-145 0 -217 106h-10v-340h-418zM459 391q0 -47 13 -67.5t46 -20.5q34 0 49 21t15 67v363q0 46 -15 67t-49 21q-33 0 -46 -20.5
t-13 -67.5v-363z" />
    <glyph glyph-name="ydieresis" unicode="&#xff;" horiz-adv-x="1081" 
d="M401 -246l52 246h-224l-204 1147h436l61 -594l19 -291h10l20 291l58 594h428l-242 -1393h-414zM186 1255v242h312v-242h-312zM584 1255v242h307v-242h-307z" />
    <glyph glyph-name="Amacron" unicode="&#x100;" horiz-adv-x="1171" 
d="M20 0l216 1434h698l217 -1434h-481l-29 328h-141l-25 -328h-455zM268 1542v213h619v-213h-619zM520 604h96l-30 342l-19 221h-8l-14 -221z" />
    <glyph glyph-name="amacron" unicode="&#x101;" horiz-adv-x="1028" 
d="M358 -16q-92 0 -157.5 27t-99.5 74t-49 98t-15 110v92q0 138 67.5 209.5t204.5 97.5l219 41q15 2 23.5 5.5t15 15t6.5 30.5v70q0 30 -14.5 47t-40.5 17q-59 0 -59 -62v-72h-371v74q0 313 387 313h131q105 0 182.5 -27t119 -72t60.5 -94t19 -104v-874h-366v121h-9
q-59 -137 -239 -137h-15zM246 1255v213h565v-213h-565zM449 352q0 -63 61 -63t61 57v148l-75 -21q-27 -8 -37 -23.5t-10 -50.5v-47z" />
    <glyph glyph-name="Abreve" unicode="&#x102;" horiz-adv-x="1171" 
d="M20 0l216 1434h698l217 -1434h-481l-29 328h-141l-25 -328h-455zM274 1755h220q2 -40 19 -60t65 -20q49 0 67.5 20.5t20.5 59.5h215q0 -231 -303 -231q-304 0 -304 231zM520 604h96l-30 342l-19 221h-8l-14 -221z" />
    <glyph glyph-name="abreve" unicode="&#x103;" horiz-adv-x="1028" 
d="M358 -16q-92 0 -157.5 27t-99.5 74t-49 98t-15 110v92q0 138 67.5 209.5t204.5 97.5l219 41q15 2 23.5 5.5t15 15t6.5 30.5v70q0 30 -14.5 47t-40.5 17q-59 0 -59 -62v-72h-371v74q0 313 387 313h131q105 0 182.5 -27t119 -72t60.5 -94t19 -104v-874h-366v121h-9
q-59 -137 -239 -137h-15zM231 1497h207q4 -45 21 -67.5t69 -22.5q53 0 72 23.5t21 66.5h204q0 -123 -78.5 -185.5t-218.5 -62.5q-138 0 -217.5 62.5t-79.5 185.5zM449 352q0 -63 61 -63t61 57v148l-75 -21q-27 -8 -37 -23.5t-10 -50.5v-47z" />
    <glyph glyph-name="Aogonek" unicode="&#x104;" horiz-adv-x="1171" 
d="M20 0l216 1434h698l217 -1434q-82 -10 -129 -41.5t-47 -73.5q0 -21 14 -29t43 -8q50 0 96 17l48 -139q-82 -33 -181 -33q-91 0 -143.5 41.5t-52.5 107.5q0 89 96 158h-225l-29 328h-141l-25 -328h-455zM520 604h96l-30 342l-19 221h-8l-14 -221z" />
    <glyph glyph-name="aogonek" unicode="&#x105;" horiz-adv-x="1028" 
d="M358 -16q-92 0 -157.5 27t-99.5 74t-49 98t-15 110v92q0 138 67.5 209.5t204.5 97.5l219 41q15 2 23.5 5.5t15 15t6.5 30.5v70q0 30 -14.5 47t-40.5 17q-59 0 -59 -62v-72h-371v74q0 313 387 313h131q105 0 182.5 -27t119 -72t60.5 -94t19 -104v-874h-10
q-82 -10 -129 -41.5t-47 -73.5q0 -21 14 -29t43 -8q50 0 96 17l47 -139q-82 -33 -180 -33q-91 0 -143.5 41.5t-52.5 107.5q0 89 96 158h-100v121h-9q-59 -137 -239 -137h-15zM449 352q0 -63 61 -63t61 57v148l-75 -21q-27 -8 -37 -23.5t-10 -50.5v-47z" />
    <glyph glyph-name="Cacute" unicode="&#x106;" horiz-adv-x="1110" 
d="M547 -25q-250 0 -380 121t-130 385v551q0 214 125.5 320t361.5 106h70q212 0 336.5 -111t124.5 -323v-139h-410v166q0 41 -15.5 60t-56.5 19t-57 -19.5t-16 -59.5v-668q0 -40 17 -60t58 -20q74 0 74 80v197h424v-129q0 -246 -115 -361t-350 -115h-61zM416 1522l84 233
h379l-164 -233h-299z" />
    <glyph glyph-name="cacute" unicode="&#x107;" horiz-adv-x="999" 
d="M492 -29q-222 0 -338.5 110.5t-116.5 346.5v285q0 236 116 345t339 109h43q220 0 320.5 -106.5t100.5 -347.5v-27h-378v127q0 61 -58 61q-59 0 -59 -61v-487q0 -32 13 -47t46 -15q31 0 44.5 15t13.5 47v163h385v-61q0 -242 -100 -349.5t-320 -107.5h-51zM356 1255
l105 242h385l-182 -242h-308z" />
    <glyph glyph-name="Ccircumflex" unicode="&#x108;" horiz-adv-x="1110" 
d="M547 -25q-250 0 -380 121t-130 385v551q0 214 125.5 320t361.5 106h70q212 0 336.5 -111t124.5 -323v-139h-410v166q0 41 -15.5 60t-56.5 19t-57 -19.5t-16 -59.5v-668q0 -40 17 -60t58 -20q74 0 74 80v197h424v-129q0 -246 -115 -361t-350 -115h-61zM215 1522l160 233
h379l153 -233h-293l-59 116l-63 -116h-277z" />
    <glyph glyph-name="ccircumflex" unicode="&#x109;" horiz-adv-x="999" 
d="M492 -29q-222 0 -338.5 110.5t-116.5 346.5v285q0 236 116 345t339 109h43q220 0 320.5 -106.5t100.5 -347.5v-27h-378v127q0 61 -58 61q-59 0 -59 -61v-487q0 -32 13 -47t46 -15q31 0 44.5 15t13.5 47v163h385v-61q0 -242 -100 -349.5t-320 -107.5h-51zM152 1255
l172 242h378l170 -242h-305l-59 121l-70 -121h-286z" />
    <glyph glyph-name="Cdotaccent" unicode="&#x10a;" horiz-adv-x="1110" 
d="M547 -25q-250 0 -380 121t-130 385v551q0 214 125.5 320t361.5 106h70q212 0 336.5 -111t124.5 -323v-139h-410v166q0 41 -15.5 60t-56.5 19t-57 -19.5t-16 -59.5v-668q0 -40 17 -60t58 -20q74 0 74 80v197h424v-129q0 -246 -115 -361t-350 -115h-61zM406 1522v233h311
v-233h-311z" />
    <glyph glyph-name="cdotaccent" unicode="&#x10b;" horiz-adv-x="999" 
d="M492 -29q-222 0 -338.5 110.5t-116.5 346.5v285q0 236 116 345t339 109h43q220 0 320.5 -106.5t100.5 -347.5v-27h-378v127q0 61 -58 61q-59 0 -59 -61v-487q0 -32 13 -47t46 -15q31 0 44.5 15t13.5 47v163h385v-61q0 -242 -100 -349.5t-320 -107.5h-51zM336 1255v242
h352v-242h-352z" />
    <glyph glyph-name="Ccaron" unicode="&#x10c;" horiz-adv-x="1110" 
d="M547 -25q-250 0 -380 121t-130 385v551q0 214 125.5 320t361.5 106h70q212 0 336.5 -111t124.5 -323v-139h-410v166q0 41 -15.5 60t-56.5 19t-57 -19.5t-16 -59.5v-668q0 -40 17 -60t58 -20q74 0 74 80v197h424v-129q0 -246 -115 -361t-350 -115h-61zM215 1755h293
l59 -117l64 117h276l-159 -233h-379z" />
    <glyph glyph-name="ccaron" unicode="&#x10d;" horiz-adv-x="999" 
d="M492 -29q-222 0 -338.5 110.5t-116.5 346.5v285q0 236 116 345t339 109h43q220 0 320.5 -106.5t100.5 -347.5v-27h-378v127q0 61 -58 61q-59 0 -59 -61v-487q0 -32 13 -47t46 -15q31 0 44.5 15t13.5 47v163h385v-61q0 -242 -100 -349.5t-320 -107.5h-51zM152 1497h305
l59 -121l70 121h286l-172 -242h-378z" />
    <glyph glyph-name="Dcaron" unicode="&#x10e;" horiz-adv-x="1165" 
d="M41 0v1434h655q432 0 432 -447v-510q0 -112 -25 -196.5t-81 -149t-153 -98t-234 -33.5h-594zM209 1755h293l59 -117l64 117h276l-160 -233h-379zM500 332h92q35 0 55.5 30t20.5 72l-2 539q0 125 -95 125h-71v-766z" />
    <glyph glyph-name="dcaron" unicode="&#x10f;" horiz-adv-x="1044" 
d="M365 -25q-166 0 -247 127.5t-81 364.5v201q0 112 14.5 196.5t41 140t66.5 90.5t87.5 49.5t107.5 14.5h11q138 0 210 -106h11v381h418v-1434h-398v76h-8q-64 -101 -217 -101h-16zM463 393q0 -46 15 -67t48 -21t46.5 20.5t13.5 67.5v363q0 47 -13.5 67.5t-46.5 20.5
t-48 -21t-15 -67v-363zM1063 1114v96h47q47 0 66.5 10.5t19.5 45.5v10h-133v158h283v-144q0 -90 -64 -133t-156 -43h-63z" />
    <glyph glyph-name="Dcroat" unicode="&#x110;" horiz-adv-x="1214" 
d="M25 580v294h43v560h655q432 0 432 -447v-510q0 -112 -25 -196.5t-81 -149t-153 -98t-234 -33.5h-594v580h-43zM526 332h92q35 0 55.5 30t20.5 72l-2 539q0 125 -94 125h-72v-224h103v-294h-103v-248z" />
    <glyph glyph-name="dcroat" unicode="&#x111;" horiz-adv-x="1044" 
d="M440 1198v170h146v66h418v-66h49v-170h-49v-1198h-398v76h-8q-64 -101 -217 -101h-16q-166 0 -247 127.5t-81 364.5v201q0 112 14.5 196.5t41 140t66.5 90.5t87.5 49.5t107.5 14.5h11q138 0 210 -106h11v145h-146zM463 393q0 -46 15 -67t48 -21t46.5 20.5t13.5 67.5v363
q0 47 -13.5 67.5t-46.5 20.5t-48 -21t-15 -67v-363z" />
    <glyph glyph-name="Emacron" unicode="&#x112;" horiz-adv-x="954" 
d="M41 0v1434h842v-328h-383v-188h368v-349h-368v-229h413v-340h-872zM150 1542v213h618v-213h-618z" />
    <glyph glyph-name="emacron" unicode="&#x113;" horiz-adv-x="1015" 
d="M492 -25q-223 0 -339 108.5t-116 344.5v285q0 236 116 345t339 109h53q221 0 325.5 -107t104.5 -347v-232h-516v-155q0 -32 14 -47t47 -15q35 0 46.5 14.5t11.5 47.5v82h401v-19q0 -217 -107 -315.5t-329 -98.5h-51zM236 1255v213h565v-213h-565zM459 725h119v88
q0 61 -58 61q-59 0 -59 -61z" />
    <glyph glyph-name="Edotaccent" unicode="&#x116;" horiz-adv-x="954" 
d="M41 0v1434h842v-328h-383v-188h368v-349h-368v-229h413v-340h-872zM303 1522v233h311v-233h-311z" />
    <glyph glyph-name="edotaccent" unicode="&#x117;" horiz-adv-x="1015" 
d="M492 -25q-223 0 -339 108.5t-116 344.5v285q0 236 116 345t339 109h53q221 0 325.5 -107t104.5 -347v-232h-516v-155q0 -32 14 -47t47 -15q35 0 46.5 14.5t11.5 47.5v82h401v-19q0 -217 -107 -315.5t-329 -98.5h-51zM342 1255v242h352v-242h-352zM459 725h119v88
q0 61 -58 61q-59 0 -59 -61z" />
    <glyph glyph-name="Eogonek" unicode="&#x118;" horiz-adv-x="954" 
d="M41 0v1434h842v-328h-383v-188h368v-349h-368v-229h413v-340q-82 -10 -129 -41.5t-47 -73.5q0 -37 58 -37q50 0 96 17l47 -139q-82 -33 -180 -33q-91 0 -144 41.5t-53 107.5q0 89 96 158h-616z" />
    <glyph glyph-name="eogonek" unicode="&#x119;" horiz-adv-x="1015" 
d="M492 -25q-223 0 -339 108.5t-116 344.5v285q0 236 116 345t339 109h53q221 0 325.5 -107t104.5 -347v-232h-516v-155q0 -32 14 -47t47 -15q35 0 46.5 14.5t11.5 47.5v82h401v-19q0 -259 -158 -352q-82 -72 -82 -133q0 -23 15.5 -39.5t42.5 -16.5q50 0 96 17l47 -139
q-82 -33 -180 -33q-91 0 -144 41.5t-53 107.5q0 76 62 138q-67 -5 -82 -5h-51zM459 725h119v88q0 61 -58 61q-59 0 -59 -61z" />
    <glyph glyph-name="Ecaron" unicode="&#x11a;" horiz-adv-x="954" 
d="M41 0v1434h842v-328h-383v-188h368v-349h-368v-229h413v-340h-872zM113 1755h293l59 -117l63 117h277l-160 -233h-379z" />
    <glyph glyph-name="ecaron" unicode="&#x11b;" horiz-adv-x="1015" 
d="M492 -25q-223 0 -339 108.5t-116 344.5v285q0 236 116 345t339 109h53q221 0 325.5 -107t104.5 -347v-232h-516v-155q0 -32 14 -47t47 -15q35 0 46.5 14.5t11.5 47.5v82h401v-19q0 -217 -107 -315.5t-329 -98.5h-51zM158 1497h305l59 -121l70 121h287l-172 -242h-379z
M459 725h119v88q0 61 -58 61q-59 0 -59 -61z" />
    <glyph glyph-name="Gcircumflex" unicode="&#x11c;" horiz-adv-x="1138" 
d="M549 -25q-251 0 -381.5 121t-130.5 385v551q0 215 125.5 320.5t363.5 105.5h88q114 0 203 -32t139.5 -78.5t83 -108.5t43.5 -113.5t11 -101.5v-70h-445v115q0 80 -74 80q-75 0 -75 -80v-690q0 -92 80 -92q82 0 82 92v137h-76v320h516v-373q0 -256 -128 -372t-366 -116
h-59zM225 1522l160 233h379l154 -233h-293l-60 116l-63 -116h-277z" />
    <glyph glyph-name="gcircumflex" unicode="&#x11d;" horiz-adv-x="1036" 
d="M504 -268q-88 0 -158 14.5t-114 41t-74.5 57t-45 68.5t-20.5 69t-6 65v62h381v-70q0 -27 16.5 -42t44.5 -15q31 0 44.5 13.5t13.5 51.5v203h-8q-35 -100 -220 -100h-12q-172 0 -240.5 111t-68.5 339v49q0 246 82 378t268 132h25q65 0 126 -32.5t76 -73.5h11v94h370v-1024
q0 -45 -3 -80.5t-13 -78t-27.5 -74t-48.5 -63t-73.5 -51t-105 -32t-140.5 -12.5h-80zM182 1255l172 242h379l170 -242h-305l-59 121l-70 -121h-287zM463 545q0 -46 15 -67t48 -21t46.5 20.5t13.5 67.5v211q0 47 -13.5 67.5t-46.5 20.5t-48 -21t-15 -67v-211z" />
    <glyph glyph-name="Gbreve" unicode="&#x11e;" horiz-adv-x="1138" 
d="M549 -25q-251 0 -381.5 121t-130.5 385v551q0 215 125.5 320.5t363.5 105.5h88q114 0 203 -32t139.5 -78.5t83 -108.5t43.5 -113.5t11 -101.5v-70h-445v115q0 80 -74 80q-75 0 -75 -80v-690q0 -92 80 -92q82 0 82 92v137h-76v320h516v-373q0 -256 -128 -372t-366 -116
h-59zM268 1755h219q2 -40 19 -60t65 -20q49 0 67.5 20.5t20.5 59.5h215q0 -231 -303 -231t-303 231z" />
    <glyph glyph-name="gbreve" unicode="&#x11f;" horiz-adv-x="1036" 
d="M504 -268q-88 0 -158 14.5t-114 41t-74.5 57t-45 68.5t-20.5 69t-6 65v62h381v-70q0 -27 16.5 -42t44.5 -15q31 0 44.5 13.5t13.5 51.5v203h-8q-35 -100 -220 -100h-12q-172 0 -240.5 111t-68.5 339v49q0 246 82 378t268 132h25q65 0 126 -32.5t76 -73.5h11v94h370v-1024
q0 -45 -3 -80.5t-13 -78t-27.5 -74t-48.5 -63t-73.5 -51t-105 -32t-140.5 -12.5h-80zM246 1497h207q4 -45 21 -67.5t69 -22.5q53 0 71.5 23t20.5 67h205q0 -123 -78.5 -185.5t-218.5 -62.5q-138 0 -217.5 62.5t-79.5 185.5zM463 545q0 -46 15 -67t48 -21t46.5 20.5
t13.5 67.5v211q0 47 -13.5 67.5t-46.5 20.5t-48 -21t-15 -67v-211z" />
    <glyph glyph-name="Gdotaccent" unicode="&#x120;" horiz-adv-x="1138" 
d="M549 -25q-251 0 -381.5 121t-130.5 385v551q0 215 125.5 320.5t363.5 105.5h88q114 0 203 -32t139.5 -78.5t83 -108.5t43.5 -113.5t11 -101.5v-70h-445v115q0 80 -74 80q-75 0 -75 -80v-690q0 -92 80 -92q82 0 82 92v137h-76v320h516v-373q0 -256 -128 -372t-366 -116
h-59zM416 1522v233h311v-233h-311z" />
    <glyph glyph-name="gdotaccent" unicode="&#x121;" horiz-adv-x="1036" 
d="M504 -268q-88 0 -158 14.5t-114 41t-74.5 57t-45 68.5t-20.5 69t-6 65v62h381v-70q0 -27 16.5 -42t44.5 -15q31 0 44.5 13.5t13.5 51.5v203h-8q-35 -100 -220 -100h-12q-172 0 -240.5 111t-68.5 339v49q0 246 82 378t268 132h25q65 0 126 -32.5t76 -73.5h11v94h370v-1024
q0 -45 -3 -80.5t-13 -78t-27.5 -74t-48.5 -63t-73.5 -51t-105 -32t-140.5 -12.5h-80zM367 1255v242h352v-242h-352zM463 545q0 -46 15 -67t48 -21t46.5 20.5t13.5 67.5v211q0 47 -13.5 67.5t-46.5 20.5t-48 -21t-15 -67v-211z" />
    <glyph glyph-name="uni0122" unicode="&#x122;" horiz-adv-x="1138" 
d="M549 -25q-251 0 -381.5 121t-130.5 385v551q0 215 125.5 320.5t363.5 105.5h88q114 0 203 -32t139.5 -78.5t83 -108.5t43.5 -113.5t11 -101.5v-70h-445v115q0 80 -74 80q-75 0 -75 -80v-690q0 -92 80 -92q82 0 82 92v137h-76v320h516v-373q0 -256 -128 -372t-366 -116
h-59zM406 -371v88h53q71 0 96 10t25 42v8h-174v143h348v-131q0 -83 -76.5 -121.5t-200.5 -38.5h-71z" />
    <glyph glyph-name="uni0123" unicode="&#x123;" horiz-adv-x="1036" 
d="M504 -268q-88 0 -158 14.5t-114 41t-74.5 57t-45 68.5t-20.5 69t-6 65v62h381v-70q0 -27 16.5 -42t44.5 -15q31 0 44.5 13.5t13.5 51.5v203h-8q-35 -100 -220 -100h-12q-172 0 -240.5 111t-68.5 339v49q0 246 82 378t268 132h25q65 0 126 -32.5t76 -73.5h11v94h370v-1024
q0 -45 -3 -80.5t-13 -78t-27.5 -74t-48.5 -63t-73.5 -51t-105 -32t-140.5 -12.5h-80zM362 1255v129q0 91 71 136t224 45h56v-84h-56q-42 0 -67 -4t-34.5 -15t-11 -18t-1.5 -23v-6h172v-160h-353zM463 545q0 -46 15 -67t48 -21t46.5 20.5t13.5 67.5v211q0 47 -13.5 67.5
t-46.5 20.5t-48 -21t-15 -67v-211z" />
    <glyph glyph-name="Hcircumflex" unicode="&#x124;" horiz-adv-x="1138" 
d="M41 0v1434h459v-516h139v516h459v-1434h-459v580h-139v-580h-459zM223 1522l160 233h379l153 -233h-292l-60 116l-63 -116h-277z" />
    <glyph glyph-name="hcircumflex" unicode="&#x125;" horiz-adv-x="1032" 
d="M41 0v1434h418v-385h8q69 118 235 118h13q127 0 201.5 -74.5t74.5 -230.5v-862h-418v772q0 28 -16 45t-41 17q-57 0 -57 -64v-770h-418zM203 1522l159 233h379l154 -233h-293l-59 116l-64 -116h-276z" />
    <glyph glyph-name="Hbar" unicode="&#x126;" horiz-adv-x="1212" 
d="M29 1020v260h49v154h459v-154h139v154h459v-154h49v-260h-49v-1020h-459v580h-139v-580h-459v1020h-49zM537 918h139v102h-139v-102z" />
    <glyph glyph-name="hbar" unicode="&#x127;" horiz-adv-x="1032" 
d="M-8 1198v170h49v66h418v-66h145v-170h-145v-149h8q69 118 235 118h13q127 0 201.5 -74.5t74.5 -230.5v-862h-418v772q0 28 -16 45t-41 17q-57 0 -57 -64v-770h-418v1198h-49z" />
    <glyph glyph-name="Itilde" unicode="&#x128;" horiz-adv-x="540" 
d="M41 0v1434h459v-1434h-459zM-74 1522q0 138 56 203t151 65q55 0 141.5 -29.5t118.5 -29.5q18 0 22.5 14.5t4.5 60.5h190q1 -56 -8.5 -103.5t-30.5 -86.5t-58.5 -61.5t-88.5 -22.5q-70 0 -155 32.5t-111 32.5q-25 0 -34 -17.5t-7 -57.5h-191z" />
    <glyph glyph-name="itilde" unicode="&#x129;" horiz-adv-x="499" 
d="M41 0v1147h418v-1147h-418zM-94 1247q0 138 56 203.5t151 65.5q55 0 141.5 -30t118.5 -30q18 0 22 14.5t4 61.5h191q1 -76 -15.5 -135.5t-60.5 -99.5t-111 -40q-70 0 -155 33t-111 33q-25 0 -34 -18t-7 -58h-190z" />
    <glyph glyph-name="Imacron" unicode="&#x12a;" horiz-adv-x="540" 
d="M41 0v1434h459v-1434h-459zM-39 1542v213h619v-213h-619z" />
    <glyph glyph-name="imacron" unicode="&#x12b;" horiz-adv-x="499" 
d="M41 0v1147h418v-1147h-418zM-33 1255v213h565v-213h-565z" />
    <glyph glyph-name="Ibreve" unicode="&#x12c;" horiz-adv-x="540" 
d="M41 0v1434h459v-1434h-459zM-33 1755h219q2 -40 19 -60t65 -20q49 0 67.5 20.5t20.5 59.5h215q0 -231 -303 -231t-303 231z" />
    <glyph glyph-name="ibreve" unicode="&#x12d;" horiz-adv-x="499" 
d="M41 0v1147h418v-1147h-418zM-47 1497h207q4 -45 21 -67.5t69 -22.5q53 0 71.5 23t20.5 67h205q0 -123 -78.5 -185.5t-218.5 -62.5q-138 0 -217.5 62.5t-79.5 185.5z" />
    <glyph glyph-name="Iogonek" unicode="&#x12e;" horiz-adv-x="540" 
d="M41 0v1434h459v-1434q-82 -10 -129 -41.5t-47 -73.5q0 -21 14 -29t43 -8q50 0 96 17l47 -139q-82 -33 -180 -33q-91 0 -144 41.5t-53 107.5q0 89 97 158h-203z" />
    <glyph glyph-name="iogonek" unicode="&#x12f;" horiz-adv-x="499" 
d="M41 0v1147h418v-1147h-15q-82 -10 -129 -41.5t-47 -73.5q0 -37 58 -37q50 0 96 17l47 -139q-82 -33 -180 -33q-91 0 -144 41.5t-53 107.5q0 89 96 158h-147zM41 1235v199h418v-199h-418z" />
    <glyph glyph-name="Idotaccent" unicode="&#x130;" horiz-adv-x="540" 
d="M41 0v1434h459v-1434h-459zM41 1522v233h459v-233h-459z" />
    <glyph glyph-name="dotlessi" unicode="&#x131;" horiz-adv-x="499" 
d="M41 0v1147h418v-1147h-418z" />
    <glyph glyph-name="IJ" unicode="&#x132;" horiz-adv-x="1245" 
d="M41 0v1434h459v-1434h-459zM569 0v336h113q36 0 48.5 15t12.5 50v1033h461v-1090q0 -168 -84.5 -258t-269.5 -90q-187 0 -281 4z" />
    <glyph glyph-name="ij" unicode="&#x133;" horiz-adv-x="999" 
d="M41 0v1147h418v-1147h-418zM41 1235v199h418v-199h-418zM483 -246v199h17q22 0 31.5 9.5t9.5 33.5v1151h417v-1174q0 -48 -11.5 -85t-40.5 -70t-86.5 -50.5t-141.5 -17.5q-97 0 -195 4zM541 1235v199h417v-199h-417z" />
    <glyph glyph-name="Jcircumflex" unicode="&#x134;" horiz-adv-x="700" 
d="M305 -4q-186 0 -280 4v336h112q36 0 49 15.5t13 49.5v1033h460v-1090q0 -168 -84.5 -258t-269.5 -90zM80 1522l160 233h378l154 -233h-293l-59 116l-64 -116h-276z" />
    <glyph glyph-name="jcircumflex" unicode="&#x135;" horiz-adv-x="499" 
d="M178 -250q-96 0 -194 4v199h16q22 0 31.5 9.5t9.5 33.5v1151h418v-1174q0 -48 -11.5 -85t-41 -70t-87 -50.5t-141.5 -17.5zM-94 1255l172 242h379l170 -242h-305l-60 121l-69 -121h-287z" />
    <glyph glyph-name="uni0136" unicode="&#x136;" horiz-adv-x="1148" 
d="M41 0v1434h459l2 -586h10l147 586h451l-207 -713l234 -721h-465l-160 571h-12v-571h-459zM414 -371v88h53q71 0 96 10t25 42v8h-174v143h348v-131q0 -83 -76.5 -121.5t-200.5 -38.5h-71z" />
    <glyph glyph-name="uni0137" unicode="&#x137;" horiz-adv-x="1089" 
d="M41 0v1434h418v-676h8l170 389h405l-237 -537l256 -610h-428l-166 461h-8v-461h-418zM369 -315v71h45q61 0 80.5 7t19.5 34v6h-145v117h311v-106q0 -129 -252 -129h-59z" />
    <glyph glyph-name="Lacute" unicode="&#x139;" horiz-adv-x="901" 
d="M41 0v1434h459v-1098h364v-336h-823zM125 1522l84 233h379l-164 -233h-299z" />
    <glyph glyph-name="lacute" unicode="&#x13a;" horiz-adv-x="499" 
d="M41 0v1434h418v-1434h-418zM104 1522l84 233h379l-164 -233h-299z" />
    <glyph glyph-name="uni013B" unicode="&#x13b;" horiz-adv-x="901" 
d="M41 0v1434h459v-1098h364v-336h-823zM303 -371v88h53q71 0 96 10t25 42v8h-174v143h348v-131q0 -83 -76 -121.5t-200 -38.5h-72z" />
    <glyph glyph-name="uni013C" unicode="&#x13c;" horiz-adv-x="499" 
d="M41 0v1434h418v-1434h-418zM94 -315v71h45q61 0 81 7t20 34v6h-146v117h312v-106q0 -129 -252 -129h-60z" />
    <glyph glyph-name="Lcaron" unicode="&#x13d;" horiz-adv-x="901" 
d="M41 0v1434h459v-1098h364v-336h-823zM565 1114v96h47q47 0 66.5 10.5t19.5 45.5v10h-133v158h283v-144q0 -90 -63.5 -133t-155.5 -43h-64z" />
    <glyph glyph-name="lcaron" unicode="&#x13e;" horiz-adv-x="499" 
d="M41 0v1434h418v-1434h-418zM518 1114v96h47q47 0 66.5 10.5t19.5 45.5v10h-133v158h283v-144q0 -90 -63.5 -133t-155.5 -43h-64z" />
    <glyph glyph-name="Ldot" unicode="&#x13f;" horiz-adv-x="901" 
d="M41 0v1434h459v-1098h364v-336h-823zM590 709v278h264v-278h-264z" />
    <glyph glyph-name="ldot" unicode="&#x140;" horiz-adv-x="786" 
d="M41 0v1434h418v-1434h-418zM496 573v326h297v-326h-297z" />
    <glyph glyph-name="Lslash" unicode="&#x141;" horiz-adv-x="948" 
d="M29 543v260l59 28v603h459v-375l115 57v-260l-115 -57v-463h364v-336h-823v571z" />
    <glyph glyph-name="lslash" unicode="&#x142;" horiz-adv-x="569" 
d="M20 377v299l56 41v717h418v-404l55 41v-297l-55 -41v-733h-418v418z" />
    <glyph glyph-name="Nacute" unicode="&#x143;" horiz-adv-x="1179" 
d="M41 0v1434h483l195 -650h14l-4 299v351h410v-1434h-471l-209 741h-13l5 -311v-430h-410zM475 1522l84 233h379l-164 -233h-299z" />
    <glyph glyph-name="nacute" unicode="&#x144;" horiz-adv-x="1032" 
d="M41 0v1147h401v-115h9q32 55 96 94t153 39h15q127 0 201.5 -74t74.5 -229v-862h-418v772q0 28 -15 45t-42 17t-42 -17t-15 -45v-772h-418zM358 1255l105 242h385l-182 -242h-308z" />
    <glyph glyph-name="uni0145" unicode="&#x145;" horiz-adv-x="1179" 
d="M41 0v1434h483l195 -650h14l-4 299v351h410v-1434h-471l-209 741h-13l5 -311v-430h-410zM406 -371v88h53q71 0 96 10t25 42v8h-174v143h348v-131q0 -83 -76.5 -121.5t-200.5 -38.5h-71z" />
    <glyph glyph-name="uni0146" unicode="&#x146;" horiz-adv-x="1032" 
d="M41 0v1147h401v-115h9q32 55 96 94t153 39h15q127 0 201.5 -74t74.5 -229v-862h-418v772q0 28 -15 45t-42 17t-42 -17t-15 -45v-772h-418zM367 -315v71h45q61 0 80.5 7t19.5 34v6h-145v117h311v-106q0 -129 -252 -129h-59z" />
    <glyph glyph-name="Ncaron" unicode="&#x147;" horiz-adv-x="1179" 
d="M41 0v1434h483l195 -650h14l-4 299v351h410v-1434h-471l-209 741h-13l5 -311v-430h-410zM274 1755h293l60 -117l63 117h277l-160 -233h-379z" />
    <glyph glyph-name="ncaron" unicode="&#x148;" horiz-adv-x="1032" 
d="M41 0v1147h401v-115h9q32 55 96 94t153 39h15q127 0 201.5 -74t74.5 -229v-862h-418v772q0 28 -15 45t-42 17t-42 -17t-15 -45v-772h-418zM154 1497h305l59 -121l70 121h286l-172 -242h-378z" />
    <glyph glyph-name="Eng" unicode="&#x14a;" horiz-adv-x="1179" 
d="M651 -246v156h72q23 0 34 12t11 41v37h-100l-209 741h-13l5 -311v-430h-410v1434h483l195 -650h14l-4 299v351h410v-1489q0 -80 -63 -135.5t-173 -55.5h-252z" />
    <glyph glyph-name="eng" unicode="&#x14b;" horiz-adv-x="1032" 
d="M711 -352q-97 0 -195 4v219h16q22 0 31.5 9.5t9.5 33.5v858q0 28 -15 45t-42 17t-42 -17t-15 -45v-772h-418v1147h401v-115h9q32 55 96 94t153 39h15q127 0 201.5 -74t74.5 -229v-991q0 -48 -11.5 -85t-40.5 -70t-86.5 -50.5t-141.5 -17.5z" />
    <glyph glyph-name="Omacron" unicode="&#x14c;" horiz-adv-x="1155" 
d="M547 -25q-249 0 -379.5 123t-130.5 387v463q0 264 130.5 387t379.5 123h61q250 0 380 -122.5t130 -387.5v-463q0 -265 -130 -387.5t-380 -122.5h-61zM268 1542v213h619v-213h-619zM500 387q0 -80 78 -80q41 0 59 20t18 60v660q0 40 -18 59.5t-59 19.5q-42 0 -60 -19.5
t-18 -59.5v-660z" />
    <glyph glyph-name="omacron" unicode="&#x14d;" horiz-adv-x="1036" 
d="M492 -29q-222 0 -338.5 110.5t-116.5 346.5v285q0 236 116 345t339 109h53q225 0 339.5 -108.5t114.5 -345.5v-285q0 -237 -115.5 -347t-340.5 -110h-51zM238 1255v213h565v-213h-565zM459 326q0 -32 14 -47t47 -15q31 0 44.5 15t13.5 47v487q0 61 -58 61q-61 0 -61 -61
v-487z" />
    <glyph glyph-name="Obreve" unicode="&#x14e;" horiz-adv-x="1155" 
d="M547 -25q-249 0 -379.5 123t-130.5 387v463q0 264 130.5 387t379.5 123h61q250 0 380 -122.5t130 -387.5v-463q0 -265 -130 -387.5t-380 -122.5h-61zM274 1755h220q2 -40 19 -60t65 -20q49 0 67.5 20.5t20.5 59.5h215q0 -231 -303 -231q-304 0 -304 231zM500 387
q0 -80 78 -80q41 0 59 20t18 60v660q0 40 -18 59.5t-59 19.5q-42 0 -60 -19.5t-18 -59.5v-660z" />
    <glyph glyph-name="obreve" unicode="&#x14f;" horiz-adv-x="1036" 
d="M492 -29q-222 0 -338.5 110.5t-116.5 346.5v285q0 236 116 345t339 109h53q225 0 339.5 -108.5t114.5 -345.5v-285q0 -237 -115.5 -347t-340.5 -110h-51zM223 1497h207q4 -45 21 -67.5t69 -22.5q53 0 71.5 23t20.5 67h205q0 -123 -78.5 -185.5t-218.5 -62.5
q-138 0 -217.5 62.5t-79.5 185.5zM459 326q0 -32 14 -47t47 -15q31 0 44.5 15t13.5 47v487q0 61 -58 61q-61 0 -61 -61v-487z" />
    <glyph glyph-name="Ohungarumlaut" unicode="&#x150;" horiz-adv-x="1155" 
d="M547 -25q-249 0 -379.5 123t-130.5 387v463q0 264 130.5 387t379.5 123h61q250 0 380 -122.5t130 -387.5v-463q0 -265 -130 -387.5t-380 -122.5h-61zM281 1522l57 231h301l-100 -231h-258zM500 387q0 -80 78 -80q41 0 59 20t18 60v660q0 40 -18 59.5t-59 19.5
q-42 0 -60 -19.5t-18 -59.5v-660zM618 1522l97 231h313l-156 -231h-254z" />
    <glyph glyph-name="ohungarumlaut" unicode="&#x151;" horiz-adv-x="1036" 
d="M492 -29q-222 0 -338.5 110.5t-116.5 346.5v285q0 236 116 345t339 109h53q225 0 339.5 -108.5t114.5 -345.5v-285q0 -237 -115.5 -347t-340.5 -110h-51zM258 1255l37 242h268l-74 -242h-231zM459 326q0 -32 14 -47t47 -15q31 0 44.5 15t13.5 47v487q0 61 -58 61
q-61 0 -61 -61v-487zM563 1255l68 242h254l-86 -242h-236z" />
    <glyph glyph-name="OE" unicode="&#x152;" horiz-adv-x="1579" 
d="M1507 1434v-328h-383v-188h369v-349h-369v-229h414v-340h-1069q-432 0 -432 446v510q0 112 25 196.5t81 149.5t153 98.5t234 33.5h977zM498 999l2 -538q0 -125 94 -125h72v766h-93q-35 0 -55 -30.5t-20 -72.5z" />
    <glyph glyph-name="oe" unicode="&#x153;" horiz-adv-x="1560" 
d="M492 -29q-222 0 -338.5 110.5t-116.5 346.5v285q0 236 116 345t339 109h53q150 0 246 -45q99 45 245 45h54q221 0 325.5 -107t104.5 -347v-232h-516v-155q0 -32 14 -47t47 -15q35 0 46 14.5t11 47.5v82h402v-19q0 -217 -107.5 -315.5t-329.5 -98.5h-51q-145 0 -241 45
q-98 -49 -252 -49h-51zM459 326q0 -32 14 -47t47 -15q31 0 44.5 15t13.5 47v487q0 61 -58 61q-61 0 -61 -61v-487zM1004 725h118v88q0 61 -57 61q-59 0 -59 -61z" />
    <glyph glyph-name="Racute" unicode="&#x154;" horiz-adv-x="1155" 
d="M41 0v1434h674q75 0 135.5 -12t101.5 -31t71 -47.5t47.5 -58t27.5 -67t13 -68t3 -67.5v-143q0 -78 -15 -131t-47.5 -85t-73 -48t-101.5 -25v-12q120 -24 176.5 -81t56.5 -169v-389h-457v391q0 84 -88 84h-65v-475h-459zM412 1522l84 233h378l-163 -233h-299zM500 803h84
q36 0 54.5 27.5t18.5 68.5v111q0 90 -77 90h-80v-297z" />
    <glyph glyph-name="racute" unicode="&#x155;" horiz-adv-x="757" 
d="M41 0v1147h385v-137h8q18 74 83.5 108.5t158.5 34.5q25 0 49 -6v-367h-57q-104 0 -156.5 -62t-52.5 -196v-522h-418zM236 1255l104 242h385l-182 -242h-307z" />
    <glyph glyph-name="uni0156" unicode="&#x156;" horiz-adv-x="1155" 
d="M41 0v1434h674q75 0 135.5 -12t101.5 -31t71 -47.5t47.5 -58t27.5 -67t13 -68t3 -67.5v-143q0 -78 -15 -131t-47.5 -85t-73 -48t-101.5 -25v-12q120 -24 176.5 -81t56.5 -169v-389h-457v391q0 84 -88 84h-65v-475h-459zM408 -371v88h53q71 0 96 10t25 42v8h-174v143h348
v-131q0 -83 -76.5 -121.5t-200.5 -38.5h-71zM500 803h84q36 0 54.5 27.5t18.5 68.5v111q0 90 -77 90h-80v-297z" />
    <glyph glyph-name="uni0157" unicode="&#x157;" horiz-adv-x="757" 
d="M41 0v1147h385v-137h8q18 74 83.5 108.5t158.5 34.5q25 0 49 -6v-367h-57q-104 0 -156.5 -62t-52.5 -196v-522h-418zM115 -315v71h45q61 0 80.5 7t19.5 34v6h-145v117h311v-106q0 -129 -252 -129h-59z" />
    <glyph glyph-name="Rcaron" unicode="&#x158;" horiz-adv-x="1155" 
d="M41 0v1434h674q75 0 135.5 -12t101.5 -31t71 -47.5t47.5 -58t27.5 -67t13 -68t3 -67.5v-143q0 -78 -15 -131t-47.5 -85t-73 -48t-101.5 -25v-12q120 -24 176.5 -81t56.5 -169v-389h-457v391q0 84 -88 84h-65v-475h-459zM211 1755h293l59 -117l64 117h276l-160 -233h-378z
M500 803h84q36 0 54.5 27.5t18.5 68.5v111q0 90 -77 90h-80v-297z" />
    <glyph glyph-name="rcaron" unicode="&#x159;" horiz-adv-x="757" 
d="M41 0v1147h385v-137h8q18 74 83.5 108.5t158.5 34.5q25 0 49 -6v-367h-57q-104 0 -156.5 -62t-52.5 -196v-522h-418zM31 1497h305l59 -121l70 121h287l-172 -242h-379z" />
    <glyph glyph-name="Sacute" unicode="&#x15a;" horiz-adv-x="1122" 
d="M483 -25q-87 0 -156 12t-114.5 31t-78.5 48t-50.5 56.5t-27.5 64.5t-12.5 63.5t-2.5 60.5v170h444v-129q0 -71 78 -71q33 0 51.5 18t18.5 53v84q0 45 -20 68.5t-76 38.5l-207 55q-154 40 -220.5 131t-66.5 246v115q0 59 9 107.5t36 98.5t71 84t120 56t178 22h192
q102 0 177.5 -21.5t118.5 -55.5t69 -83.5t34.5 -95.5t8.5 -102v-103h-432v82q0 86 -76 86q-34 0 -51 -21t-17 -54v-33q0 -98 84 -117l217 -47q154 -33 226.5 -123t72.5 -264v-94q0 -62 -8 -113.5t-27.5 -103t-55.5 -90t-88.5 -68.5t-131 -46t-178.5 -16h-109zM406 1522
l83 233h379l-163 -233h-299z" />
    <glyph glyph-name="sacute" unicode="&#x15b;" horiz-adv-x="1015" 
d="M449 -25q-404 0 -404 291v115h389v-72q0 -61 68 -61q28 0 44.5 15t16.5 42v39q0 37 -18.5 58t-65.5 28l-205 33q-133 22 -187 96.5t-54 204.5v61q0 58 20.5 114t64 109t125.5 86t191 33h105q110 0 192 -24.5t126.5 -66t65.5 -89t21 -100.5v-92h-381v51q0 55 -63 55
q-64 0 -64 -55v-21q0 -65 84 -80l201 -34q132 -23 193 -97t61 -215v-55q0 -59 -12 -110t-43.5 -100t-80.5 -83t-129 -55t-184 -21h-77zM328 1255l104 242h385l-182 -242h-307z" />
    <glyph glyph-name="Scircumflex" unicode="&#x15c;" horiz-adv-x="1122" 
d="M483 -25q-87 0 -156 12t-114.5 31t-78.5 48t-50.5 56.5t-27.5 64.5t-12.5 63.5t-2.5 60.5v170h444v-129q0 -71 78 -71q33 0 51.5 18t18.5 53v84q0 45 -20 68.5t-76 38.5l-207 55q-154 40 -220.5 131t-66.5 246v115q0 59 9 107.5t36 98.5t71 84t120 56t178 22h192
q102 0 177.5 -21.5t118.5 -55.5t69 -83.5t34.5 -95.5t8.5 -102v-103h-432v82q0 86 -76 86q-34 0 -51 -21t-17 -54v-33q0 -98 84 -117l217 -47q154 -33 226.5 -123t72.5 -264v-94q0 -62 -8 -113.5t-27.5 -103t-55.5 -90t-88.5 -68.5t-131 -46t-178.5 -16h-109zM205 1522
l160 233h378l154 -233h-293l-59 116l-64 -116h-276z" />
    <glyph glyph-name="scircumflex" unicode="&#x15d;" horiz-adv-x="1015" 
d="M449 -25q-404 0 -404 291v115h389v-72q0 -61 68 -61q28 0 44.5 15t16.5 42v39q0 37 -18.5 58t-65.5 28l-205 33q-133 22 -187 96.5t-54 204.5v61q0 58 20.5 114t64 109t125.5 86t191 33h105q110 0 192 -24.5t126.5 -66t65.5 -89t21 -100.5v-92h-381v51q0 55 -63 55
q-64 0 -64 -55v-21q0 -65 84 -80l201 -34q132 -23 193 -97t61 -215v-55q0 -59 -12 -110t-43.5 -100t-80.5 -83t-129 -55t-184 -21h-77zM123 1255l172 242h379l170 -242h-305l-60 121l-69 -121h-287z" />
    <glyph glyph-name="Scedilla" unicode="&#x15e;" horiz-adv-x="1122" 
d="M483 -25q-87 0 -156 12t-114.5 31t-78.5 48t-50.5 56.5t-27.5 64.5t-12.5 63.5t-2.5 60.5v170h444v-129q0 -71 78 -71q33 0 51.5 18t18.5 53v84q0 45 -20 68.5t-76 38.5l-207 55q-154 40 -220.5 131t-66.5 246v115q0 59 9 107.5t36 98.5t71 84t120 56t178 22h192
q102 0 177.5 -21.5t118.5 -55.5t69 -83.5t34.5 -95.5t8.5 -102v-103h-432v82q0 86 -76 86q-34 0 -51 -21t-17 -54v-33q0 -98 84 -117l217 -47q154 -33 226.5 -123t72.5 -264v-94q0 -62 -8 -113.5t-27.5 -103t-55.5 -90t-88.5 -68.5t-131 -46t-178.5 -16h-4l-10 -32
q165 -9 165 -105q0 -55 -54 -87t-154 -32q-206 0 -209 127h141q0 -21 19 -33t49 -12q59 0 59 35q0 45 -119 45l25 94h-17z" />
    <glyph glyph-name="scedilla" unicode="&#x15f;" horiz-adv-x="1015" 
d="M449 -25q-404 0 -404 291v115h389v-72q0 -61 68 -61q28 0 44.5 15t16.5 42v39q0 37 -18.5 58t-65.5 28l-205 33q-133 22 -187 96.5t-54 204.5v61q0 58 20.5 114t64 109t125.5 86t191 33h105q110 0 192 -24.5t126.5 -66t65.5 -89t21 -100.5v-92h-381v51q0 55 -63 55
q-64 0 -64 -55v-21q0 -65 84 -80l201 -34q132 -23 193 -97t61 -215v-55q0 -58 -11.5 -108t-41 -98t-75.5 -82.5t-121 -56.5t-173 -24l-10 -32q166 -9 166 -105q0 -55 -54.5 -87t-154.5 -32q-206 0 -209 127h141q0 -21 19 -33t49 -12q59 0 59 35q0 45 -119 45l25 94h-16z" />
    <glyph glyph-name="Scaron" unicode="&#x160;" horiz-adv-x="1122" 
d="M483 -25q-87 0 -156 12t-114.5 31t-78.5 48t-50.5 56.5t-27.5 64.5t-12.5 63.5t-2.5 60.5v170h444v-129q0 -71 78 -71q33 0 51.5 18t18.5 53v84q0 45 -20 68.5t-76 38.5l-207 55q-154 40 -220.5 131t-66.5 246v115q0 59 9 107.5t36 98.5t71 84t120 56t178 22h192
q102 0 177.5 -21.5t118.5 -55.5t69 -83.5t34.5 -95.5t8.5 -102v-103h-432v82q0 86 -76 86q-34 0 -51 -21t-17 -54v-33q0 -98 84 -117l217 -47q154 -33 226.5 -123t72.5 -264v-94q0 -62 -8 -113.5t-27.5 -103t-55.5 -90t-88.5 -68.5t-131 -46t-178.5 -16h-109zM205 1755h293
l59 -117l64 117h276l-160 -233h-379z" />
    <glyph glyph-name="scaron" unicode="&#x161;" horiz-adv-x="1015" 
d="M449 -25q-404 0 -404 291v115h389v-72q0 -61 68 -61q28 0 44.5 15t16.5 42v39q0 37 -18.5 58t-65.5 28l-205 33q-133 22 -187 96.5t-54 204.5v61q0 58 20.5 114t64 109t125.5 86t191 33h105q110 0 192 -24.5t126.5 -66t65.5 -89t21 -100.5v-92h-381v51q0 55 -63 55
q-64 0 -64 -55v-21q0 -65 84 -80l201 -34q132 -23 193 -97t61 -215v-55q0 -59 -12 -110t-43.5 -100t-80.5 -83t-129 -55t-184 -21h-77zM123 1497h305l59 -121l70 121h287l-172 -242h-379z" />
    <glyph glyph-name="uni0162" unicode="&#x162;" horiz-adv-x="1024" 
d="M283 0v1106h-246v328h950v-328h-246v-1106h-186l-16 -57q166 -9 166 -105q0 -55 -54.5 -87t-154.5 -32q-206 0 -209 127h141q0 -21 19 -33t49 -12q59 0 59 35q0 45 -119 45l31 119h-184z" />
    <glyph glyph-name="uni0163" unicode="&#x163;" horiz-adv-x="778" 
d="M422 -4q-155 0 -226 57.5t-71 210.5v545h-88v338h117v168h381v-168h202v-338h-202v-385v-5q0 -18 1.5 -28t7.5 -24.5t23.5 -21.5t44.5 -7h105v-338q-122 -4 -207 -4l-16 -53q165 -9 165 -105q0 -55 -54 -87t-154 -32q-206 0 -209 127h141q0 -21 19 -33t49 -12q59 0 59 35
q0 45 -119 45z" />
    <glyph glyph-name="Tcaron" unicode="&#x164;" horiz-adv-x="1024" 
d="M283 0v1106h-246v328h950v-328h-246v-1106h-458zM154 1755h292l60 -117l63 117h277l-160 -233h-379z" />
    <glyph glyph-name="tcaron" unicode="&#x165;" horiz-adv-x="778" 
d="M422 -4q-155 0 -226 57.5t-71 210.5v545h-88v338h117v168h381v-168h202v-338h-202v-385v-5q0 -18 1.5 -28t7.5 -24.5t23.5 -21.5t44.5 -7h105v-338q-160 -4 -295 -4zM573 1208v97h48q47 0 66.5 10.5t19.5 44.5v10h-134v158h283v-144q0 -90 -63.5 -133t-155.5 -43h-64z
" />
    <glyph glyph-name="Tbar" unicode="&#x166;" horiz-adv-x="1024" 
d="M180 549v295h103v262h-246v328h950v-328h-246v-262h105v-295h-105v-549h-458v549h-103z" />
    <glyph glyph-name="tbar" unicode="&#x167;" horiz-adv-x="778" 
d="M63 471v207h62v131h-88v338h117v168h381v-168h202v-338h-202v-131h122v-207h-122v-47v-5q0 -18 1.5 -28t7.5 -24.5t23.5 -21.5t44.5 -7h105v-338q-160 -4 -295 -4q-155 0 -226 57.5t-71 210.5v207h-62z" />
    <glyph glyph-name="Utilde" unicode="&#x168;" horiz-adv-x="1138" 
d="M543 -25q-126 0 -216 22t-156 73t-98 139t-32 217v1008h459v-1037q0 -82 78 -82q33 0 51 21.5t18 60.5v1037h451v-1008q0 -128 -32.5 -217t-98.5 -139.5t-153.5 -72.5t-209.5 -22h-61zM233 1522q0 138 56 203t151 65q55 0 141.5 -29.5t118.5 -29.5q18 0 22.5 14.5
t4.5 60.5h191q1 -76 -15.5 -135t-60.5 -99t-111 -40q-70 0 -155 32.5t-111 32.5q-25 0 -34 -17.5t-7 -57.5h-191z" />
    <glyph glyph-name="utilde" unicode="&#x169;" horiz-adv-x="1032" 
d="M317 -20q-127 0 -201.5 74.5t-74.5 230.5v862h418v-772q0 -28 15 -45t42 -17t42 17t15 45v772h418v-1147h-401v115h-8q-34 -55 -99 -94.5t-157 -40.5h-9zM172 1247q0 138 56 203.5t151 65.5q55 0 141.5 -30t118.5 -30q18 0 22.5 15t4.5 61h190q1 -76 -15.5 -135.5
t-60 -99.5t-110.5 -40q-70 0 -155.5 33t-111.5 33q-25 0 -34 -18t-7 -58h-190z" />
    <glyph glyph-name="Umacron" unicode="&#x16a;" horiz-adv-x="1138" 
d="M543 -25q-126 0 -216 22t-156 73t-98 139t-32 217v1008h459v-1037q0 -82 78 -82q33 0 51 21.5t18 60.5v1037h451v-1008q0 -128 -32.5 -217t-98.5 -139.5t-153.5 -72.5t-209.5 -22h-61zM268 1542v213h619v-213h-619z" />
    <glyph glyph-name="umacron" unicode="&#x16b;" horiz-adv-x="1032" 
d="M317 -20q-127 0 -201.5 74.5t-74.5 230.5v862h418v-772q0 -28 15 -45t42 -17t42 17t15 45v772h418v-1147h-401v115h-8q-34 -55 -99 -94.5t-157 -40.5h-9zM233 1255v213h566v-213h-566z" />
    <glyph glyph-name="Ubreve" unicode="&#x16c;" horiz-adv-x="1138" 
d="M543 -25q-126 0 -216 22t-156 73t-98 139t-32 217v1008h459v-1037q0 -82 78 -82q33 0 51 21.5t18 60.5v1037h451v-1008q0 -128 -32.5 -217t-98.5 -139.5t-153.5 -72.5t-209.5 -22h-61zM274 1755h220q2 -40 19 -60t65 -20q49 0 67.5 20.5t20.5 59.5h215q0 -231 -303 -231
q-304 0 -304 231z" />
    <glyph glyph-name="ubreve" unicode="&#x16d;" horiz-adv-x="1032" 
d="M317 -20q-127 0 -201.5 74.5t-74.5 230.5v862h418v-772q0 -28 15 -45t42 -17t42 17t15 45v772h418v-1147h-401v115h-8q-34 -55 -99 -94.5t-157 -40.5h-9zM219 1497h207q4 -45 21 -67.5t69 -22.5q53 0 71.5 23t20.5 67h205q0 -123 -78.5 -185.5t-218.5 -62.5
q-138 0 -217.5 62.5t-79.5 185.5z" />
    <glyph glyph-name="Uring" unicode="&#x16e;" horiz-adv-x="1138" 
d="M543 -25q-126 0 -216 22t-156 73t-98 139t-32 217v1008h459v-1037q0 -82 78 -82q33 0 51 21.5t18 60.5v1037h451v-1008q0 -128 -32.5 -217t-98.5 -139.5t-153.5 -72.5t-209.5 -22h-61zM397 1686q0 74 53 126t128 52q74 0 127 -52.5t53 -125.5q0 -75 -53 -129t-127 -54
q-75 0 -128 54t-53 129zM502 1686q0 -32 22.5 -55t53.5 -23q32 0 53.5 22.5t21.5 55.5q0 31 -21.5 53t-53.5 22q-31 0 -53.5 -22t-22.5 -53z" />
    <glyph glyph-name="uring" unicode="&#x16f;" horiz-adv-x="1032" 
d="M317 -20q-127 0 -201.5 74.5t-74.5 230.5v862h418v-772q0 -28 15 -45t42 -17t42 17t15 45v772h418v-1147h-401v115h-8q-34 -55 -99 -94.5t-157 -40.5h-9zM336 1427q0 74 52.5 126.5t127.5 52.5q74 0 127 -53t53 -126q0 -75 -53 -128.5t-127 -53.5q-75 0 -127.5 53.5
t-52.5 128.5zM440 1427q0 -32 22.5 -54.5t53.5 -22.5q32 0 54 22.5t22 54.5q0 31 -22 53.5t-54 22.5q-31 0 -53.5 -22.5t-22.5 -53.5z" />
    <glyph glyph-name="Uhungarumlaut" unicode="&#x170;" horiz-adv-x="1138" 
d="M543 -25q-126 0 -216 22t-156 73t-98 139t-32 217v1008h459v-1037q0 -82 78 -82q33 0 51 21.5t18 60.5v1037h451v-1008q0 -128 -32.5 -217t-98.5 -139.5t-153.5 -72.5t-209.5 -22h-61zM281 1522l57 231h301l-100 -231h-258zM618 1522l97 231h313l-156 -231h-254z" />
    <glyph glyph-name="uhungarumlaut" unicode="&#x171;" horiz-adv-x="1032" 
d="M317 -20q-127 0 -201.5 74.5t-74.5 230.5v862h418v-772q0 -28 15 -45t42 -17t42 17t15 45v772h418v-1147h-401v115h-8q-34 -55 -99 -94.5t-157 -40.5h-9zM254 1255l37 242h268l-74 -242h-231zM559 1255l68 242h254l-86 -242h-236z" />
    <glyph glyph-name="Uogonek" unicode="&#x172;" horiz-adv-x="1138" 
d="M670 -307q-91 0 -144 41.5t-53 107.5q0 70 66 133q-125 0 -214.5 22t-154.5 73.5t-97 139.5t-32 216v1008h459v-1037q0 -82 78 -82q33 0 51 21.5t18 60.5v1037h451v-1008q0 -186 -69 -287.5t-204 -138.5h-2q-21 -6 -65 -14q-52 -15 -80.5 -41.5t-28.5 -59.5q0 -37 58 -37
q50 0 96 17l47 -139q-82 -33 -180 -33z" />
    <glyph glyph-name="uogonek" unicode="&#x173;" horiz-adv-x="1032" 
d="M317 -20q-127 0 -201.5 74.5t-74.5 230.5v862h418v-772q0 -28 15 -45t42 -17t42 17t15 45v772h418v-1147q-82 -10 -129 -41.5t-47 -73.5q0 -21 14 -29t43 -8q51 0 97 17l47 -139q-82 -33 -180 -33q-91 0 -144 41.5t-53 107.5q0 89 96 158h-145v115h-8q-34 -55 -99 -94.5
t-157 -40.5h-9z" />
    <glyph glyph-name="Wcircumflex" unicode="&#x174;" horiz-adv-x="1736" 
d="M205 0l-180 1434h444l57 -955h11l106 955h455l90 -955h10l80 955h434l-203 -1434h-540l-64 604l-31 324h-8l-39 -324l-77 -604h-545zM528 1522l160 233h379l154 -233h-293l-60 116l-63 -116h-277z" />
    <glyph glyph-name="wcircumflex" unicode="&#x175;" horiz-adv-x="1556" 
d="M162 0l-133 1147h389l26 -514l13 -303h14l27 303l80 514h417l70 -447l35 -370h14l21 370l28 447h365l-133 -1147h-531l-53 510l-16 223h-13l-20 -221l-64 -512h-536zM422 1255l172 242h379l170 -242h-305l-60 121l-69 -121h-287z" />
    <glyph glyph-name="Ycircumflex" unicode="&#x176;" horiz-adv-x="1171" 
d="M356 0v426l-340 1008h482l61 -412l31 -213h6l29 213l55 412h475l-340 -1008v-426h-459zM240 1522l159 233h379l154 -233h-293l-59 116l-64 -116h-276z" />
    <glyph glyph-name="ycircumflex" unicode="&#x177;" horiz-adv-x="1081" 
d="M401 -246l52 246h-224l-204 1147h436l61 -594l19 -291h10l20 291l58 594h428l-242 -1393h-414zM180 1255l172 242h379l170 -242h-305l-59 121l-70 -121h-287z" />
    <glyph glyph-name="Ydieresis" unicode="&#x178;" horiz-adv-x="1171" 
d="M356 0v426l-340 1008h482l61 -412l31 -213h6l29 213l55 412h475l-340 -1008v-426h-459zM203 1522v233h336v-233h-336zM633 1522v233h336v-233h-336z" />
    <glyph glyph-name="Zacute" unicode="&#x179;" horiz-adv-x="1019" 
d="M23 0v242l409 864h-371v328h883v-312l-371 -794h410v-328h-960zM358 1522l84 233h379l-164 -233h-299z" />
    <glyph glyph-name="zacute" unicode="&#x17a;" horiz-adv-x="892" 
d="M37 0v354l340 465h-318v328h783v-328l-348 -491h362v-328h-819zM291 1255l104 242h385l-182 -242h-307z" />
    <glyph glyph-name="Zdotaccent" unicode="&#x17b;" horiz-adv-x="1019" 
d="M23 0v242l409 864h-371v328h883v-312l-371 -794h410v-328h-960zM348 1522v233h311v-233h-311z" />
    <glyph glyph-name="zdotaccent" unicode="&#x17c;" horiz-adv-x="892" 
d="M37 0v354l340 465h-318v328h783v-328l-348 -491h362v-328h-819zM270 1255v242h353v-242h-353z" />
    <glyph glyph-name="Zcaron" unicode="&#x17d;" horiz-adv-x="1019" 
d="M23 0v242l409 864h-371v328h883v-312l-371 -794h410v-328h-960zM158 1755h293l59 -117l63 117h277l-160 -233h-379z" />
    <glyph glyph-name="zcaron" unicode="&#x17e;" horiz-adv-x="892" 
d="M37 0v354l340 465h-318v328h783v-328l-348 -491h362v-328h-819zM86 1497h305l60 -121l69 121h287l-172 -242h-379z" />
    <glyph glyph-name="florin" unicode="&#x192;" horiz-adv-x="716" 
d="M262 -250q-88 0 -186 4v219h16q22 0 31.5 9.5t9.5 33.5v652h-96v315h96v188q0 275 328 275q135 0 219 -12v-271h-96q-22 0 -31.5 -8t-9.5 -31v-141h137v-315h-137v-695q0 -48 -11.5 -85t-41 -70t-87 -50.5t-141.5 -17.5z" />
    <glyph glyph-name="AEacute" unicode="&#x1fc;" horiz-adv-x="1564" 
d="M37 0l287 1434h1169v-328h-383v-188h369v-349h-369v-229h414v-340h-873v244h-147l-37 -244h-430zM547 522h104v645h-6zM684 1522l84 233h379l-164 -233h-299z" />
    <glyph glyph-name="aeacute" unicode="&#x1fd;" horiz-adv-x="1548" 
d="M346 -20q-71 0 -126.5 19t-89 49.5t-55.5 73t-30 84t-8 87.5v92q0 138 67.5 209.5t204.5 97.5l219 41q15 2 23.5 5.5t15 15t6.5 30.5v74q0 60 -55 60q-59 0 -59 -60v-74h-371v74q0 309 387 309h111q133 0 207 -32q85 32 213 32h73q221 0 324.5 -107t103.5 -347v-232h-512
v-155q0 -32 13.5 -47t46.5 -15q35 0 49 15t14 47v82h393v-19q0 -216 -106 -312.5t-328 -96.5h-51q-244 0 -346 161q-33 -79 -120 -120t-202 -41h-12zM449 352q0 -63 61 -63t61 57v148l-75 -21q-27 -8 -37 -23.5t-10 -50.5v-47zM621 1255l104 242h385l-182 -242h-307z
M995 725h119v109q0 61 -59 61q-60 0 -60 -61v-109z" />
    <glyph glyph-name="Oslashacute" unicode="&#x1fe;" horiz-adv-x="1155" 
d="M92 -66l82 158q-137 125 -137 393v463q0 264 130.5 387t379.5 123h61q152 0 254 -41l41 80h160l-80 -156q135 -126 135 -393v-463q0 -265 -130 -387.5t-380 -122.5h-61q-150 0 -252 41l-43 -82h-160zM432 1522l84 233h379l-164 -233h-299zM500 387q0 -80 78 -80
q41 0 59 20t18 60v326l-155 -301v-25zM500 719l155 301v27q0 40 -18 59.5t-59 19.5q-42 0 -60 -19.5t-18 -59.5v-328z" />
    <glyph glyph-name="oslashacute" unicode="&#x1ff;" horiz-adv-x="1036" 
d="M57 -51l88 143q-108 117 -108 340v285q0 236 116 345t339 109h53q144 0 237 -41l39 62h158l-86 -139q106 -112 106 -336v-285q0 -237 -115.5 -347t-340.5 -110h-51q-143 0 -236 41l-41 -67h-158zM365 1260l104 241h385l-182 -241h-307zM459 330q0 -32 14 -47t47 -15
q31 0 44.5 15t13.5 47v209l-119 -193v-16zM459 602l119 193v22q0 62 -58 62q-61 0 -61 -62v-215z" />
    <glyph glyph-name="uni0218" unicode="&#x218;" horiz-adv-x="1122" 
d="M483 -25q-87 0 -156 12t-114.5 31t-78.5 48t-50.5 56.5t-27.5 64.5t-12.5 63.5t-2.5 60.5v170h444v-129q0 -71 78 -71q33 0 51.5 18t18.5 53v84q0 45 -20 68.5t-76 38.5l-207 55q-154 40 -220.5 131t-66.5 246v115q0 59 9 107.5t36 98.5t71 84t120 56t178 22h192
q102 0 177.5 -21.5t118.5 -55.5t69 -83.5t34.5 -95.5t8.5 -102v-103h-432v82q0 86 -76 86q-34 0 -51 -21t-17 -54v-33q0 -98 84 -117l217 -47q154 -33 226.5 -123t72.5 -264v-94q0 -62 -8 -113.5t-27.5 -103t-55.5 -90t-88.5 -68.5t-131 -46t-178.5 -16h-109zM401 -371v88
h54q71 0 95.5 9.5t24.5 42.5v8h-174v143h349v-131q0 -83 -76.5 -121.5t-200.5 -38.5h-72z" />
    <glyph glyph-name="uni0219" unicode="&#x219;" horiz-adv-x="1015" 
d="M449 -25q-404 0 -404 291v115h389v-72q0 -61 68 -61q28 0 44.5 15t16.5 42v39q0 37 -18.5 58t-65.5 28l-205 33q-133 22 -187 96.5t-54 204.5v61q0 58 20.5 114t64 109t125.5 86t191 33h105q110 0 192 -24.5t126.5 -66t65.5 -89t21 -100.5v-92h-381v51q0 55 -63 55
q-64 0 -64 -55v-21q0 -65 84 -80l201 -34q132 -23 193 -97t61 -215v-55q0 -59 -12 -110t-43.5 -100t-80.5 -83t-129 -55t-184 -21h-77zM358 -315v71h45q61 0 81 7t20 34v6h-146v117h312v-106q0 -129 -252 -129h-60z" />
    <glyph glyph-name="uni021A" unicode="&#x21a;" horiz-adv-x="1024" 
d="M283 0v1106h-246v328h950v-328h-246v-1106h-458zM346 -371v88h53q71 0 96 10t25 42v8h-174v143h348v-131q0 -83 -76 -121.5t-200 -38.5h-72z" />
    <glyph glyph-name="uni021B" unicode="&#x21b;" horiz-adv-x="778" 
d="M422 -4q-155 0 -226 57.5t-71 210.5v545h-88v338h117v168h381v-168h202v-338h-202v-385v-5q0 -18 1.5 -28t7.5 -24.5t23.5 -21.5t44.5 -7h105v-338q-160 -4 -295 -4zM297 -315v71h45q61 0 80.5 7t19.5 34v6h-145v117h311v-106q0 -129 -252 -129h-59z" />
    <glyph glyph-name="uni0237" unicode="&#x237;" horiz-adv-x="499" 
d="M178 -250q-96 0 -194 4v199h16q22 0 31.5 9.5t9.5 33.5v1151h418v-1174q0 -48 -11.5 -85t-41 -70t-87 -50.5t-141.5 -17.5z" />
    <glyph glyph-name="circumflex" unicode="&#x2c6;" horiz-adv-x="901" 
d="M90 1255l172 242h379l170 -242h-305l-60 121l-69 -121h-287z" />
    <glyph glyph-name="caron" unicode="&#x2c7;" horiz-adv-x="901" 
d="M260 1255l-170 242h305l60 -121l69 121h287l-172 -242h-379z" />
    <glyph glyph-name="breve" unicode="&#x2d8;" horiz-adv-x="774" 
d="M387 1249q-138 0 -217.5 62.5t-79.5 185.5h207q4 -45 21 -67.5t69 -22.5q53 0 71.5 23t20.5 67h205q0 -123 -78.5 -185.5t-218.5 -62.5z" />
    <glyph glyph-name="dotaccent" unicode="&#x2d9;" horiz-adv-x="532" 
d="M90 1255v242h352v-242h-352z" />
    <glyph glyph-name="ring" unicode="&#x2da;" horiz-adv-x="540" 
d="M270 1245q-75 0 -127.5 53.5t-52.5 128.5q0 74 52.5 126.5t127.5 52.5q74 0 127.5 -53t53.5 -126q0 -75 -53.5 -128.5t-127.5 -53.5zM195 1427q0 -32 22 -54.5t53 -22.5q32 0 54 22.5t22 54.5q0 31 -22 53.5t-54 22.5q-31 0 -53 -22.5t-22 -53.5z" />
    <glyph glyph-name="ogonek" unicode="&#x2db;" horiz-adv-x="557" 
d="M283 -307q-91 0 -144 41.5t-53 107.5q0 81 84.5 148.5t235.5 99.5l32 -90q-82 -10 -129 -41.5t-47 -73.5q0 -21 14 -29t43 -8q51 0 97 17l47 -139q-82 -33 -180 -33z" />
    <glyph glyph-name="tilde" unicode="&#x2dc;" horiz-adv-x="864" 
d="M90 1247q0 138 56 203.5t151 65.5q55 0 141.5 -30t118.5 -30q18 0 22.5 15t4.5 61h190q1 -76 -15.5 -135.5t-60 -99.5t-110.5 -40q-70 0 -155 33t-111 33q-25 0 -34 -18t-7 -58h-191z" />
    <glyph glyph-name="hungarumlaut" unicode="&#x2dd;" horiz-adv-x="806" 
d="M395 1255l68 242h254l-86 -242h-236zM90 1255l37 242h268l-73 -242h-232z" />
    <glyph glyph-name="gravecomb" unicode="&#x300;" 
d="M272 1255l-182 242h385l105 -242h-308z" />
    <glyph glyph-name="acutecomb" unicode="&#x301;" 
d="M90 1255l105 242h385l-183 -242h-307z" />
    <glyph glyph-name="uni0302" unicode="&#x302;" 
d="M90 1255l172 242h379l170 -242h-305l-60 121l-69 -121h-287z" />
    <glyph glyph-name="tildecomb" unicode="&#x303;" 
d="M94 1247q0 138 56 203.5t151 65.5q55 0 141.5 -30t118.5 -30q18 0 22.5 15t4.5 61h190q1 -76 -15.5 -135.5t-60 -99.5t-110.5 -40q-70 0 -155 33t-111 33q-25 0 -34 -18t-7 -58h-191z" />
    <glyph glyph-name="uni0304" unicode="&#x304;" 
d="M90 1255v213h565v-213h-565z" />
    <glyph glyph-name="uni0306" unicode="&#x306;" 
d="M387 1249q-138 0 -217.5 62.5t-79.5 185.5h207q4 -45 21 -67.5t69 -22.5q53 0 71.5 23t20.5 67h205q0 -123 -78.5 -185.5t-218.5 -62.5z" />
    <glyph glyph-name="uni0307" unicode="&#x307;" 
d="M90 1255v242h352v-242h-352z" />
    <glyph glyph-name="uni0308" unicode="&#x308;" 
d="M90 1255v242h311v-242h-311zM487 1255v242h308v-242h-308z" />
    <glyph glyph-name="uni030A" unicode="&#x30a;" 
d="M254 1245q-75 0 -127.5 53.5t-52.5 128.5q0 74 52.5 126.5t127.5 52.5q74 0 127 -53t53 -126q0 -75 -53 -128.5t-127 -53.5zM178 1427q0 -32 22.5 -54.5t53.5 -22.5q32 0 54 22.5t22 54.5q0 31 -22 53.5t-54 22.5q-31 0 -53.5 -22.5t-22.5 -53.5z" />
    <glyph glyph-name="uni030B" unicode="&#x30b;" 
d="M395 1255l68 242h254l-86 -242h-236zM90 1255l37 242h268l-73 -242h-232z" />
    <glyph glyph-name="uni030C" unicode="&#x30c;" 
d="M260 1255l-170 242h305l60 -121l69 121h287l-172 -242h-379z" />
    <glyph glyph-name="uni0312" unicode="&#x312;" 
d="M94 1384q0 91 71 136t224 45h55v-84h-55q-34 0 -57 -3.5t-34.5 -8t-17 -14.5t-6 -15.5t-0.5 -18.5v-6h172v-160h-352v129z" />
    <glyph glyph-name="uni0313" unicode="&#x313;" 
d="M90 1114v96h47q47 0 66.5 10.5t19.5 45.5v10h-133v158h283v-144q0 -90 -63.5 -133t-155.5 -43h-64z" />
    <glyph glyph-name="uni0326" unicode="&#x326;" 
d="M90 -315v71h45q61 0 81 7t20 34v6h-146v117h311v-106q0 -129 -251 -129h-60z" />
    <glyph glyph-name="uni0327" unicode="&#x327;" 
d="M299 -281q-206 0 -209 127h141q0 -21 19 -33t49 -12q59 0 59 35q0 45 -118 45l36 139h89l-23 -77q166 -9 166 -105q0 -55 -54.5 -87t-154.5 -32z" />
    <glyph glyph-name="uni0328" unicode="&#x328;" 
d="M287 -307q-91 0 -144 41.5t-53 107.5q0 81 84.5 148.5t235.5 99.5l32 -90q-82 -10 -129 -41.5t-47 -73.5q0 -37 58 -37q50 0 96 17l47 -139q-82 -33 -180 -33z" />
    <glyph glyph-name="uni0394" unicode="&#x394;" horiz-adv-x="1171" 
d="M41 0v150l195 1284h702l192 -1284v-150h-1089zM500 299h143l-37 440l-35 408h-8l-31 -412z" />
    <glyph glyph-name="uni0394" unicode="&#x3b4;" horiz-adv-x="1171" 
d="M41 0v150l195 1284h702l192 -1284v-150h-1089zM500 299h143l-37 440l-35 408h-8l-31 -412z" />
    <glyph glyph-name="uni03A9" unicode="&#x3a9;" horiz-adv-x="1155" 
d="M78 0v330h252v30q-126 0 -209.5 98.5t-83.5 303.5v188q0 263 130.5 385.5t379.5 122.5h61q250 0 380 -122.5t130 -385.5v-186q0 -96 -27.5 -175t-71.5 -127t-95 -74t-101 -26v-32h252v-330h-461v303q28 23 34.5 65t6.5 150v529q0 40 -18 59.5t-59 19.5q-42 0 -60 -19.5
t-18 -59.5v-529v-38.5v-35.5t0.5 -29.5t1.5 -27.5t2.5 -21.5t5 -20t7.5 -16t10 -15.5t14 -11v-303h-463z" />
    <glyph glyph-name="uni03A9" unicode="&#x3c9;" horiz-adv-x="1155" 
d="M78 0v330h252v30q-126 0 -209.5 98.5t-83.5 303.5v188q0 263 130.5 385.5t379.5 122.5h61q250 0 380 -122.5t130 -385.5v-186q0 -96 -27.5 -175t-71.5 -127t-95 -74t-101 -26v-32h252v-330h-461v303q28 23 34.5 65t6.5 150v529q0 40 -18 59.5t-59 19.5q-42 0 -60 -19.5
t-18 -59.5v-529v-38.5v-35.5t0.5 -29.5t1.5 -27.5t2.5 -21.5t5 -20t7.5 -16t10 -15.5t14 -11v-303h-463z" />
    <glyph glyph-name="uni03BC" unicode="&#x3bc;" horiz-adv-x="1105" 
d="M41 -246v1393h416v-782q0 -40 13.5 -56t43.5 -16t43.5 16t13.5 56v782h418v-805q0 -39 39 -39h37v-303h-201q-83 0 -127 28.5t-57 96.5h-8q-11 -57 -51 -96t-93 -39q-104 0 -143 100h-25l25 -336h-344z" />
    <glyph glyph-name="pi" unicode="&#x3c0;" horiz-adv-x="1175" 
d="M102 0q42 422 52 844h-117l37 303h1065v-303h-107v-486q0 -44 10 -61.5t41 -17.5h43v-279h-264q-62 0 -102.5 13t-70 46t-43 91.5t-13.5 148.5v545h-109q-1 -232 -13.5 -482.5t-27.5 -361.5h-381z" />
    <glyph glyph-name="Wgrave" unicode="&#x1e80;" horiz-adv-x="1736" 
d="M205 0l-180 1434h444l57 -955h11l106 955h455l90 -955h10l80 955h434l-203 -1434h-540l-64 604l-31 324h-8l-39 -324l-77 -604h-545zM557 1755h379l84 -233h-299z" />
    <glyph glyph-name="wgrave" unicode="&#x1e81;" horiz-adv-x="1556" 
d="M162 0l-133 1147h389l26 -514l13 -303h14l27 303l80 514h417l70 -447l35 -370h14l21 370l28 447h365l-133 -1147h-531l-53 510l-16 223h-13l-20 -221l-64 -512h-536zM449 1497h385l104 -242h-307z" />
    <glyph glyph-name="Wacute" unicode="&#x1e82;" horiz-adv-x="1736" 
d="M205 0l-180 1434h444l57 -955h11l106 955h455l90 -955h10l80 955h434l-203 -1434h-540l-64 604l-31 324h-8l-39 -324l-77 -604h-545zM729 1522l84 233h379l-164 -233h-299z" />
    <glyph glyph-name="wacute" unicode="&#x1e83;" horiz-adv-x="1556" 
d="M162 0l-133 1147h389l26 -514l13 -303h14l27 303l80 514h417l70 -447l35 -370h14l21 370l28 447h365l-133 -1147h-531l-53 510l-16 223h-13l-20 -221l-64 -512h-536zM627 1255l104 242h385l-182 -242h-307z" />
    <glyph glyph-name="Wdieresis" unicode="&#x1e84;" horiz-adv-x="1736" 
d="M205 0l-180 1434h444l57 -955h11l106 955h455l90 -955h10l80 955h434l-203 -1434h-540l-64 604l-31 324h-8l-39 -324l-77 -604h-545zM492 1522v233h335v-233h-335zM922 1522v233h335v-233h-335z" />
    <glyph glyph-name="wdieresis" unicode="&#x1e85;" horiz-adv-x="1556" 
d="M162 0l-133 1147h389l26 -514l13 -303h14l27 303l80 514h417l70 -447l35 -370h14l21 370l28 447h365l-133 -1147h-531l-53 510l-16 223h-13l-20 -221l-64 -512h-536zM428 1255v242h311v-242h-311zM825 1255v242h308v-242h-308z" />
    <glyph glyph-name="uni1E9E" unicode="&#x1e9e;" horiz-adv-x="1171" 
d="M41 0v1434h657q402 0 402 -344v-64q0 -126 -60 -199.5t-139 -91.5v-6q128 -20 181 -97t53 -233v-55q0 -185 -81 -264.5t-237 -79.5h-250v309h19q29 0 47.5 8.5t25 24.5t8 26t1.5 26v5v80q0 42 -17 62t-57 20h-23v313h13q38 0 53.5 19.5t15.5 60.5v72q0 76 -82 76h-71
v-1102h-459z" />
    <glyph glyph-name="Ygrave" unicode="&#x1ef2;" horiz-adv-x="1171" 
d="M356 0v426l-340 1008h482l61 -412l31 -213h6l29 213l55 412h475l-340 -1008v-426h-459zM268 1755h379l84 -233h-299z" />
    <glyph glyph-name="ygrave" unicode="&#x1ef3;" horiz-adv-x="1081" 
d="M401 -246l52 246h-224l-204 1147h436l61 -594l19 -291h10l20 291l58 594h428l-242 -1393h-414zM207 1497h385l104 -242h-307z" />
    <glyph glyph-name="endash" unicode="&#x2013;" horiz-adv-x="829" 
d="M41 457v258h747v-258h-747z" />
    <glyph glyph-name="emdash" unicode="&#x2014;" horiz-adv-x="1503" 
d="M41 457v258h1421v-258h-1421z" />
    <glyph glyph-name="quoteleft" unicode="&#x2018;" horiz-adv-x="481" 
d="M440 1434v-148h-57q-77 0 -104 -16t-27 -70v-37h188v-348h-399v348q0 141 86 206t235 65h78z" />
    <glyph glyph-name="quoteright" unicode="&#x2019;" horiz-adv-x="481" 
d="M41 815v148h57q77 0 104 16t27 70v36h-188v349h399v-349q0 -141 -86 -205.5t-235 -64.5h-78z" />
    <glyph glyph-name="quotesinglbase" unicode="&#x201a;" horiz-adv-x="481" 
d="M41 -270v147h57q77 0 104 16t27 70v37h-188v348h399v-348q0 -141 -86 -205.5t-235 -64.5h-78z" />
    <glyph glyph-name="quotedblleft" unicode="&#x201c;" horiz-adv-x="964" 
d="M440 1434v-148h-57q-77 0 -104 -16t-27 -70v-37h188v-348h-399v348q0 141 86 206t235 65h78zM524 815v348q0 141 86.5 206t235.5 65h78v-148h-58q-77 0 -104 -16t-27 -70v-37h189v-348h-400z" />
    <glyph glyph-name="quotedblright" unicode="&#x201d;" horiz-adv-x="964" 
d="M41 815v148h57q77 0 104 16t27 70v36h-188v349h399v-349q0 -141 -86 -205.5t-235 -64.5h-78zM524 815v148h58q77 0 104 16t27 70v36h-189v349h400v-349q0 -141 -86.5 -205.5t-235.5 -64.5h-78z" />
    <glyph glyph-name="quotedblbase" unicode="&#x201e;" horiz-adv-x="964" 
d="M524 -270v147h58q77 0 104 16t27 70v37h-189v348h400v-348q0 -141 -86.5 -205.5t-235.5 -64.5h-78zM41 -270v147h57q77 0 104 16t27 70v37h-188v348h399v-348q0 -141 -86 -205.5t-235 -64.5h-78z" />
    <glyph glyph-name="dagger" unicode="&#x2020;" horiz-adv-x="765" 
d="M250 373v598h-213v239h213v224h266v-224h213v-239h-213v-598h-266z" />
    <glyph glyph-name="daggerdbl" unicode="&#x2021;" horiz-adv-x="765" 
d="M250 373v217h-213v239h213v142h-213v239h213v224h266v-224h213v-239h-213v-142h213v-239h-213v-217h-266z" />
    <glyph glyph-name="bullet" unicode="&#x2022;" horiz-adv-x="831" 
d="M414 201q-152 0 -260.5 108.5t-108.5 261.5q0 152 108.5 261.5t260.5 109.5q154 0 263 -109t109 -262q0 -154 -109 -262t-263 -108z" />
    <glyph glyph-name="ellipsis" unicode="&#x2026;" horiz-adv-x="1474" 
d="M539 0v348h399v-348h-399zM41 0v348h399v-348h-399zM1034 0v348h400v-348h-400z" />
    <glyph glyph-name="perthousand" unicode="&#x2030;" horiz-adv-x="2113" 
d="M1757 -25q-278 0 -278 289v189q0 149 69 218.5t207 69.5h43q139 0 209 -69.5t70 -218.5v-189q0 -150 -69 -219.5t-212 -69.5h-39zM37 979v188q0 150 69 219.5t207 69.5h43q139 0 209 -69.5t70 -219.5v-188q0 -150 -69 -219.5t-212 -69.5h-39q-278 0 -278 289zM297 913
q0 -41 41 -41q21 0 29 10t8 31v322q0 37 -37 37q-41 0 -41 -37v-322zM354 0l547 1434h195l-547 -1434h-195zM815 264v189q0 149 69.5 218.5t207.5 69.5h43q139 0 208.5 -69t69.5 -219v-189q0 -151 -68.5 -220t-211.5 -69h-39q-279 0 -279 289zM1075 199q0 -41 41 -41
q21 0 29 10t8 31v321q0 37 -37 37q-41 0 -41 -37v-321zM1739 199q0 -41 41 -41q21 0 29 10t8 31v321q0 37 -37 37q-41 0 -41 -37v-321z" />
    <glyph glyph-name="minute" unicode="&#x2032;" horiz-adv-x="573" 
d="M45 815l115 619h368l-131 -619h-352z" />
    <glyph glyph-name="second" unicode="&#x2033;" horiz-adv-x="1024" 
d="M496 815l114 619h369l-131 -619h-352zM45 815l115 619h368l-131 -619h-352z" />
    <glyph glyph-name="guilsinglleft" unicode="&#x2039;" horiz-adv-x="499" 
d="M152 143l-115 416v29l121 416h305l-127 -433l117 -428h-301z" />
    <glyph glyph-name="guilsinglright" unicode="&#x203a;" horiz-adv-x="499" 
d="M348 143h-301l117 428l-127 433h305l121 -416v-29z" />
    <glyph glyph-name="fraction" unicode="&#x2044;" horiz-adv-x="233" 
d="M-246 0l547 1434h178l-549 -1434h-176z" />
    <glyph glyph-name="uni2070" unicode="&#x2070;" horiz-adv-x="671" 
d="M315 786q-278 0 -278 289v189q0 149 69 218.5t207 69.5h43q139 0 209 -69.5t70 -218.5v-189q0 -150 -69 -219.5t-212 -69.5h-39zM297 1010q0 -41 41 -41q21 0 29 10t8 31v321q0 37 -37 37q-41 0 -41 -37v-321z" />
    <glyph glyph-name="uni2074" unicode="&#x2074;" horiz-adv-x="684" 
d="M322 811v143h-285v164l166 422h366v-422h78v-164h-78v-143h-247zM221 1118h101v285h-9q-30 -103 -37 -123z" />
    <glyph glyph-name="uni2075" unicode="&#x2075;" horiz-adv-x="667" 
d="M319 799q-148 0 -215 55t-67 137v43h252v-33q0 -17 11.5 -27.5t31.5 -10.5q19 0 30 11.5t11 26.5v111q0 45 -45 45q-41 0 -41 -43v-18h-246v444h545v-178h-299v-117h4q55 60 139 60h10q55 0 94.5 -18t59.5 -48.5t28.5 -63.5t8.5 -71v-74q0 -113 -65.5 -172t-213.5 -59
h-33z" />
    <glyph glyph-name="uni2076" unicode="&#x2076;" horiz-adv-x="667" 
d="M299 795q-262 0 -262 276v219q0 40 7.5 75.5t26.5 70.5t49.5 60t80.5 40.5t114 15.5h47q136 0 195 -64t59 -161v-12h-237v16q0 45 -41 45q-43 0 -43 -45v-104h4q26 24 54 36.5t77 12.5h8q98 0 145.5 -51.5t47.5 -141.5v-36q0 -115 -61 -183.5t-191 -68.5h-80zM295 1008
q0 -43 37 -43q41 0 41 43v77q0 21 -8.5 32t-32.5 11q-37 0 -37 -43v-77z" />
    <glyph glyph-name="uni2077" unicode="&#x2077;" horiz-adv-x="647" 
d="M121 811l207 545h-287v184h565v-172l-205 -557h-280z" />
    <glyph glyph-name="uni2078" unicode="&#x2078;" horiz-adv-x="671" 
d="M299 799q-75 0 -130 18t-82 47.5t-38.5 58.5t-11.5 60v25q0 65 35.5 117t115.5 69v4q-64 4 -97.5 45t-33.5 111v18q0 38 10.5 67.5t36 56.5t76 41.5t123.5 14.5h51q129 0 193.5 -41.5t64.5 -138.5v-35q0 -52 -31 -93t-98 -46v-4q71 -13 111.5 -62t40.5 -118v-23
q0 -34 -11.5 -64.5t-38.5 -61t-82 -48.5t-132 -18h-72zM299 987q0 -35 35 -35q37 0 37 35v96q0 37 -37 37q-35 0 -35 -37v-96zM299 1307q0 -37 35 -37q39 0 39 37v71q0 35 -35 35q-39 0 -39 -35v-71z" />
    <glyph glyph-name="uni2079" unicode="&#x2079;" horiz-adv-x="667" 
d="M305 795q-71 0 -123.5 19t-81 51.5t-42 71t-13.5 83.5v22h244v-26q0 -45 41 -45q43 0 43 45v114h-4q-28 -25 -57.5 -37t-82.5 -12h-10q-94 0 -138 51.5t-44 141.5v26q0 115 61 183.5t191 68.5h67q144 0 209.5 -75.5t65.5 -200.5v-219q0 -51 -13 -94.5t-42.5 -83
t-86.5 -62t-137 -22.5h-47zM295 1272q0 -21 8.5 -32t32.5 -11q37 0 37 43v67q0 43 -37 43q-41 0 -41 -43v-67z" />
    <glyph glyph-name="uni2080" unicode="&#x2080;" horiz-adv-x="671" 
d="M315 -229q-137 0 -207.5 69.5t-70.5 218.5v189q0 150 69 219.5t207 69.5h43q139 0 209 -69.5t70 -219.5v-189q0 -150 -69 -219t-212 -69h-39zM297 -6q0 -41 41 -41q21 0 29 10t8 31v321q0 37 -37 37q-41 0 -41 -37v-321z" />
    <glyph glyph-name="uni2081" unicode="&#x2081;" horiz-adv-x="495" 
d="M131 -205v479h-90v146q117 0 123 104h233v-729h-266z" />
    <glyph glyph-name="uni2082" unicode="&#x2082;" horiz-adv-x="655" 
d="M37 -41q0 83 28 131.5t107 85.5l150 70q51 25 51 67v27q0 19 -11.5 29t-27.5 10q-23 0 -31 -11t-8 -32v-57h-244v36q0 109 59 165.5t203 56.5h54q124 0 187.5 -43.5t63.5 -147.5v-49q0 -72 -31.5 -114t-123.5 -87l-133 -65q-21 -10 -28 -19.5t-7 -27.5v-11h315v-178h-573
v164z" />
    <glyph glyph-name="uni2083" unicode="&#x2083;" horiz-adv-x="667" 
d="M301 -217q-264 0 -264 184v74h252v-61q0 -37 41 -37q22 0 30.5 8.5t8.5 28.5v71q0 53 -62 53h-117v152h117q24 0 35 2t19 12.5t8 32.5v47q0 35 -39 35t-39 -35v-45h-244v33q0 199 250 199h61q73 0 126.5 -16t81 -42.5t40 -55t12.5 -58.5v-39q0 -57 -36.5 -96.5
t-102.5 -45.5v-2q69 -6 110.5 -42.5t41.5 -104.5v-62q0 -97 -74.5 -143.5t-185.5 -46.5h-70z" />
    <glyph glyph-name="uni2084" unicode="&#x2084;" horiz-adv-x="684" 
d="M322 -205v144h-285v163l166 422h366v-422h78v-163h-78v-144h-247zM221 102h101v285h-9q-30 -102 -37 -123z" />
    <glyph glyph-name="uni2085" unicode="&#x2085;" horiz-adv-x="667" 
d="M319 -217q-148 0 -215 55t-67 137v43h252v-32q0 -18 11.5 -28.5t31.5 -10.5q19 0 30 12t11 27v110q0 45 -45 45q-41 0 -41 -43v-18h-246v444h545v-178h-299v-117h4q55 60 139 60h10q55 0 94.5 -18t59.5 -48.5t28.5 -63.5t8.5 -71v-74q0 -113 -65.5 -172t-213.5 -59h-33z
" />
    <glyph glyph-name="uni2086" unicode="&#x2086;" horiz-adv-x="667" 
d="M299 -221q-262 0 -262 276v219q0 51 12.5 94.5t42 83t86.5 62.5t137 23h47q136 0 195 -64.5t59 -161.5v-12h-237v16q0 45 -41 45q-43 0 -43 -45v-104h4q26 24 54 36.5t77 12.5h8q98 0 145.5 -51t47.5 -141v-37q0 -115 -61 -183.5t-191 -68.5h-80zM295 -8q0 -43 37 -43
q41 0 41 43v78q0 21 -8.5 32t-32.5 11q-37 0 -37 -43v-78z" />
    <glyph glyph-name="uni2087" unicode="&#x2087;" horiz-adv-x="647" 
d="M121 -205l207 545h-287v184h565v-172l-205 -557h-280z" />
    <glyph glyph-name="uni2088" unicode="&#x2088;" horiz-adv-x="671" 
d="M299 -217q-75 0 -130 18t-82 47.5t-38.5 58.5t-11.5 60v25q0 65 35.5 117t115.5 69v4q-64 4 -97.5 45t-33.5 111v18q0 38 10.5 67.5t36 56.5t76 42t123.5 15h51q129 0 193.5 -41.5t64.5 -139.5v-34q0 -52 -31 -93.5t-98 -46.5v-4q71 -13 111.5 -62t40.5 -118v-23
q0 -34 -11.5 -64.5t-38.5 -61t-82 -48.5t-132 -18h-72zM299 -29q0 -18 7.5 -26t27.5 -8q37 0 37 34v97q0 36 -37 36q-35 0 -35 -36v-97zM299 291q0 -37 35 -37q39 0 39 37v71q0 35 -35 35q-39 0 -39 -35v-71z" />
    <glyph glyph-name="uni2089" unicode="&#x2089;" horiz-adv-x="667" 
d="M305 -221q-71 0 -123.5 19t-81 51.5t-42 71t-13.5 83.5v23h244v-27q0 -45 41 -45q43 0 43 45v115h-4q-28 -25 -57.5 -37t-82.5 -12h-10q-94 0 -138 51t-44 141v27q0 115 61 183.5t191 68.5h67q98 0 161 -38t88.5 -98t25.5 -141v-219q0 -51 -13 -94.5t-42.5 -83t-86.5 -62
t-137 -22.5h-47zM295 256q0 -21 8.5 -32t32.5 -11q37 0 37 43v68q0 43 -37 43q-41 0 -41 -43v-68z" />
    <glyph glyph-name="Euro" unicode="&#x20ac;" horiz-adv-x="1191" 
d="M649 -25q-250 0 -379.5 121t-128.5 385v29h-104v176h106v80h-106v176h108v90q3 426 482 426h69q211 0 330 -110t119 -324v-31h-397v58q0 41 -15.5 60t-56.5 19t-57.5 -19.5t-16.5 -59.5v-109h285v-176h-285v-80h285v-176h-285v-127q0 -40 17.5 -60t58.5 -20q74 0 74 80
v57h403v-30q0 -435 -444 -435h-62z" />
    <glyph glyph-name="uni2113" unicode="&#x2113;" horiz-adv-x="782" 
d="M418 -14q-159 0 -221 87t-62 263v59l-52.5 -31.5t-45.5 -27.5v184q47 29 98 64v442q0 201 86.5 310.5t249.5 109.5q125 0 199.5 -71.5t74.5 -217.5q0 -285 -313 -551v-176q0 -120 18.5 -158.5t73.5 -38.5q76 0 94 154l123 -25q-19 -168 -98.5 -272t-224.5 -104zM432 844
q125 158 125 321q0 58 -12.5 85.5t-46.5 27.5q-66 0 -66 -139v-295z" />
    <glyph glyph-name="uni2117" unicode="&#x2117;" horiz-adv-x="1265" 
d="M635 -55q-282 0 -434 198t-152 559q0 359 153 556.5t433 197.5t431 -196.5t151 -557.5q0 -360 -151.5 -558.5t-430.5 -198.5zM141 702q0 -330 127 -498.5t367 -168.5q239 0 364 169t125 498t-123 496.5t-366 167.5q-244 0 -369 -167t-125 -497zM315 199v1003h430
q83 0 137.5 -19t85.5 -62t43.5 -101t12.5 -146v-55q0 -60 -4.5 -103t-20 -87.5t-42 -72t-73 -45t-110.5 -17.5h-147v-295h-312zM627 723h43q57 0 57 53v142q0 53 -57 53h-43v-248z" />
    <glyph glyph-name="trademark" unicode="&#x2122;" horiz-adv-x="1069" 
d="M489 901v533h218l53 -234h4l59 234h209v-533h-164v285h-4l-71 -285h-66l-74 285h-4v-285h-160zM37 1298v136h403v-136h-114v-397h-174v397h-115z" />
    <glyph glyph-name="uni2126" unicode="&#x2126;" horiz-adv-x="1155" 
d="M78 0v330h252v30q-126 0 -209.5 98.5t-83.5 303.5v188q0 263 130.5 385.5t379.5 122.5h61q250 0 380 -122.5t130 -385.5v-186q0 -96 -27.5 -175t-71.5 -127t-95 -74t-101 -26v-32h252v-330h-461v303q28 23 34.5 65t6.5 150v529q0 40 -18 59.5t-59 19.5q-42 0 -60 -19.5
t-18 -59.5v-529v-38.5v-35.5t0.5 -29.5t1.5 -27.5t2.5 -21.5t5 -20t7.5 -16t10 -15.5t14 -11v-303h-463z" />
    <glyph glyph-name="estimated" unicode="&#x212e;" horiz-adv-x="1122" 
d="M602 -20q-137 0 -244.5 44t-174 122t-100.5 178.5t-34 218.5q0 180 61 321t182 224t286 83q107 0 191.5 -32.5t139 -86t91 -129t52 -155.5t17.5 -172h-668v-475q85 -45 203 -45q143 0 251 65t155 162l63 -41q-58 -134 -183.5 -208t-287.5 -74zM401 686h328v350
q-56 41 -158 41q-94 0 -170 -39v-352z" />
    <glyph glyph-name="uni2153" unicode="&#x2153;" horiz-adv-x="1396" 
d="M131 705v479h-90v145q117 0 123 105h233v-729h-266zM250 0l547 1434h178l-549 -1434h-176zM766 172v74h252v-62q0 -37 41 -37q22 0 30.5 8.5t8.5 28.5v72q0 53 -62 53h-116v152h116q24 0 35 2t19 12.5t8 32.5v47q0 35 -39 35t-39 -35v-45h-244v33q0 198 250 198h61
q73 0 126.5 -16t81.5 -42.5t40.5 -55t12.5 -58.5v-39q0 -57 -37 -96t-103 -45v-2q69 -6 110.5 -42.5t41.5 -104.5v-62q0 -97 -74.5 -143.5t-185.5 -46.5h-70q-264 0 -264 184z" />
    <glyph glyph-name="uni2154" unicode="&#x2154;" horiz-adv-x="1556" 
d="M37 868q0 83 28 131.5t107 85.5l150 70q51 25 51 68v26q0 19 -11.5 29t-27.5 10q-23 0 -31 -11t-8 -32v-57h-244v37q0 109 58.5 165t203.5 56h54q124 0 187.5 -43.5t63.5 -147.5v-49q0 -72 -31.5 -113.5t-123.5 -86.5l-133 -66q-21 -10 -28 -19.5t-7 -27.5v-10h315v-178
h-573v163zM410 0l546 1434h179l-549 -1434h-176zM926 172v74h252v-62q0 -37 41 -37q22 0 30 8.5t8 28.5v72q0 31 -16 42t-45 11h-117v152h117q24 0 35 2t18.5 12.5t7.5 32.5v47q0 35 -38 35q-39 0 -39 -35v-45h-244v33q0 198 250 198h61q73 0 126.5 -16t81 -42.5t40 -55
t12.5 -58.5v-39q0 -57 -36.5 -96t-102.5 -45v-2q69 -6 110.5 -42.5t41.5 -104.5v-62q0 -97 -74.5 -143.5t-185.5 -46.5h-70q-264 0 -264 184z" />
    <glyph glyph-name="oneeighth" unicode="&#x215b;" horiz-adv-x="1400" 
d="M131 705v479h-90v145q117 0 123 105h233v-729h-266zM250 0l547 1434h178l-549 -1434h-176zM766 172v25q0 64 35.5 116.5t116.5 69.5v4q-64 4 -98 45t-34 111v18q0 38 10.5 67.5t36 56.5t76 41.5t123.5 14.5h51q129 0 193.5 -41.5t64.5 -138.5v-35q0 -52 -31 -93t-98 -46
v-4q71 -13 111.5 -62t40.5 -118v-23q0 -34 -11.5 -64.5t-38.5 -61t-82 -48.5t-132 -18h-72q-75 0 -130 18t-82 47.5t-38.5 58.5t-11.5 60zM1028 176q0 -35 35 -35q37 0 37 35v96q0 37 -37 37q-35 0 -35 -37v-96zM1028 496q0 -37 35 -37q39 0 39 37v71q0 35 -35 35
q-39 0 -39 -35v-71z" />
    <glyph glyph-name="fiveeighths" unicode="&#x215d;" horiz-adv-x="1572" 
d="M319 692q-148 0 -215 55.5t-67 137.5v43h252v-33q0 -18 11.5 -28.5t31.5 -10.5q19 0 30 12t11 27v111q0 45 -45 45q-41 0 -41 -43v-19h-246v445h545v-179h-299v-116h4q54 59 139 59h10q55 0 94.5 -18t59.5 -48.5t28.5 -63.5t8.5 -71v-73q0 -113 -65.5 -172.5
t-213.5 -59.5h-33zM422 0l547 1434h178l-549 -1434h-176zM938 172v25q0 64 35.5 116.5t116.5 69.5v4q-64 4 -98 45t-34 111v18q0 38 10.5 67.5t36 56.5t76 41.5t123.5 14.5h51q129 0 193.5 -41.5t64.5 -138.5v-35q0 -52 -31 -93t-98 -46v-4q71 -13 111.5 -62t40.5 -118v-23
q0 -34 -11.5 -64.5t-38.5 -61t-82 -48.5t-132 -18h-72q-75 0 -130 18t-82 47.5t-38.5 58.5t-11.5 60zM1200 176q0 -35 35 -35q37 0 37 35v96q0 37 -37 37q-35 0 -35 -37v-96zM1200 496q0 -37 35 -37q39 0 39 37v71q0 35 -35 35q-39 0 -39 -35v-71z" />
    <glyph glyph-name="seveneighths" unicode="&#x215e;" horiz-adv-x="1552" 
d="M121 705l207 544h-287v185h565v-172l-205 -557h-280zM401 0l547 1434h178l-548 -1434h-177zM918 172v25q0 65 35.5 117t115.5 69v4q-64 4 -97.5 45t-33.5 111v18q0 38 10.5 67.5t36 56.5t76 41.5t123.5 14.5h51q129 0 193.5 -41.5t64.5 -138.5v-35q0 -52 -31 -93t-98 -46
v-4q71 -13 111.5 -62t40.5 -118v-23q0 -34 -11.5 -64.5t-39 -61t-82.5 -48.5t-132 -18h-71q-75 0 -130 18t-82 47.5t-38.5 58.5t-11.5 60zM1180 176q0 -18 7.5 -26.5t26.5 -8.5q37 0 37 35v96q0 37 -37 37q-34 0 -34 -37v-96zM1180 496q0 -37 34 -37q39 0 39 37v71
q0 35 -34 35q-39 0 -39 -35v-71z" />
    <glyph glyph-name="arrowleft" unicode="&#x2190;" horiz-adv-x="1478" 
d="M762 0h-391l-412 578l412 569h389l-328 -422h965v-297h-965z" />
    <glyph glyph-name="arrowup" unicode="&#x2191;" horiz-adv-x="1228" 
d="M463 0v965l-422 -328v389l569 412l578 -412v-391l-428 330v-965h-297z" />
    <glyph glyph-name="arrowright" unicode="&#x2192;" horiz-adv-x="1560" 
d="M717 0l330 428h-965v297h965l-328 422h389l412 -569l-412 -578h-391z" />
    <glyph glyph-name="arrowdown" unicode="&#x2193;" horiz-adv-x="1228" 
d="M463 1434h297v-965l428 330v-391l-578 -412l-569 412v389l422 -328v965z" />
    <glyph glyph-name="partialdiff" unicode="&#x2202;" horiz-adv-x="1032" 
d="M444 -25q-106 0 -185.5 31.5t-127.5 90t-71 135t-23 171.5v238q0 152 77 240t232 88q61 0 105.5 -13t66.5 -28t51 -43h4v192q0 76 -63 76q-30 0 -48 -19.5t-18 -56.5v-39h-399v31q0 187 99.5 288t324.5 101h76q450 0 450 -420v-598q0 -465 -426 -465h-125zM461 344
q0 -31 15 -49.5t44 -18.5q58 0 58 68v252q0 68 -58 68q-32 0 -45.5 -17t-13.5 -51v-252z" />
    <glyph glyph-name="uni2206" unicode="&#x2206;" horiz-adv-x="1171" 
d="M41 0v150l195 1284h702l192 -1284v-150h-1089zM500 299h143l-37 440l-35 408h-8l-31 -412z" />
    <glyph glyph-name="product" unicode="&#x220f;" horiz-adv-x="1343" 
d="M143 -205v1325h-102v314h1262v-314h-103v-1325h-459v1325h-139v-1325h-459z" />
    <glyph glyph-name="summation" unicode="&#x2211;" horiz-adv-x="966" 
d="M41 -205v256l297 592l-301 551v240h891v-316h-406l236 -411v-117l-254 -479h426v-316h-889z" />
    <glyph glyph-name="minus" unicode="&#x2212;" horiz-adv-x="913" 
d="M41 383v266h831v-266h-831z" />
    <glyph glyph-name="radical" unicode="&#x221a;" horiz-adv-x="1273" 
d="M356 0l-194 731h-125v246h465l94 -420h14l205 877h422v-254h-231l-293 -1180h-357z" />
    <glyph glyph-name="infinity" unicode="&#x221e;" horiz-adv-x="1064" 
d="M764 229q-124 0 -240 177q-135 -175 -245 -175q-103 0 -166.5 80.5t-63.5 202.5q0 120 69.5 204.5t172.5 84.5q73 0 128 -43t118 -129q131 170 254 170q99 0 162 -76.5t63 -200.5q0 -125 -70.5 -210t-181.5 -85zM188 518q0 -96 97 -96q43 0 80.5 22.5t78.5 73.5
q-40 53 -75 73.5t-84 20.5q-45 0 -71 -26t-26 -68zM623 514q66 -94 151 -94q49 0 76 26.5t27 69.5q0 48 -25 71t-78 23q-38 0 -73 -21.5t-78 -74.5z" />
    <glyph glyph-name="integral" unicode="&#x222b;" horiz-adv-x="598" 
d="M223 -250q-88 0 -186 4v219h16q22 0 31.5 9.5t9.5 33.5v1198q0 48 11.5 85t41 70t87 51t141.5 18q88 0 186 -4v-220h-16q-22 0 -31.5 -9.5t-9.5 -33.5v-1198q0 -48 -11.5 -85t-41 -70t-87 -50.5t-141.5 -17.5z" />
    <glyph glyph-name="approxequal" unicode="&#x2248;" horiz-adv-x="925" 
d="M41 195q0 154 66.5 231.5t191.5 77.5q70 0 168 -29t143 -29q60 0 66 76h209q-14 -327 -244 -327q-67 0 -128 16.5t-110 32.5t-86 16q-31 0 -49 -18t-18 -47h-209zM41 580q0 154 66.5 231.5t191.5 77.5q70 0 168 -29t143 -29q60 0 66 76h209q-14 -327 -244 -327
q-67 0 -128 16t-110 32.5t-86 16.5q-31 0 -49 -18t-18 -47h-209z" />
    <glyph glyph-name="notequal" unicode="&#x2260;" horiz-adv-x="913" 
d="M199 96l37 92h-195v267h301l49 123h-350v266h457l37 90h182l-37 -90h192v-266h-299l-49 -123h348v-267h-456l-37 -92h-180z" />
    <glyph glyph-name="lessequal" unicode="&#x2264;" horiz-adv-x="913" 
d="M41 0v266h831v-266h-831zM41 662v245l831 269v-256l-469 -136l469 -135v-258z" />
    <glyph glyph-name="greaterequal" unicode="&#x2265;" horiz-adv-x="911" 
d="M41 0v266h831v-266h-831zM41 391v258l469 135l-469 136v256l831 -269v-245z" />
    <glyph glyph-name="filledbox" unicode="&#x25a0;" horiz-adv-x="1150" 
d="M61 0v1434h1029v-1434h-1029z" />
    <glyph glyph-name="uni25A1" unicode="&#x25a1;" horiz-adv-x="1150" 
d="M61 0v1434h1029v-1434h-1029zM313 227h523v975h-523v-975z" />
    <glyph glyph-name="uni25AA" unicode="&#x25aa;" horiz-adv-x="1019" 
d="M61 0v1147h897v-1147h-897z" />
    <glyph glyph-name="uni25AB" unicode="&#x25ab;" horiz-adv-x="1019" 
d="M61 0v1147h897v-1147h-897zM305 229h410v695h-410v-695z" />
    <glyph glyph-name="lozenge" unicode="&#x25ca;" horiz-adv-x="876" 
d="M360 0l-319 676v51l315 707h166l314 -707v-51l-316 -676h-160zM287 707l145 -320h23l139 309l-148 332h-22z" />
    <glyph glyph-name="i.loclTRK" horiz-adv-x="499" 
d="M41 0v1147h418v-1147h-418zM41 1235v199h418v-199h-418z" />
    <glyph glyph-name="r.ss01" horiz-adv-x="1007" 
d="M41 0v1147h401v-115h9q32 55 96 94t153 39h15q117 0 186.5 -74t69.5 -229v-319h-398v229q0 28 -15 45t-42 17t-42 -17t-15 -45v-772h-418z" />
    <glyph glyph-name="racute.ss01" horiz-adv-x="1007" 
d="M41 0v1147h401v-115h9q32 55 96 94t153 39h15q117 0 186.5 -74t69.5 -229v-319h-398v229q0 28 -15 45t-42 17t-42 -17t-15 -45v-772h-418zM287 1255l104 242h385l-182 -242h-307z" />
    <glyph glyph-name="rcaron.ss01" horiz-adv-x="1007" 
d="M41 0v1147h401v-115h9q32 55 96 94t153 39h15q117 0 186.5 -74t69.5 -229v-319h-398v229q0 28 -15 45t-42 17t-42 -17t-15 -45v-772h-418zM82 1497h305l59 -121l70 121h287l-172 -242h-379z" />
    <glyph glyph-name="uni0157.ss01" horiz-adv-x="1007" 
d="M41 0v1147h401v-115h9q32 55 96 94t153 39h15q117 0 186.5 -74t69.5 -229v-319h-398v229q0 28 -15 45t-42 17t-42 -17t-15 -45v-772h-418zM115 -315v71h45q61 0 80.5 7t19.5 34v6h-145v117h311v-106q0 -129 -252 -129h-59z" />
    <glyph glyph-name="zero.zero" horiz-adv-x="1060" 
d="M457 -25q-216 0 -318 127.5t-102 384.5v445q0 134 19.5 228t66 164t128.5 104t202 34h137q232 0 333 -132t101 -398v-445q0 -107 -11 -184t-39.5 -141.5t-77.5 -104t-125 -61t-181 -21.5h-133zM463 365q0 -70 67 -70q68 0 68 70v223l-135 -72v-151zM463 846l135 74v153
q0 70 -68 70q-67 0 -67 -70v-227z" />
    <glyph glyph-name="zero.ss02" horiz-adv-x="1253" 
d="M606 330q-137 0 -207.5 69.5t-70.5 218.5v189q0 150 69 219.5t207 69.5h43q139 0 209 -69.5t70 -219.5v-189q0 -150 -69 -219t-212 -69h-39zM41 715q0 376 157 570t429 194t428.5 -194t156.5 -570q0 -378 -156.5 -574t-428.5 -196t-429 196.5t-157 573.5zM135 715
q0 -346 129 -517t363 -171t362.5 171t128.5 517q0 343 -128.5 511.5t-362.5 168.5q-233 0 -362.5 -168.5t-129.5 -511.5zM588 553q0 -41 41 -41q21 0 29 10t8 31v321q0 37 -37 37q-41 0 -41 -37v-321z" />
    <glyph glyph-name="one.ss02" horiz-adv-x="1253" 
d="M500 348v479h-90v146q116 0 122 104h234v-729h-266zM41 715q0 376 157 570t429 194t428.5 -194t156.5 -570q0 -378 -156.5 -574t-428.5 -196t-429 196.5t-157 573.5zM135 715q0 -346 129 -517t363 -171t362.5 171t128.5 517q0 343 -128.5 511.5t-362.5 168.5
q-233 0 -362.5 -168.5t-129.5 -511.5z" />
    <glyph glyph-name="two.ss02" horiz-adv-x="1253" 
d="M336 506q0 83 28 131.5t107 85.5l150 70q51 25 51 67v27q0 19 -11.5 29t-27.5 10q-23 0 -31 -11t-8 -32v-58h-244v37q0 109 58.5 165t203.5 56h54q124 0 188 -43t64 -147v-49q0 -72 -32 -114t-124 -87l-133 -65q-21 -10 -28 -20t-7 -28v-10h315v-178h-573v164zM41 715
q0 376 157 570t429 194t428.5 -194t156.5 -570q0 -378 -156.5 -574t-428.5 -196t-429 196.5t-157 573.5zM135 715q0 -346 129 -517t363 -171t362.5 171t128.5 517q0 343 -128.5 511.5t-362.5 168.5q-233 0 -362.5 -168.5t-129.5 -511.5z" />
    <glyph glyph-name="three.ss02" horiz-adv-x="1253" 
d="M594 336q-264 0 -264 184v74h252v-62q0 -36 41 -36q23 0 31 8t8 28v72q0 53 -62 53h-117v152h117q24 0 35 2t19 12.5t8 32.5v47q0 35 -39 35t-39 -35v-45h-244v33q0 199 250 199h61q73 0 126.5 -16t81 -42.5t40 -55t12.5 -58.5v-39q0 -57 -36.5 -96.5t-102.5 -45.5v-2
q69 -6 110.5 -42.5t41.5 -104.5v-62q0 -97 -74.5 -143.5t-185.5 -46.5h-70zM41 715q0 376 157 570t429 194t428.5 -194t156.5 -570q0 -378 -156.5 -574t-428.5 -196t-429 196.5t-157 573.5zM135 715q0 -346 129 -517t363 -171t362.5 171t128.5 517q0 343 -128.5 511.5
t-362.5 168.5q-233 0 -362.5 -168.5t-129.5 -511.5z" />
    <glyph glyph-name="four.ss02" horiz-adv-x="1253" 
d="M614 322v143h-284v164l166 422h366v-422h78v-164h-78v-143h-248zM41 715q0 376 157 570t429 194t428.5 -194t156.5 -570q0 -378 -156.5 -574t-428.5 -196t-429 196.5t-157 573.5zM135 715q0 -346 129 -517t363 -171t362.5 171t128.5 517q0 343 -128.5 511.5t-362.5 168.5
q-233 0 -362.5 -168.5t-129.5 -511.5zM514 629h100v284h-8q-28 -95 -37 -122z" />
    <glyph glyph-name="five.ss02" horiz-adv-x="1253" 
d="M612 342q-148 0 -215 55.5t-67 137.5v43h252v-33q0 -18 11.5 -28.5t31.5 -10.5q19 0 30 12t11 27v110q0 45 -45 45q-41 0 -41 -43v-18h-246v444h545v-178h-299v-117h4q55 60 139 60h10q55 0 94.5 -18t59.5 -48.5t28.5 -63.5t8.5 -71v-74q0 -113 -65.5 -172t-213.5 -59
h-33zM41 715q0 376 157 570t429 194t428.5 -194t156.5 -570q0 -378 -156.5 -574t-428.5 -196t-429 196.5t-157 573.5zM135 715q0 -346 129 -517t363 -171t362.5 171t128.5 517q0 343 -128.5 511.5t-362.5 168.5q-233 0 -362.5 -168.5t-129.5 -511.5z" />
    <glyph glyph-name="six.ss02" horiz-adv-x="1253" 
d="M592 334q-262 0 -262 276v219q0 51 12.5 94.5t42 83t86.5 62.5t137 23h47q136 0 195 -64.5t59 -161.5v-12h-237v16q0 45 -41 45q-43 0 -43 -45v-104h4q26 24 54 36.5t77 12.5h8q98 0 145.5 -51t47.5 -141v-37q0 -115 -61 -183.5t-191 -68.5h-80zM41 715q0 376 157 570
t429 194t428.5 -194t156.5 -570q0 -378 -156.5 -574t-428.5 -196t-429 196.5t-157 573.5zM135 715q0 -346 129 -517t363 -171t362.5 171t128.5 517q0 343 -128.5 511.5t-362.5 168.5q-233 0 -362.5 -168.5t-129.5 -511.5zM588 547q0 -43 37 -43q41 0 41 43v78q0 21 -8.5 32
t-32.5 11q-37 0 -37 -43v-78z" />
    <glyph glyph-name="seven.ss02" horiz-adv-x="1253" 
d="M424 346l207 545h-287v184h565v-172l-204 -557h-281zM41 715q0 376 157 570t429 194t428.5 -194t156.5 -570q0 -378 -156.5 -574t-428.5 -196t-429 196.5t-157 573.5zM135 715q0 -346 129 -517t363 -171t362.5 171t128.5 517q0 343 -128.5 511.5t-362.5 168.5
q-233 0 -362.5 -168.5t-129.5 -511.5z" />
    <glyph glyph-name="eight.ss02" horiz-adv-x="1253" 
d="M590 336q-75 0 -130 18t-82 47.5t-38.5 58.5t-11.5 60v25q0 65 35.5 117t115.5 69v4q-64 4 -97.5 45t-33.5 111v18q0 38 10.5 67.5t36 56.5t76 42t123.5 15h51q129 0 193.5 -41.5t64.5 -139.5v-35q0 -52 -31 -93t-98 -46v-4q71 -13 111.5 -62t40.5 -118v-23
q0 -34 -11.5 -64.5t-38.5 -61t-82 -48.5t-132 -18h-72zM41 715q0 376 157 570t429 194t428.5 -194t156.5 -570q0 -378 -156.5 -574t-428.5 -196t-429 196.5t-157 573.5zM135 715q0 -346 129 -517t363 -171t362.5 171t128.5 517q0 343 -128.5 511.5t-362.5 168.5
q-233 0 -362.5 -168.5t-129.5 -511.5zM590 524q0 -35 35 -35q37 0 37 35v97q0 36 -37 36q-35 0 -35 -36v-97zM590 844q0 -37 35 -37q39 0 39 37v71q0 35 -35 35q-39 0 -39 -35v-71z" />
    <glyph glyph-name="nine.ss02" horiz-adv-x="1253" 
d="M598 334q-71 0 -123.5 19t-81 51.5t-42 71t-13.5 83.5v23h244v-27q0 -45 41 -45q43 0 43 45v115h-4q-28 -25 -57.5 -37t-82.5 -12h-10q-94 0 -138 51t-44 141v27q0 115 61 183.5t191 68.5h67q98 0 161 -38t88.5 -98t25.5 -141v-219q0 -51 -13 -94.5t-42.5 -83t-86.5 -62
t-137 -22.5h-47zM41 715q0 376 157 570t429 194t428.5 -194t156.5 -570q0 -378 -156.5 -574t-428.5 -196t-429 196.5t-157 573.5zM135 715q0 -346 129 -517t363 -171t362.5 171t128.5 517q0 343 -128.5 511.5t-362.5 168.5q-233 0 -362.5 -168.5t-129.5 -511.5zM588 811
q0 -21 8.5 -32t32.5 -11q37 0 37 43v68q0 43 -37 43q-41 0 -41 -43v-68z" />
    <glyph glyph-name="zero.ss03" horiz-adv-x="1253" 
d="M602 330q-137 0 -207.5 69.5t-70.5 218.5v189q0 150 69 219.5t207 69.5h43q139 0 209 -69.5t70 -219.5v-189q0 -150 -69 -219t-212 -69h-39zM41 715q0 -377 157 -573.5t429 -196.5t428.5 196t156.5 574q0 376 -156.5 570t-428.5 194t-429 -194t-157 -570zM584 553
q0 -41 41 -41q21 0 29 10t8 31v321q0 37 -37 37q-41 0 -41 -37v-321z" />
    <glyph glyph-name="one.ss03" horiz-adv-x="1253" 
d="M494 348v479h-91v146q117 0 123 104h234v-729h-266zM41 715q0 -377 157 -573.5t429 -196.5t428.5 196t156.5 574q0 376 -156.5 570t-428.5 194t-429 -194t-157 -570z" />
    <glyph glyph-name="two.ss03" horiz-adv-x="1253" 
d="M336 506q0 83 28 131.5t107 85.5l150 70q51 25 51 67v27q0 19 -11.5 29t-27.5 10q-23 0 -31 -11t-8 -32v-58h-244v37q0 109 58.5 165t203.5 56h54q124 0 188 -43t64 -147v-49q0 -72 -32 -114t-124 -87l-133 -65q-21 -10 -28 -20t-7 -28v-10h315v-178h-573v164zM41 715
q0 -377 157 -573.5t429 -196.5t428.5 196t156.5 574q0 376 -156.5 570t-428.5 194t-429 -194t-157 -570z" />
    <glyph glyph-name="three.ss03" horiz-adv-x="1253" 
d="M594 336q-264 0 -264 184v74h252v-62q0 -36 41 -36q23 0 31 8t8 28v72q0 53 -62 53h-117v152h117q24 0 35 2t19 12.5t8 32.5v47q0 35 -39 35t-39 -35v-45h-244v33q0 199 250 199h61q73 0 126.5 -16t81 -42.5t40 -55t12.5 -58.5v-39q0 -57 -36.5 -96.5t-102.5 -45.5v-2
q69 -6 110.5 -42.5t41.5 -104.5v-62q0 -97 -74.5 -143.5t-185.5 -46.5h-70zM41 715q0 -377 157 -573.5t429 -196.5t428.5 196t156.5 574q0 376 -156.5 570t-428.5 194t-429 -194t-157 -570z" />
    <glyph glyph-name="four.ss03" horiz-adv-x="1253" 
d="M606 348v144h-284v163l165 422h367v-422h78v-163h-78v-144h-248zM41 715q0 -377 157 -573.5t429 -196.5t428.5 196t156.5 574q0 376 -156.5 570t-428.5 194t-429 -194t-157 -570zM506 655h100v285h-8q-30 -103 -37 -123z" />
    <glyph glyph-name="five.ss03" horiz-adv-x="1253" 
d="M612 342q-148 0 -215 55.5t-67 137.5v43h252v-33q0 -18 11.5 -28.5t31.5 -10.5q19 0 30 12t11 27v110q0 45 -45 45q-41 0 -41 -43v-18h-246v444h545v-178h-299v-117h4q55 60 139 60h10q55 0 94.5 -18t59.5 -48.5t28.5 -63.5t8.5 -71v-74q0 -113 -65.5 -172t-213.5 -59
h-33zM41 715q0 -377 157 -573.5t429 -196.5t428.5 196t156.5 574q0 376 -156.5 570t-428.5 194t-429 -194t-157 -570z" />
    <glyph glyph-name="six.ss03" horiz-adv-x="1253" 
d="M592 334q-262 0 -262 276v219q0 51 12.5 94.5t42 83t86.5 62.5t137 23h47q136 0 195 -64.5t59 -161.5v-12h-237v16q0 45 -41 45q-43 0 -43 -45v-104h4q26 24 54 36.5t77 12.5h8q98 0 145.5 -51t47.5 -141v-37q0 -115 -61 -183.5t-191 -68.5h-80zM41 715
q0 -377 157 -573.5t429 -196.5t428.5 196t156.5 574q0 376 -156.5 570t-428.5 194t-429 -194t-157 -570zM588 547q0 -43 37 -43q41 0 41 43v78q0 21 -8.5 32t-32.5 11q-37 0 -37 -43v-78z" />
    <glyph glyph-name="seven.ss03" horiz-adv-x="1253" 
d="M424 348l207 545h-287v184h565v-172l-204 -557h-281zM41 715q0 -377 157 -573.5t429 -196.5t428.5 196t156.5 574q0 376 -156.5 570t-428.5 194t-429 -194t-157 -570z" />
    <glyph glyph-name="eight.ss03" horiz-adv-x="1253" 
d="M590 336q-75 0 -130 18t-82 47.5t-38.5 58.5t-11.5 60v25q0 65 35.5 117t115.5 69v4q-64 4 -97.5 45t-33.5 111v18q0 38 10.5 67.5t36 56.5t76 42t123.5 15h51q129 0 193.5 -41.5t64.5 -139.5v-35q0 -52 -31 -93t-98 -46v-4q71 -13 111.5 -62t40.5 -118v-23
q0 -34 -11.5 -64.5t-38.5 -61t-82 -48.5t-132 -18h-72zM41 715q0 -377 157 -573.5t429 -196.5t428.5 196t156.5 574q0 376 -156.5 570t-428.5 194t-429 -194t-157 -570zM590 524q0 -35 35 -35q37 0 37 35v97q0 36 -37 36q-35 0 -35 -36v-97zM590 844q0 -37 35 -37
q39 0 39 37v71q0 35 -35 35q-39 0 -39 -35v-71z" />
    <glyph glyph-name="nine.ss03" horiz-adv-x="1253" 
d="M598 334q-71 0 -123.5 19t-81 51.5t-42 71t-13.5 83.5v23h244v-27q0 -45 41 -45q43 0 43 45v115h-4q-28 -25 -57.5 -37t-82.5 -12h-10q-94 0 -138 51t-44 141v27q0 115 61 183.5t191 68.5h67q98 0 161 -38t88.5 -98t25.5 -141v-219q0 -51 -13 -94.5t-42.5 -83t-86.5 -62
t-137 -22.5h-47zM41 715q0 -377 157 -573.5t429 -196.5t428.5 196t156.5 574q0 376 -156.5 570t-428.5 194t-429 -194t-157 -570zM588 811q0 -21 8.5 -32t32.5 -11q37 0 37 43v68q0 43 -37 43q-41 0 -41 -43v-68z" />
    <glyph glyph-name="zero.tf" horiz-adv-x="1064" 
d="M459 -25q-216 0 -318 127.5t-102 384.5v445q0 134 19.5 228t66 164t128.5 104t202 34h137q232 0 333 -132t101 -398v-445q0 -107 -11 -184t-39.5 -141.5t-77.5 -104t-125 -61t-181 -21.5h-133zM465 365q0 -70 67 -70q68 0 68 70v708q0 70 -68 70q-67 0 -67 -70v-708z" />
    <glyph glyph-name="one.tf" horiz-adv-x="1064" 
d="M334 0v952h-176v283q228 0 237 201h377v-1436h-438z" />
    <glyph glyph-name="two.tf" horiz-adv-x="1064" 
d="M55 293q0 179 45.5 278.5t175.5 173.5l244 140q86 50 86 133v51q0 74 -65 74q-66 0 -66 -82v-125h-395v84q0 104 20.5 181t68.5 137t132.5 90t206.5 30h90q201 0 306.5 -87.5t105.5 -291.5v-123q0 -139 -52 -219.5t-204 -173.5l-215 -131q-38 -23 -51 -40.5t-13 -51.5
v-18h520v-322h-940v293z" />
    <glyph glyph-name="three.tf" horiz-adv-x="1064" 
d="M479 -25q-432 0 -432 363v145h397v-123q0 -73 68 -73q34 0 48.5 18t14.5 55v144q0 59 -28 81.5t-76 22.5h-174v297h174q59 0 81.5 15.5t22.5 76.5v90q0 74 -63 74t-63 -74v-86h-388v64q0 393 410 393h102q97 0 173 -21.5t122.5 -55.5t77 -80t42 -89.5t11.5 -89.5v-80
q0 -111 -60.5 -188.5t-166.5 -87.5v-6q112 -11 179 -82.5t67 -206.5v-123q0 -80 -23.5 -144t-63 -106t-94 -70.5t-114.5 -40.5t-127 -12h-117z" />
    <glyph glyph-name="four.tf" horiz-adv-x="1064" 
d="M516 0v324h-506v325l273 789h647v-803h125v-311h-125v-324h-414zM350 635h166v532h-4q-35 -167 -92 -331z" />
    <glyph glyph-name="five.tf" horiz-adv-x="1064" 
d="M506 -20q-123 0 -216.5 34.5t-144 90.5t-74.5 117.5t-24 125.5v113h422v-99q0 -77 63 -77q28 0 43 23.5t15 53.5v248q0 82 -72 82q-27 0 -44 -19.5t-17 -56.5v-34h-404v852h883v-312h-479v-202h12q37 56 87.5 86t135.5 30h6q73 0 130 -24t92 -62.5t57.5 -91.5t31.5 -106
t9 -111v-231q0 -218 -108 -324t-353 -106h-51z" />
    <glyph glyph-name="six.tf" horiz-adv-x="1064" 
d="M479 -25q-426 0 -426 465v598q0 69 12 127.5t44 114t81.5 94t129.5 61.5t184 23h76q225 0 324.5 -101t99.5 -288v-51h-400v59q0 37 -17.5 56.5t-47.5 19.5q-64 0 -64 -76v-213h4q29 28 51 43t66.5 28t105.5 13q156 0 233 -88t77 -239v-218q0 -95 -23.5 -171.5t-71 -135
t-127.5 -90t-186 -31.5h-125zM471 344q0 -68 57 -68q29 0 44.5 18.5t15.5 49.5v231q0 68 -60 68q-57 0 -57 -68v-231z" />
    <glyph glyph-name="seven.tf" horiz-adv-x="1064" 
d="M217 0l291 1118h-377v316h803v-291l-268 -1143h-449z" />
    <glyph glyph-name="eight.tf" horiz-adv-x="1064" 
d="M473 -25q-99 0 -176.5 24.5t-123.5 62.5t-75.5 88.5t-40 97t-10.5 94.5v47q0 59 12 113t39 105.5t77 89.5t118 55v8q-102 9 -157.5 90.5t-55.5 218.5v37q0 58 9.5 105.5t36 95t70 79.5t115.5 52t168 20h82q211 0 317.5 -81t106.5 -271v-70q0 -46 -11.5 -90t-35.5 -84.5
t-66.5 -68t-99.5 -33.5v-8q114 -26 180 -121t66 -230v-47q0 -52 -10 -100.5t-39.5 -100.5t-75 -90.5t-123 -63t-178.5 -24.5h-119zM471 975q0 -70 61 -70q62 0 62 70v141q0 70 -59 70q-64 0 -64 -70v-141zM473 350q0 -35 13 -52t46 -17q60 0 60 69v189q0 69 -60 69
q-59 0 -59 -69v-189z" />
    <glyph glyph-name="nine.tf" horiz-adv-x="1064" 
d="M465 -20q-115 0 -195 27.5t-125 81t-64.5 122.5t-19.5 162v112h400v-120q0 -37 17.5 -56.5t47.5 -19.5q64 0 64 76v274h-4q-30 -44 -80 -64t-144 -20q-157 0 -233 80t-76 229v193q0 405 408 405h125q426 0 426 -477v-582q0 -69 -12 -127.5t-44 -114.5t-81.5 -95
t-129.5 -62.5t-184 -23.5h-96zM477 928q0 -68 60 -68q57 0 57 68v166q0 67 -57 67q-60 0 -60 -67v-166z" />
    <glyph glyph-name="zero.zero.tf" horiz-adv-x="1064" 
d="M459 -25q-216 0 -318 127.5t-102 384.5v445q0 134 19.5 228t66 164t128.5 104t202 34h137q232 0 333 -132t101 -398v-445q0 -107 -11 -184t-39.5 -141.5t-77.5 -104t-125 -61t-181 -21.5h-133zM465 365q0 -70 67 -70q68 0 68 70v223l-135 -72v-151zM465 846l135 74v153
q0 70 -68 70q-67 0 -67 -70v-227z" />
    <glyph glyph-name="zero.dnom" horiz-adv-x="671" 
d="M315 -25q-278 0 -278 289v189q0 149 69 218.5t207 69.5h43q139 0 209 -69.5t70 -218.5v-189q0 -150 -69 -219.5t-212 -69.5h-39zM297 199q0 -41 41 -41q21 0 29 10t8 31v321q0 37 -37 37q-41 0 -41 -37v-321z" />
    <glyph glyph-name="one.dnom" horiz-adv-x="495" 
d="M131 0v479h-90v146q117 0 123 104h233v-729h-266z" />
    <glyph glyph-name="two.dnom" horiz-adv-x="655" 
d="M37 164q0 83 28 131.5t107 85.5l150 70q51 25 51 67v27q0 19 -11.5 29t-27.5 10q-23 0 -31 -11t-8 -32v-58h-244v37q0 109 58.5 165t203.5 56h54q124 0 187.5 -43t63.5 -147v-49q0 -72 -31.5 -114t-123.5 -87l-133 -65q-21 -10 -28 -20t-7 -28v-10h315v-178h-573v164z
" />
    <glyph glyph-name="three.dnom" horiz-adv-x="667" 
d="M301 -12q-264 0 -264 184v74h252v-62q0 -37 41 -37q22 0 30.5 8.5t8.5 28.5v72q0 53 -62 53h-117v152h117q24 0 35 2t19 12.5t8 32.5v47q0 35 -39 35t-39 -35v-45h-244v33q0 198 250 198h61q73 0 126.5 -16t81 -42.5t40 -55t12.5 -58.5v-39q0 -57 -36.5 -96t-102.5 -45
v-2q69 -6 110.5 -42.5t41.5 -104.5v-62q0 -97 -74.5 -143.5t-185.5 -46.5h-70z" />
    <glyph glyph-name="four.dnom" horiz-adv-x="684" 
d="M322 0v143h-285v164l166 422h366v-422h78v-164h-78v-143h-247zM221 307h101v285h-9q-30 -102 -37 -123z" />
    <glyph glyph-name="five.dnom" horiz-adv-x="667" 
d="M319 -12q-148 0 -215 55t-67 137v43h252v-33q0 -17 11.5 -27.5t31.5 -10.5q19 0 30 11.5t11 26.5v111q0 45 -45 45q-41 0 -41 -43v-18h-246v444h545v-178h-299v-117h4q55 60 139 60h10q55 0 94.5 -18t59.5 -48.5t28.5 -63.5t8.5 -71v-74q0 -113 -65.5 -172t-213.5 -59
h-33z" />
    <glyph glyph-name="six.dnom" horiz-adv-x="667" 
d="M299 -16q-262 0 -262 276v219q0 40 7.5 75.5t26.5 70.5t49.5 60t80.5 40.5t114 15.5h47q136 0 195 -64t59 -161v-12h-237v16q0 45 -41 45q-43 0 -43 -45v-104h4q26 24 54 36.5t77 12.5h8q98 0 145.5 -51.5t47.5 -141.5v-36q0 -115 -61 -183.5t-191 -68.5h-80zM295 197
q0 -43 37 -43q41 0 41 43v77q0 21 -8.5 32t-32.5 11q-37 0 -37 -43v-77z" />
    <glyph glyph-name="seven.dnom" horiz-adv-x="647" 
d="M121 0l207 545h-287v184h565v-172l-205 -557h-280z" />
    <glyph glyph-name="eight.dnom" horiz-adv-x="671" 
d="M299 -12q-75 0 -130 18t-82 47.5t-38.5 58.5t-11.5 60v25q0 65 35.5 117t115.5 69v4q-64 4 -97.5 45t-33.5 111v18q0 38 10.5 67.5t36 56.5t76 41.5t123.5 14.5h51q129 0 193.5 -41.5t64.5 -138.5v-35q0 -52 -31 -93t-98 -46v-4q71 -13 111.5 -62t40.5 -118v-23
q0 -34 -11.5 -64.5t-38.5 -61t-82 -48.5t-132 -18h-72zM299 176q0 -35 35 -35q37 0 37 35v96q0 37 -37 37q-35 0 -35 -37v-96zM299 496q0 -37 35 -37q39 0 39 37v71q0 35 -35 35q-39 0 -39 -35v-71z" />
    <glyph glyph-name="nine.dnom" horiz-adv-x="667" 
d="M305 -16q-71 0 -123.5 19t-81 51.5t-42 71t-13.5 83.5v22h244v-26q0 -45 41 -45q43 0 43 45v114h-4q-28 -25 -57.5 -37t-82.5 -12h-10q-94 0 -138 51.5t-44 141.5v26q0 115 61 183.5t191 68.5h67q144 0 209.5 -75.5t65.5 -200.5v-219q0 -51 -13 -94.5t-42.5 -83
t-86.5 -62t-137 -22.5h-47zM295 461q0 -21 8.5 -32t32.5 -11q37 0 37 43v67q0 43 -37 43q-41 0 -41 -43v-67z" />
    <glyph glyph-name="zero.numr" horiz-adv-x="671" 
d="M315 680q-278 0 -278 289v188q0 150 69 219.5t207 69.5h43q139 0 209 -69.5t70 -219.5v-188q0 -150 -69 -219.5t-212 -69.5h-39zM297 903q0 -41 41 -41q21 0 29 10t8 31v322q0 37 -37 37q-41 0 -41 -37v-322z" />
    <glyph glyph-name="one.numr" horiz-adv-x="495" 
d="M131 705v479h-90v145q117 0 123 105h233v-729h-266z" />
    <glyph glyph-name="two.numr" horiz-adv-x="655" 
d="M37 868q0 83 28 131.5t107 85.5l150 70q51 25 51 68v26q0 19 -11.5 29t-27.5 10q-23 0 -31 -11t-8 -32v-57h-244v37q0 109 58.5 165t203.5 56h54q124 0 187.5 -43.5t63.5 -147.5v-49q0 -72 -31.5 -113.5t-123.5 -86.5l-133 -66q-21 -10 -28 -19.5t-7 -27.5v-10h315v-178
h-573v163z" />
    <glyph glyph-name="three.numr" horiz-adv-x="667" 
d="M301 692q-264 0 -264 185v73h252v-61q0 -37 41 -37q22 0 30.5 8.5t8.5 28.5v72q0 53 -62 53h-117v151h117q24 0 35 2t19 12.5t8 32.5v48q0 34 -39 34t-39 -34v-46h-244v33q0 199 250 199h61q73 0 126.5 -16t81 -42.5t40 -55t12.5 -58.5v-39q0 -57 -36.5 -96t-102.5 -45
v-2q69 -6 110.5 -43t41.5 -105v-61q0 -97 -74.5 -144t-185.5 -47h-70z" />
    <glyph glyph-name="four.numr" horiz-adv-x="684" 
d="M322 705v143h-285v164l166 422h366v-422h78v-164h-78v-143h-247zM221 1012h101v284h-9q-28 -95 -37 -122z" />
    <glyph glyph-name="five.numr" horiz-adv-x="667" 
d="M319 692q-148 0 -215 55.5t-67 137.5v43h252v-33q0 -18 11.5 -28.5t31.5 -10.5q19 0 30 12t11 27v111q0 45 -45 45q-41 0 -41 -43v-19h-246v445h545v-179h-299v-116h4q54 59 139 59h10q55 0 94.5 -18t59.5 -48.5t28.5 -63.5t8.5 -71v-73q0 -113 -65.5 -172.5
t-213.5 -59.5h-33z" />
    <glyph glyph-name="six.numr" horiz-adv-x="667" 
d="M299 688q-262 0 -262 277v219q0 40 7.5 75.5t26.5 70.5t49.5 60t80.5 40.5t114 15.5h47q136 0 195 -64t59 -161v-13h-237v17q0 45 -41 45q-43 0 -43 -45v-105h4q26 24 54 36.5t77 12.5h8q98 0 145.5 -51t47.5 -141v-37q0 -115 -61 -183.5t-191 -68.5h-80zM295 901
q0 -43 37 -43q41 0 41 43v78q0 21 -8.5 32t-32.5 11q-37 0 -37 -43v-78z" />
    <glyph glyph-name="seven.numr" horiz-adv-x="647" 
d="M121 705l207 544h-287v185h565v-172l-205 -557h-280z" />
    <glyph glyph-name="eight.numr" horiz-adv-x="671" 
d="M299 692q-61 0 -108.5 12.5t-76 31.5t-46.5 45t-24.5 49t-6.5 47v24q0 65 35.5 117t115.5 69v5q-64 4 -97.5 44.5t-33.5 110.5v19q0 38 10.5 67.5t36 56.5t76 41.5t123.5 14.5h51q129 0 193.5 -41.5t64.5 -138.5v-35q0 -52 -31 -93t-98 -46v-5q71 -13 111.5 -62
t40.5 -118v-22q0 -34 -11.5 -64.5t-38.5 -61t-82 -49t-132 -18.5h-72zM299 881q0 -35 35 -35q37 0 37 35v96q0 37 -37 37q-35 0 -35 -37v-96zM299 1200q0 -37 35 -37q39 0 39 37v72q0 35 -35 35q-39 0 -39 -35v-72z" />
    <glyph glyph-name="nine.numr" horiz-adv-x="667" 
d="M305 688q-71 0 -123.5 19t-81 51.5t-42 71t-13.5 83.5v23h244v-27q0 -45 41 -45q43 0 43 45v115h-4q-28 -25 -57.5 -37t-82.5 -12h-10q-94 0 -138 51t-44 141v27q0 115 61 183.5t191 68.5h67q98 0 161 -38t88.5 -98t25.5 -141v-219q0 -51 -13 -94.5t-42.5 -83t-86.5 -62
t-137 -22.5h-47zM295 1165q0 -21 8.5 -32t32.5 -11q37 0 37 43v68q0 43 -37 43q-41 0 -41 -43v-68z" />
    <glyph glyph-name="exclamdown.case" horiz-adv-x="483" 
d="M418 950l20 -950h-397l20 950h357zM43 1085v349h399v-349h-399z" />
    <glyph glyph-name="questiondown.case" horiz-adv-x="978" 
d="M698 834q0 -68 -13.5 -112t-33 -66.5t-61.5 -57.5l-111 -92q-53 -44 -53 -109v-63q0 -72 70 -72q77 0 77 72v112h369v-141q0 -58 -17 -110t-56 -100.5t-115 -77.5t-181 -29h-131q-405 0 -405 338v71q0 134 115 246l84 80q7 7 23.5 21t25 23.5t19 24.5t15.5 35t5 45v76
h374v-114zM315 1085v349h400v-349h-400z" />
    <glyph glyph-name="bullet.case" horiz-adv-x="831" 
d="M414 373q-152 0 -260.5 108.5t-108.5 261.5q0 152 108.5 261.5t260.5 109.5q154 0 263 -109t109 -262q0 -154 -109 -262t-263 -108z" />
    <glyph glyph-name="slash.case" horiz-adv-x="655" 
d="M29 0l311 1434h287l-310 -1434h-288z" />
    <glyph glyph-name="backslash.case" horiz-adv-x="655" 
d="M627 0h-289l-309 1434h286z" />
    <glyph glyph-name="hyphen.case" horiz-adv-x="585" 
d="M41 575v295h504v-295h-504z" />
    <glyph glyph-name="endash.case" horiz-adv-x="829" 
d="M41 600v258h747v-258h-747z" />
    <glyph glyph-name="emdash.case" horiz-adv-x="1503" 
d="M41 600v258h1421v-258h-1421z" />
    <glyph glyph-name="parenleft.case" horiz-adv-x="606" 
d="M565 -4q-96 6 -178 54t-145.5 135t-99.5 223t-36 307q0 339 127.5 525.5t331.5 197.5v-228q-67 -6 -107 -131t-40 -364t39 -361.5t108 -130.5v-227z" />
    <glyph glyph-name="parenright.case" horiz-adv-x="606" 
d="M41 223q69 8 108 130.5t39 361.5t-40 364t-107 131v228q204 -11 331.5 -197.5t127.5 -525.5q0 -171 -36 -307t-99.5 -223t-145.5 -135t-178 -54v227z" />
    <glyph glyph-name="braceleft.case" horiz-adv-x="626" 
d="M305 0q-93 0 -135.5 51t-42.5 127v309q0 61 -19.5 87t-74.5 26v264q55 0 74.5 19.5t19.5 68.5v318q0 71 50 117.5t116 46.5h293v-246h-111q-22 0 -30.5 -12t-8.5 -39v-201q0 -86 -27.5 -132t-89.5 -63v-14q44 -16 65 -29.5t36.5 -50.5t15.5 -102v-252q0 -25 8.5 -36
t30.5 -11h111v-246h-281z" />
    <glyph glyph-name="braceright.case" horiz-adv-x="626" 
d="M313 0h-280v246h110q22 0 30.5 11t8.5 36v252q0 65 15.5 102t36.5 50.5t65 29.5v14q-62 17 -89.5 63t-27.5 132v201q0 27 -8.5 39t-30.5 12h-110v246h293q66 0 116 -46.5t50 -117.5v-318q0 -49 19.5 -68.5t74.5 -19.5v-264q-55 0 -74.5 -26t-19.5 -87v-309
q0 -76 -43 -127t-136 -51z" />
    <glyph glyph-name="bracketleft.case" horiz-adv-x="618" 
d="M127 0v1434h451v-224h-150v-987h150v-223h-451z" />
    <glyph glyph-name="bracketright.case" horiz-adv-x="618" 
d="M492 0h-451v223h149v987h-149v224h451v-1434z" />
    <glyph glyph-name="guillemotleft.case" horiz-adv-x="905" 
d="M557 250l-115 416v28l121 416h305l-127 -432l117 -428h-301zM37 666v28l121 416h305l-127 -432l117 -428h-301z" />
    <glyph glyph-name="guillemotright.case" horiz-adv-x="905" 
d="M348 250h-301l117 428l-127 432h305l121 -416v-28zM442 1110h306l120 -416v-28l-114 -416h-301l116 428z" />
    <glyph glyph-name="guilsinglleft.case" horiz-adv-x="499" 
d="M152 250l-115 416v28l121 416h305l-127 -432l117 -428h-301z" />
    <glyph glyph-name="guilsinglright.case" horiz-adv-x="499" 
d="M348 250h-301l117 428l-127 432h305l121 -416v-28z" />
    <glyph glyph-name="at.case" horiz-adv-x="1617" 
d="M793 -133q-171 0 -304 48t-216 125.5t-136.5 186.5t-74.5 221t-21 238q0 189 56.5 346.5t158 266t246 168t315.5 59.5t305.5 -45t218.5 -117.5t138.5 -172t76 -200.5t21.5 -211q0 -123 -26.5 -232.5t-79.5 -199t-141.5 -142t-203.5 -52.5h-22q-76 0 -134 37t-81 120h-15
q-20 -66 -76 -111.5t-132 -45.5h-21q-155 0 -231 117t-76 323v186q0 216 82.5 334.5t224.5 118.5h21q139 0 198 -90h10v71h373v-798q0 -82 62 -82q42 0 84 56t70 160t28 226q0 65 -7.5 125.5t-28 128t-52.5 125t-84.5 111t-121 91t-166 59.5t-214.5 22q-146 0 -263.5 -41
t-196 -111t-131 -167t-76 -204.5t-23.5 -228.5q0 -735 670 -735q182 0 333 43l5 -82q-180 -45 -342 -45zM739 543q0 -43 14 -62.5t46 -19.5q31 0 43 19t12 63v321q0 44 -12.5 63t-42.5 19q-32 0 -46 -19.5t-14 -62.5v-321z" />
    <glyph glyph-name="bar.case" horiz-adv-x="471" 
d="M102 0v1434h267v-1434h-267z" />
    <glyph glyph-name="bar.salt" horiz-adv-x="2" 
d="M0 -287v1925h4v-1925h-4z" />
    <glyph glyph-name="uni0308.case" 
d="M90 1522v233h336v-233h-336zM520 1522v233h336v-233h-336z" />
    <glyph glyph-name="uni0307.case" 
d="M90 1522v233h311v-233h-311z" />
    <glyph glyph-name="gravecomb.case" 
d="M254 1522l-164 233h379l84 -233h-299z" />
    <glyph glyph-name="acutecomb.case" 
d="M90 1522l84 233h379l-164 -233h-299z" />
    <glyph glyph-name="uni030B.case" 
d="M428 1522l96 231h314l-156 -231h-254zM90 1522l57 231h302l-101 -231h-258z" />
    <glyph glyph-name="uni0302.case" 
d="M90 1522l160 233h379l153 -233h-293l-59 116l-63 -116h-277z" />
    <glyph glyph-name="uni030C.case" 
d="M244 1522l-154 233h293l59 -117l64 117h276l-159 -233h-379z" />
    <glyph glyph-name="uni0306.case" 
d="M393 1524q-303 0 -303 231h219q2 -40 19 -60t65 -20q49 0 67.5 20.5t20.5 59.5h215q0 -231 -303 -231z" />
    <glyph glyph-name="uni030A.case" 
d="M270 1503q-75 0 -127.5 54t-52.5 129q0 74 52.5 126t127.5 52q74 0 127.5 -52.5t53.5 -125.5q0 -75 -53.5 -129t-127.5 -54zM195 1686q0 -32 22 -55t53 -23q32 0 54 23t22 55q0 31 -22 53t-54 22q-31 0 -53 -22t-22 -53z" />
    <glyph glyph-name="tildecomb.case" 
d="M90 1522q0 138 56 203t151 65q55 0 141.5 -29.5t118.5 -29.5q18 0 22.5 14.5t4.5 60.5h190q1 -56 -8.5 -103.5t-30.5 -86.5t-58.5 -61.5t-88.5 -22.5q-70 0 -155 32.5t-111 32.5q-25 0 -34 -17.5t-7 -57.5h-191z" />
    <glyph glyph-name="uni0304.case" 
d="M90 1542v213h619v-213h-619z" />
    </font>
</defs>
</svg>
